<?xml version="1.0" encoding="UTF-8" standalone="no"?>
<!-- Created with Inkscape (http://www.inkscape.org/) -->

<svg
   version="1.1"
   id="svg11454"
   xml:space="preserve"
   width="445.33331"
   height="291.33331"
   xmlns:inkscape="http://www.inkscape.org/namespaces/inkscape"
   xmlns:sodipodi="http://sodipodi.sourceforge.net/DTD/sodipodi-0.dtd"
   xmlns="http://www.w3.org/2000/svg"
   xmlns:svg="http://www.w3.org/2000/svg"><defs
     id="defs11458"><clipPath
       clipPathUnits="userSpaceOnUse"
       id="clipPath2846"><path
         d="M 220.71,57.38 H 540.333 V 227.844 H 220.71 Z"
         id="path2844" /></clipPath></defs><sodipodi:namedview
     id="namedview11456"
     pagecolor="#ffffff"
     bordercolor="#000000"
     borderopacity="0.25"
     inkscape:showpageshadow="2"
     inkscape:pageopacity="0.0"
     inkscape:pagecheckerboard="0"
     inkscape:deskcolor="#d1d1d1" /><inkscape:clipboard
     min="4286.6667,693.23334"
     max="4732,984.56667"
     geom-min="4286.6667,693.23334"
     geom-max="4732,984.56667" /><g
     id="g11462"
     transform="matrix(1.3333333,0,0,-1.3333333,-286.66666,350.76666)"><path
       d="m 215,44.575 h 334 v 218.5 H 215 Z"
       style="fill:#daeaf3;fill-opacity:1;fill-rule:nonzero;stroke:none"
       id="path2810" /><path
       d="m 215,242.375 h 334 v 20.7 H 215 Z"
       style="fill:#007aa4;fill-opacity:1;fill-rule:nonzero;stroke:none"
       id="path2812" /><text
       xml:space="preserve"
       transform="matrix(1,0,0,-1,219,254.8251)"
       style="font-variant:normal;font-weight:bold;font-stretch:normal;font-size:7.5px;font-family:'Flama Bold';-inkscape-font-specification:Flama-Bold;writing-mode:lr-tb;fill:#ffffff;fill-opacity:1;fill-rule:nonzero;stroke:none"
       id="text2818"><tspan
         x="0 4.6574998 6.8474998 11.445 16.094999 19.5075 23.827499 25.7775 30.3375 32.572498 34.522499 39.419998 42.255001 45.09 49.41 53.677502 56.654999 58.605 63.029999 65.864998 67.815002 73.260002 80.309998 84.907501 89.317497 93.945 96.532501 98.422501 102.6 104.55 109.2375 113.6475 120.0225 121.9725 126.3975 131.02499 132.97501 137.1525 141.75 146.07001 150.39 154.9875 159.6375 164.235 166.185 170.595 174.77251 176.7225 181.13251 183.0825 185.9175 189.35249 193.7625 198.03 201.00751 203.19749 207.6225 212.25 214.2 218.625 221.46001 223.41 227.67751 230.265 234.69 238.9575 243.375 245.325 249.5925 253.86 258.1275 260.715 265.035 266.98499 269.96249 272.1525 279.20251 283.52249 285.4725 287.66251 292.29001 294.23999 298.41751 302.73749 306.14999 308.34 312.75 315.22501"
         y="0"
         sodipodi:role="line"
         id="tspan2814">Figure 5. Effect of Amdahl’s Law on speedup as a fraction of clock cycle time in serial </tspan><tspan
         x="0 7.0500002 11.475 16.0725 20.3925 22.51425"
         y="9.5024996"
         sodipodi:role="line"
         id="tspan2816">mode. </tspan></text><path
       d="M 536.846,81.875 H 243.408 v 140.256 h 293.438 z"
       style="fill:#ffffff;fill-opacity:1;fill-rule:nonzero;stroke:none"
       id="path2820" /><path
       d="M 243.669,92.864 H 523.272 V 92.599 H 243.669 Z m 0,10.827 h 279.603 v -0.265 H 243.669 Z m 0,10.742 h 279.603 v -0.265 H 243.669 Z m 0,10.743 h 279.603 v -0.265 H 243.669 Z m 0,10.742 h 279.603 v -0.265 H 243.669 Z m 0,10.827 H 523.272 V 146.48 H 243.669 Z m 0,10.742 h 279.603 v -0.265 H 243.669 Z m 0,10.743 h 279.603 v -0.265 H 243.669 Z m 0,10.827 h 279.603 v -0.265 H 243.669 Z m 0,10.742 h 279.603 v -0.265 H 243.669 Z m 0,10.742 h 279.603 v -0.265 H 243.669 Z m 0,10.827 h 279.603 v -0.265 H 243.669 Z m 0,10.742 h 279.603 v -0.265 H 243.669 Z"
       style="fill:#231f20;fill-opacity:1;fill-rule:nonzero;stroke:none"
       id="path2822" /><path
       d="m 243.515,81.983 h 0.361 v 139.981 h -0.361 z"
       style="fill:#231f20;fill-opacity:1;fill-rule:nonzero;stroke:none"
       id="path2824" /><g
       id="g2826"
       transform="translate(243.5141,81.983)"><path
         d="M 0,0 V 139.981 H 0.362 V 0"
         style="fill:none;stroke:#231f20;stroke-width:0.98;stroke-linecap:butt;stroke-linejoin:miter;stroke-miterlimit:10;stroke-dasharray:none;stroke-opacity:1"
         id="path2828" /></g><path
       d="m 242.167,82.122 h 1.502 v -0.265 h -1.502 z m 0,10.742 h 1.502 v -0.265 h -1.502 z m 0,10.827 h 1.502 v -0.265 h -1.502 z m 0,10.742 h 1.502 v -0.265 h -1.502 z m 0,10.743 h 1.502 v -0.265 h -1.502 z m 0,10.742 h 1.502 v -0.265 h -1.502 z m 0,10.827 h 1.502 v -0.265 h -1.502 z m 0,10.742 h 1.502 v -0.265 h -1.502 z m 0,10.743 h 1.502 v -0.265 h -1.502 z m 0,10.827 h 1.502 v -0.265 h -1.502 z m 0,10.742 h 1.502 v -0.265 h -1.502 z m 0,10.742 h 1.502 v -0.265 h -1.502 z m 0,10.827 h 1.502 v -0.265 h -1.502 z m 0,10.742 h 1.502 v -0.265 h -1.502 z"
       style="fill:#231f20;fill-opacity:1;fill-rule:nonzero;stroke:none"
       id="path2830" /><path
       d="m 243.696,81.857 h 290.757 v 0.264 H 243.696 Z"
       style="fill:#231f20;fill-opacity:1;fill-rule:nonzero;stroke:none"
       id="path2832" /><g
       id="g2834"
       transform="translate(243.695,82.1208)"><path
         d="M 0,0 H 290.757 V -0.264 H 0"
         style="fill:none;stroke:#231f20;stroke-width:0.98;stroke-linecap:butt;stroke-linejoin:miter;stroke-miterlimit:10;stroke-dasharray:none;stroke-opacity:1"
         id="path2836" /></g><path
       d="m 243.849,80.89 h -0.362 v 1.1 h 0.362 z m 4.273,0 h -0.362 v 1.1 h 0.362 z m 4.389,0 h -0.361 v 1.1 h 0.361 z m 4.274,0 h -0.361 v 1.1 h 0.361 z m 4.272,0 h -0.361 v 1.1 h 0.361 z m 4.273,0 h -0.361 v 1.1 h 0.361 z m 4.389,0 h -0.361 v 1.1 h 0.361 z m 4.273,0 h -0.361 v 1.1 h 0.361 z m 4.273,0 h -0.361 v 1.1 h 0.361 z m 4.274,0 h -0.361 v 1.1 h 0.361 z m 4.389,0 h -0.362 v 1.1 h 0.362 z m 4.273,0 h -0.362 v 1.1 h 0.362 z m 4.273,0 h -0.361 v 1.1 h 0.361 z m 4.273,0 h -0.361 v 1.1 h 0.361 z m 4.388,0 h -0.361 v 1.1 h 0.361 z m 4.273,0 h -0.361 v 1.1 h 0.361 z m 4.274,0 h -0.361 v 1.1 h 0.361 z m 4.273,0 h -0.362 v 1.1 h 0.362 z m 4.389,0 h -0.361 v 1.1 h 0.361 z m 4.273,0 h -0.361 v 1.1 h 0.361 z m 4.272,0 h -0.361 v 1.1 h 0.361 z m 4.274,0 h -0.361 v 1.1 h 0.361 z m 4.388,0 h -0.361 v 1.1 h 0.361 z m 4.274,0 h -0.361 v 1.1 h 0.361 z m 4.273,0 h -0.361 v 1.1 h 0.361 z m 4.273,0 h -0.361 v 1.1 h 0.361 z m 4.388,0 h -0.361 v 1.1 h 0.361 z m 4.274,0 h -0.362 v 1.1 h 0.362 z m 4.273,0 h -0.361 v 1.1 h 0.361 z m 4.274,0 h -0.361 v 1.1 h 0.361 z m 4.388,0 h -0.361 v 1.1 h 0.361 z m 4.273,0 h -0.361 v 1.1 h 0.361 z m 4.273,0 h -0.361 v 1.1 h 0.361 z m 4.273,0 h -0.361 v 1.1 h 0.361 z m 4.389,0 h -0.361 v 1.1 h 0.361 z m 4.273,0 h -0.362 v 1.1 h 0.362 z m 4.273,0 h -0.361 v 1.1 h 0.361 z m 4.274,0 h -0.361 v 1.1 h 0.361 z m 4.272,0 h -0.361 v 1.1 h 0.361 z m 4.389,0 h -0.361 v 1.1 h 0.361 z m 4.273,0 h -0.361 v 1.1 h 0.361 z m 4.274,0 h -0.362 v 1.1 h 0.362 z m 4.273,0 h -0.361 v 1.1 h 0.361 z m 4.388,0 h -0.361 v 1.1 h 0.361 z m 4.274,0 h -0.361 v 1.1 h 0.361 z m 4.272,0 h -0.361 v 1.1 h 0.361 z m 4.273,0 h -0.361 v 1.1 h 0.361 z m 4.389,0 h -0.361 v 1.1 h 0.361 z m 4.273,0 h -0.361 v 1.1 h 0.361 z m 4.274,0 h -0.361 v 1.1 h 0.361 z m 4.273,0 h -0.361 v 1.1 h 0.361 z m 4.389,0 h -0.361 v 1.1 h 0.361 z m 4.273,0 h -0.361 v 1.1 h 0.361 z m 4.272,0 h -0.361 v 1.1 h 0.361 z m 4.275,0 h -0.361 v 1.1 h 0.361 z m 4.387,0 h -0.361 v 1.1 h 0.361 z m 4.274,0 h -0.361 v 1.1 h 0.361 z m 4.273,0 h -0.361 v 1.1 h 0.361 z m 4.273,0 h -0.362 v 1.1 h 0.362 z m 4.389,0 h -0.361 v 1.1 h 0.361 z m 4.272,0 h -0.361 v 1.1 h 0.361 z m 4.275,0 h -0.361 v 1.1 h 0.361 z m 4.272,0 h -0.361 v 1.1 h 0.361 z m 4.389,0 h -0.361 v 1.1 h 0.361 z m 4.273,0 h -0.361 v 1.1 h 0.361 z m 4.273,0 h -0.361 v 1.1 h 0.361 z"
       style="fill:#231f20;fill-opacity:1;fill-rule:nonzero;stroke:none"
       id="path2838" /><g
       id="g2840"><g
         id="g2842"
         clip-path="url(#clipPath2846)"><g
           id="g2848"
           transform="translate(245.3633,84.6869)"><path
             d="M 0,0 4.273,2.083 C 4.688,2.285 5.248,2.202 5.524,1.898 5.8,1.594 5.688,1.184 5.273,0.982 L 1,-1.101 C 0.585,-1.303 0.025,-1.22 -0.251,-0.916 -0.527,-0.613 -0.415,-0.203 0,0 M 4.267,2.08 8.541,4.194 C 8.954,4.399 9.515,4.319 9.794,4.016 10.072,3.715 9.965,3.304 9.551,3.099 L 5.278,0.984 C 4.865,0.78 4.305,0.86 4.025,1.162 3.747,1.464 3.855,1.876 4.267,2.08 m 4.297,2.126 4.389,2.029 C 13.374,6.43 13.931,6.338 14.198,6.03 14.463,5.721 14.338,5.313 13.916,5.118 L 9.529,3.088 C 9.107,2.893 8.549,2.985 8.284,3.294 8.017,3.602 8.144,4.011 8.564,4.206 m 4.395,2.032 4.273,1.946 c 0.423,0.192 0.979,0.097 1.243,-0.213 0.263,-0.311 0.132,-0.717 -0.29,-0.91 L 13.912,5.115 c -0.424,-0.192 -0.981,-0.097 -1.243,0.213 -0.264,0.31 -0.134,0.717 0.29,0.91 m 4.273,1.946 4.272,1.944 c 0.424,0.193 0.98,0.098 1.243,-0.211 0.264,-0.31 0.133,-0.718 -0.289,-0.911 L 18.185,7.061 c -0.424,-0.192 -0.98,-0.097 -1.243,0.212 -0.264,0.31 -0.133,0.718 0.29,0.911 m 4.272,1.944 4.274,1.946 c 0.423,0.193 0.98,0.098 1.242,-0.212 0.264,-0.31 0.134,-0.717 -0.29,-0.91 L 22.458,9.006 c -0.424,-0.192 -0.98,-0.097 -1.243,0.213 -0.263,0.31 -0.133,0.717 0.289,0.909 m 4.298,1.958 4.389,1.86 c 0.431,0.183 0.983,0.075 1.233,-0.241 0.249,-0.316 0.103,-0.72 -0.328,-0.903 l -4.389,-1.86 c -0.432,-0.183 -0.983,-0.076 -1.233,0.24 -0.25,0.316 -0.103,0.72 0.328,0.904 m 4.379,1.856 4.274,1.861 c 0.429,0.186 0.981,0.083 1.237,-0.23 0.254,-0.314 0.114,-0.72 -0.314,-0.906 l -4.274,-1.861 c -0.428,-0.187 -0.982,-0.083 -1.236,0.23 -0.255,0.314 -0.115,0.72 0.313,0.906 m 4.274,1.861 4.274,1.86 c 0.428,0.187 0.982,0.084 1.236,-0.229 0.254,-0.315 0.114,-0.719 -0.314,-0.907 l -4.273,-1.86 c -0.429,-0.187 -0.982,-0.084 -1.237,0.231 -0.255,0.313 -0.114,0.719 0.314,0.905 m 4.289,1.867 4.274,1.776 c 0.433,0.181 0.984,0.07 1.23,-0.248 0.245,-0.317 0.094,-0.72 -0.34,-0.901 l -4.274,-1.776 c -0.433,-0.18 -0.983,-0.069 -1.229,0.249 -0.246,0.317 -0.095,0.72 0.339,0.9 m 4.298,1.787 4.389,1.692 c 0.441,0.169 0.986,0.046 1.218,-0.278 0.233,-0.322 0.063,-0.722 -0.378,-0.892 l -4.389,-1.691 c -0.44,-0.171 -0.986,-0.046 -1.218,0.276 -0.233,0.324 -0.063,0.722 0.378,0.893 m 4.38,1.688 4.273,1.691 c 0.438,0.175 0.985,0.054 1.223,-0.266 0.237,-0.322 0.073,-0.723 -0.365,-0.896 L 48.28,19.982 c -0.438,-0.173 -0.986,-0.054 -1.222,0.268 -0.238,0.32 -0.074,0.721 0.364,0.895 m 4.273,1.691 4.273,1.692 c 0.439,0.174 0.986,0.055 1.224,-0.267 0.236,-0.321 0.072,-0.722 -0.366,-0.895 l -4.273,-1.692 c -0.438,-0.174 -0.986,-0.054 -1.222,0.267 -0.237,0.321 -0.075,0.723 0.364,0.895 m 4.273,1.692 4.274,1.692 c 0.438,0.174 0.985,0.055 1.222,-0.267 0.237,-0.321 0.074,-0.722 -0.365,-0.896 l -4.273,-1.691 c -0.438,-0.174 -0.985,-0.054 -1.223,0.267 -0.236,0.321 -0.073,0.722 0.365,0.895 m 4.29,1.699 4.274,1.607 c 0.443,0.166 0.987,0.038 1.214,-0.286 0.227,-0.325 0.053,-0.723 -0.39,-0.89 l -4.273,-1.607 c -0.443,-0.166 -0.987,-0.039 -1.216,0.287 -0.227,0.324 -0.051,0.722 0.391,0.889 m 4.283,1.61 4.387,1.607 c 0.446,0.164 0.988,0.031 1.211,-0.296 0.223,-0.326 0.042,-0.723 -0.403,-0.886 l -4.389,-1.607 c -0.446,-0.164 -0.988,-0.031 -1.21,0.296 -0.224,0.326 -0.042,0.723 0.404,0.886 m 4.379,1.604 4.273,1.607 c 0.444,0.167 0.988,0.039 1.215,-0.286 0.228,-0.325 0.053,-0.723 -0.39,-0.89 l -4.273,-1.607 c -0.444,-0.167 -0.988,-0.038 -1.215,0.286 -0.228,0.325 -0.053,0.724 0.39,0.89 m 4.291,1.613 4.273,1.523 c 0.448,0.159 0.988,0.023 1.206,-0.305 0.218,-0.329 0.032,-0.725 -0.416,-0.883 l -4.275,-1.523 c -0.447,-0.159 -0.986,-0.023 -1.205,0.305 -0.218,0.329 -0.031,0.724 0.417,0.883 m 4.273,1.523 4.273,1.523 c 0.448,0.159 0.988,0.022 1.206,-0.306 0.218,-0.327 0.032,-0.723 -0.416,-0.883 l -4.273,-1.522 c -0.449,-0.16 -0.989,-0.024 -1.207,0.304 -0.217,0.329 -0.031,0.725 0.417,0.884 m 4.299,1.531 4.388,1.438 c 0.456,0.149 0.989,0 1.193,-0.333 0.204,-0.333 0,-0.724 -0.456,-0.873 L 82.52,32.902 c -0.455,-0.149 -0.988,0 -1.192,0.333 -0.203,0.333 0,0.724 0.455,0.873 m 4.363,1.429 4.273,1.524 c 0.448,0.158 0.988,0.022 1.206,-0.306 0.218,-0.329 0.032,-0.724 -0.417,-0.883 l -4.273,-1.523 c -0.448,-0.16 -0.988,-0.023 -1.206,0.305 -0.218,0.328 -0.031,0.724 0.417,0.883 m 4.291,1.529 4.273,1.438 c 0.453,0.152 0.989,0.007 1.197,-0.324 0.207,-0.332 0.009,-0.724 -0.443,-0.876 L 91.19,35.865 c -0.452,-0.152 -0.988,-0.007 -1.196,0.325 -0.209,0.331 -0.01,0.724 0.443,0.876 m 4.273,1.438 4.273,1.438 c 0.453,0.153 0.988,0.007 1.197,-0.324 0.208,-0.332 0.01,-0.725 -0.443,-0.877 l -4.273,-1.437 c -0.454,-0.153 -0.989,-0.008 -1.197,0.324 -0.208,0.331 -0.01,0.723 0.443,0.876 m 4.3,1.447 4.389,1.353 c 0.458,0.141 0.988,-0.016 1.182,-0.352 0.193,-0.338 -0.023,-0.725 -0.483,-0.866 l -4.389,-1.353 c -0.458,-0.142 -0.987,0.016 -1.181,0.352 -0.193,0.337 0.022,0.724 0.482,0.866 m 4.381,1.35 4.273,1.354 c 0.457,0.144 0.988,-0.01 1.186,-0.345 0.198,-0.334 -0.013,-0.723 -0.47,-0.868 l -4.274,-1.354 c -0.457,-0.145 -0.988,0.01 -1.186,0.344 -0.198,0.335 0.013,0.724 0.471,0.869 m 4.273,1.354 4.272,1.353 c 0.458,0.145 0.989,-0.009 1.187,-0.345 0.198,-0.334 -0.013,-0.723 -0.47,-0.868 l -4.273,-1.353 c -0.457,-0.145 -0.989,0.008 -1.186,0.344 -0.198,0.335 0.012,0.724 0.47,0.869 m 4.272,1.353 4.273,1.354 c 0.458,0.144 0.989,-0.01 1.187,-0.345 0.197,-0.335 -0.012,-0.723 -0.47,-0.868 l -4.273,-1.354 c -0.457,-0.145 -0.988,0.009 -1.186,0.344 -0.198,0.335 0.013,0.724 0.469,0.869 m 4.282,1.356 4.388,1.353 c 0.46,0.143 0.988,-0.016 1.182,-0.352 0.193,-0.337 -0.022,-0.724 -0.481,-0.866 l -4.389,-1.353 c -0.46,-0.141 -0.988,0.016 -1.182,0.352 -0.193,0.337 0.023,0.725 0.482,0.866 m 4.399,1.356 4.274,1.27 c 0.462,0.137 0.988,-0.026 1.174,-0.365 0.188,-0.337 -0.035,-0.723 -0.497,-0.861 l -4.273,-1.268 c -0.461,-0.137 -0.988,0.026 -1.174,0.364 -0.188,0.338 0.034,0.723 0.496,0.86 m 4.274,1.27 4.273,1.268 c 0.462,0.137 0.987,-0.026 1.175,-0.364 0.187,-0.338 -0.036,-0.723 -0.497,-0.86 l -4.274,-1.27 c -0.461,-0.137 -0.988,0.027 -1.175,0.365 -0.187,0.338 0.037,0.723 0.498,0.861 m 4.273,1.268 4.273,1.269 c 0.462,0.137 0.988,-0.026 1.175,-0.364 0.188,-0.339 -0.035,-0.724 -0.497,-0.861 l -4.273,-1.268 c -0.462,-0.138 -0.988,0.025 -1.175,0.363 -0.188,0.339 0.035,0.725 0.497,0.861 m 4.3,1.277 4.388,1.184 c 0.469,0.126 0.987,-0.049 1.159,-0.391 0.173,-0.343 -0.066,-0.723 -0.535,-0.849 l -4.388,-1.185 c -0.468,-0.125 -0.987,0.05 -1.159,0.392 -0.172,0.342 0.068,0.722 0.535,0.849 m 4.362,1.176 4.273,1.269 c 0.461,0.138 0.988,-0.026 1.175,-0.364 0.187,-0.338 -0.036,-0.724 -0.497,-0.861 l -4.274,-1.268 c -0.461,-0.137 -0.987,0.025 -1.174,0.364 -0.188,0.338 0.035,0.724 0.497,0.86 m 4.292,1.275 4.274,1.184 c 0.466,0.129 0.987,-0.043 1.163,-0.384 0.175,-0.342 -0.059,-0.723 -0.524,-0.852 l -4.275,-1.185 c -0.465,-0.129 -0.987,0.043 -1.162,0.384 -0.176,0.343 0.058,0.724 0.524,0.853 m 4.274,1.184 4.273,1.184 c 0.465,0.129 0.986,-0.043 1.163,-0.384 0.177,-0.341 -0.059,-0.722 -0.524,-0.852 l -4.273,-1.184 c -0.467,-0.129 -0.987,0.042 -1.164,0.383 -0.177,0.343 0.059,0.724 0.525,0.853 m 4.28,1.186 4.389,1.184 c 0.468,0.126 0.987,-0.049 1.159,-0.391 0.172,-0.343 -0.068,-0.722 -0.535,-0.849 l -4.389,-1.184 c -0.467,-0.126 -0.987,0.049 -1.158,0.391 -0.173,0.343 0.066,0.724 0.534,0.849 m 4.402,1.188 4.273,1.099 c 0.47,0.121 0.985,-0.06 1.15,-0.404 0.166,-0.344 -0.082,-0.722 -0.553,-0.842 l -4.272,-1.101 c -0.47,-0.12 -0.986,0.061 -1.15,0.405 -0.166,0.345 0.081,0.721 0.552,0.843 m 4.273,1.099 4.273,1.1 c 0.47,0.121 0.985,-0.06 1.15,-0.405 0.165,-0.344 -0.082,-0.721 -0.551,-0.841 l -4.275,-1.1 c -0.469,-0.122 -0.985,0.06 -1.149,0.404 -0.165,0.344 0.082,0.721 0.552,0.842 m 4.253,1.094 4.273,1.184 c 0.466,0.13 0.986,-0.042 1.163,-0.383 0.176,-0.342 -0.059,-0.723 -0.524,-0.853 l -4.274,-1.184 c -0.465,-0.129 -0.987,0.043 -1.162,0.385 -0.178,0.341 0.058,0.722 0.524,0.851 m 4.301,1.192 4.388,1.1 c 0.471,0.117 0.984,-0.067 1.146,-0.412 0.16,-0.345 -0.091,-0.721 -0.562,-0.839 l -4.389,-1.099 c -0.471,-0.118 -0.985,0.065 -1.146,0.411 -0.161,0.345 0.091,0.721 0.563,0.839 m 4.402,1.103 4.273,1.015 c 0.474,0.112 0.983,-0.077 1.136,-0.424 0.155,-0.348 -0.105,-0.721 -0.58,-0.833 l -4.273,-1.016 c -0.473,-0.111 -0.983,0.078 -1.137,0.426 -0.153,0.347 0.106,0.719 0.581,0.832 m 4.252,1.009 4.273,1.1 c 0.47,0.122 0.985,-0.06 1.15,-0.404 0.166,-0.344 -0.081,-0.722 -0.552,-0.843 l -4.273,-1.099 c -0.469,-0.121 -0.985,0.059 -1.151,0.404 -0.164,0.344 0.083,0.722 0.553,0.842 m 4.294,1.106 4.273,1.014 c 0.474,0.113 0.983,-0.077 1.136,-0.424 0.154,-0.347 -0.105,-0.721 -0.58,-0.832 l -4.272,-1.016 c -0.475,-0.112 -0.983,0.078 -1.137,0.425 -0.154,0.348 0.106,0.72 0.58,0.833 m 4.26,1.011 4.388,1.1 c 0.471,0.118 0.984,-0.067 1.146,-0.412 0.161,-0.345 -0.09,-0.721 -0.562,-0.839 l -4.388,-1.099 c -0.473,-0.119 -0.985,0.065 -1.146,0.411 -0.162,0.345 0.09,0.721 0.562,0.839 m 4.401,1.103 4.274,1.015 c 0.474,0.113 0.982,-0.078 1.136,-0.425 0.154,-0.347 -0.106,-0.719 -0.58,-0.832 l -4.272,-1.016 c -0.475,-0.112 -0.983,0.079 -1.137,0.426 -0.154,0.347 0.106,0.719 0.579,0.832 m 4.274,1.015 4.273,1.015 c 0.474,0.112 0.983,-0.078 1.137,-0.425 0.153,-0.347 -0.106,-0.719 -0.581,-0.832 l -4.273,-1.015 c -0.473,-0.113 -0.983,0.077 -1.136,0.424 -0.154,0.347 0.105,0.721 0.58,0.833 m 4.294,1.021 4.273,0.93 c 0.478,0.104 0.981,-0.095 1.122,-0.445 0.142,-0.35 -0.13,-0.719 -0.608,-0.823 l -4.272,-0.93 c -0.478,-0.104 -0.98,0.095 -1.123,0.445 -0.142,0.35 0.13,0.718 0.608,0.823 m 4.259,0.926 4.389,1.015 c 0.474,0.11 0.982,-0.083 1.132,-0.431 0.149,-0.348 -0.114,-0.719 -0.588,-0.829 l -4.39,-1.016 c -0.475,-0.109 -0.982,0.084 -1.131,0.432 -0.151,0.349 0.112,0.719 0.588,0.829 m 4.402,1.018 4.275,0.931 c 0.477,0.104 0.979,-0.095 1.121,-0.445 0.142,-0.35 -0.13,-0.718 -0.608,-0.822 l -4.273,-0.93 c -0.477,-0.104 -0.98,0.095 -1.122,0.445 -0.141,0.35 0.13,0.717 0.607,0.821 m 4.252,0.926 4.274,1.015 c 0.474,0.112 0.983,-0.078 1.137,-0.425 0.153,-0.347 -0.107,-0.72 -0.58,-0.832 l -4.273,-1.015 c -0.475,-0.113 -0.983,0.077 -1.136,0.424 -0.155,0.348 0.105,0.721 0.578,0.833 m 4.295,1.02 4.274,0.931 c 0.477,0.104 0.98,-0.096 1.121,-0.446 0.142,-0.349 -0.13,-0.718 -0.607,-0.822 L 215.8,69.92 c -0.478,-0.105 -0.979,0.095 -1.122,0.445 -0.141,0.35 0.131,0.718 0.608,0.822 m 4.279,0.932 4.389,0.93 c 0.479,0.102 0.979,-0.1 1.118,-0.451 0.138,-0.351 -0.137,-0.717 -0.615,-0.818 l -4.389,-0.931 c -0.48,-0.101 -0.979,0.1 -1.118,0.451 -0.139,0.35 0.137,0.718 0.615,0.819 m 4.383,0.929 4.272,0.93 c 0.479,0.104 0.98,-0.095 1.123,-0.445 0.143,-0.35 -0.13,-0.717 -0.607,-0.821 l -4.273,-0.931 c -0.479,-0.104 -0.981,0.095 -1.123,0.445 -0.142,0.349 0.131,0.718 0.608,0.822 m 4.295,0.935 4.273,0.846 c 0.481,0.095 0.976,-0.114 1.106,-0.466 0.131,-0.352 -0.154,-0.715 -0.635,-0.81 l -4.274,-0.846 c -0.481,-0.095 -0.976,0.112 -1.105,0.465 -0.131,0.353 0.154,0.716 0.635,0.811 m 4.251,0.841 4.274,0.93 c 0.477,0.105 0.98,-0.095 1.122,-0.445 0.141,-0.35 -0.13,-0.718 -0.608,-0.821 l -4.274,-0.931 c -0.477,-0.103 -0.98,0.096 -1.121,0.445 -0.142,0.35 0.13,0.718 0.607,0.822 m 4.295,0.935 4.273,0.846 c 0.481,0.095 0.977,-0.113 1.107,-0.466 0.13,-0.352 -0.155,-0.714 -0.636,-0.81 l -4.273,-0.845 c -0.481,-0.096 -0.977,0.112 -1.107,0.464 -0.13,0.353 0.155,0.716 0.636,0.811 m 4.279,0.848 4.388,0.844 c 0.483,0.094 0.976,-0.117 1.103,-0.47 0.126,-0.353 -0.162,-0.715 -0.643,-0.808 l -4.388,-0.845 c -0.483,-0.093 -0.975,0.118 -1.103,0.471 -0.126,0.353 0.161,0.713 0.643,0.808 m 4.361,0.84 4.273,0.93 c 0.478,0.104 0.98,-0.095 1.122,-0.445 0.142,-0.35 -0.13,-0.718 -0.607,-0.823 l -4.274,-0.93 c -0.477,-0.104 -0.98,0.095 -1.122,0.445 -0.142,0.35 0.13,0.719 0.608,0.823 m 4.296,0.935 4.272,0.844 c 0.482,0.096 0.976,-0.112 1.106,-0.464 0.131,-0.353 -0.154,-0.716 -0.635,-0.811 l -4.273,-0.846 c -0.481,-0.095 -0.977,0.113 -1.107,0.466 -0.129,0.352 0.155,0.715 0.637,0.811 m 4.272,0.844 4.274,0.847 c 0.48,0.095 0.976,-0.114 1.107,-0.465 0.129,-0.353 -0.156,-0.716 -0.637,-0.811 l -4.273,-0.846 c -0.481,-0.095 -0.976,0.113 -1.106,0.466 -0.131,0.352 0.155,0.714 0.635,0.809 m 4.3,0.852 4.39,0.761 c 0.485,0.084 0.971,-0.136 1.085,-0.49 0.115,-0.355 -0.185,-0.712 -0.67,-0.796 l -4.388,-0.761 c -0.485,-0.084 -0.971,0.135 -1.087,0.491 -0.115,0.355 0.186,0.711 0.67,0.795 m 4.362,0.757 4.273,0.845 c 0.481,0.096 0.977,-0.113 1.106,-0.466 0.13,-0.352 -0.154,-0.714 -0.635,-0.81 l -4.273,-0.845 c -0.482,-0.095 -0.976,0.112 -1.106,0.464 -0.131,0.353 0.154,0.716 0.635,0.812 m 4.273,0.845 4.273,0.846 c 0.482,0.094 0.977,-0.113 1.107,-0.465 0.13,-0.353 -0.154,-0.716 -0.636,-0.812 l -4.273,-0.845 c -0.481,-0.096 -0.977,0.113 -1.107,0.466 -0.129,0.352 0.155,0.714 0.636,0.81"
             style="fill:#a9433f;fill-opacity:1;fill-rule:nonzero;stroke:none"
             id="path2850" /></g><g
           id="g2852"
           transform="translate(245.3643,82.5769)"><path
             d="M 0,0 4.273,2.078 C 4.688,2.28 5.247,2.197 5.524,1.894 5.799,1.589 5.687,1.179 5.271,0.977 L 0.999,-1.102 C 0.583,-1.304 0.023,-1.22 -0.253,-0.916 -0.528,-0.613 -0.416,-0.202 0,0 M 4.267,2.075 8.54,4.19 C 8.953,4.394 9.514,4.314 9.793,4.012 10.072,3.71 9.964,3.299 9.55,3.094 L 5.277,0.98 C 4.864,0.776 4.304,0.856 4.024,1.157 3.746,1.459 3.854,1.871 4.267,2.075 m 4.311,2.133 4.389,1.945 C 13.393,6.342 13.948,6.242 14.206,5.93 14.463,5.617 14.327,5.211 13.902,5.022 L 9.513,3.077 C 9.087,2.887 8.532,2.987 8.273,3.3 8.015,3.613 8.151,4.018 8.578,4.208 m 4.38,1.94 4.273,1.946 c 0.423,0.193 0.979,0.098 1.243,-0.212 0.263,-0.31 0.132,-0.717 -0.29,-0.911 L 13.911,5.026 C 13.487,4.834 12.93,4.929 12.668,5.239 c -0.264,0.309 -0.133,0.717 0.29,0.909 m 4.288,1.954 4.273,1.86 c 0.428,0.186 0.982,0.083 1.237,-0.231 C 23.011,9.418 22.87,9.012 22.441,8.826 L 18.168,6.965 C 17.74,6.778 17.186,6.881 16.931,7.195 16.677,7.509 16.818,7.914 17.246,8.102 m 4.289,1.867 4.273,1.776 c 0.433,0.18 0.984,0.069 1.23,-0.249 0.246,-0.317 0.094,-0.721 -0.339,-0.9 L 22.426,8.819 c -0.434,-0.18 -0.984,-0.069 -1.23,0.249 -0.246,0.317 -0.094,0.72 0.339,0.901 m 4.298,1.786 4.388,1.692 c 0.441,0.17 0.987,0.046 1.22,-0.277 0.231,-0.324 0.062,-0.723 -0.379,-0.893 l -4.389,-1.692 c -0.441,-0.169 -0.987,-0.046 -1.218,0.277 -0.232,0.324 -0.063,0.723 0.378,0.893 m 4.38,1.688 4.274,1.692 c 0.438,0.173 0.985,0.054 1.222,-0.268 0.237,-0.32 0.073,-0.721 -0.365,-0.895 l -4.273,-1.691 c -0.438,-0.174 -0.986,-0.054 -1.223,0.266 -0.237,0.322 -0.074,0.723 0.365,0.896 m 4.307,1.704 4.273,1.524 c 0.449,0.159 0.988,0.022 1.207,-0.306 0.217,-0.328 0.031,-0.724 -0.417,-0.883 L 35.31,13.96 c -0.448,-0.16 -0.988,-0.024 -1.206,0.304 -0.218,0.329 -0.032,0.724 0.416,0.883 m 4.256,1.517 4.273,1.607 c 0.443,0.167 0.988,0.039 1.215,-0.286 0.228,-0.325 0.053,-0.723 -0.39,-0.89 L 39.6,15.489 c -0.443,-0.167 -0.987,-0.04 -1.214,0.285 -0.228,0.325 -0.053,0.723 0.39,0.89 m 4.317,1.623 4.389,1.438 c 0.455,0.148 0.989,0 1.192,-0.334 0.204,-0.333 0,-0.724 -0.455,-0.873 L 43.83,17.08 c -0.455,-0.149 -0.989,0 -1.193,0.333 -0.203,0.334 10e-4,0.725 0.456,0.874 m 4.381,1.435 4.272,1.437 c 0.453,0.153 0.989,0.007 1.197,-0.324 0.208,-0.332 0.01,-0.723 -0.443,-0.876 L 48.227,18.52 c -0.453,-0.152 -0.989,-0.006 -1.197,0.325 -0.208,0.332 -0.01,0.725 0.444,0.877 m 4.272,1.437 4.274,1.438 c 0.452,0.153 0.988,0.007 1.196,-0.324 0.208,-0.332 0.01,-0.725 -0.443,-0.876 L 52.5,19.959 c -0.453,-0.153 -0.989,-0.008 -1.197,0.324 -0.207,0.331 -0.009,0.724 0.443,0.876 m 4.292,1.444 4.273,1.354 c 0.457,0.145 0.988,-0.009 1.187,-0.344 0.197,-0.336 -0.013,-0.724 -0.47,-0.869 l -4.273,-1.353 c -0.458,-0.145 -0.989,0.008 -1.187,0.344 -0.197,0.335 0.012,0.724 0.47,0.868 m 4.293,1.359 4.273,1.27 c 0.462,0.137 0.987,-0.027 1.174,-0.364 0.189,-0.339 -0.035,-0.724 -0.496,-0.861 l -4.274,-1.269 c -0.461,-0.137 -0.988,0.026 -1.175,0.364 -0.187,0.338 0.035,0.724 0.498,0.86 m 4.28,1.272 4.389,1.269 c 0.464,0.133 0.988,-0.033 1.17,-0.373 0.184,-0.339 -0.044,-0.723 -0.507,-0.856 l -4.389,-1.269 c -0.464,-0.135 -0.987,0.032 -1.171,0.372 -0.183,0.339 0.045,0.722 0.508,0.857 m 4.381,1.267 4.273,1.268 c 0.462,0.137 0.988,-0.025 1.176,-0.364 0.187,-0.339 -0.036,-0.724 -0.497,-0.861 L 69.67,25.276 c -0.461,-0.137 -0.988,0.025 -1.175,0.363 -0.187,0.339 0.036,0.724 0.497,0.862 m 4.293,1.274 4.273,1.184 c 0.466,0.129 0.987,-0.043 1.164,-0.384 0.176,-0.341 -0.059,-0.724 -0.525,-0.852 l -4.273,-1.184 c -0.466,-0.129 -0.987,0.042 -1.163,0.384 -0.177,0.341 0.058,0.723 0.524,0.852 m 4.273,1.184 4.273,1.184 c 0.467,0.129 0.987,-0.043 1.164,-0.384 0.176,-0.341 -0.059,-0.723 -0.524,-0.852 l -4.274,-1.184 c -0.466,-0.129 -0.987,0.043 -1.163,0.384 -0.177,0.341 0.059,0.723 0.524,0.852 m 4.301,1.192 4.389,1.098 c 0.47,0.119 0.984,-0.065 1.145,-0.41 0.161,-0.346 -0.09,-0.722 -0.561,-0.84 L 82.443,28.9 c -0.471,-0.118 -0.985,0.066 -1.146,0.411 -0.161,0.346 0.09,0.721 0.562,0.84 m 4.381,1.098 4.273,1.098 c 0.471,0.122 0.985,-0.06 1.151,-0.404 0.165,-0.344 -0.082,-0.721 -0.553,-0.842 l -4.272,-1.1 c -0.471,-0.121 -0.985,0.061 -1.151,0.405 -0.165,0.345 0.082,0.721 0.552,0.843 m 4.295,1.104 4.272,1.014 c 0.474,0.113 0.983,-0.077 1.137,-0.424 0.154,-0.347 -0.106,-0.72 -0.58,-0.832 L 91.09,31.096 c -0.473,-0.113 -0.982,0.077 -1.135,0.425 -0.154,0.347 0.105,0.719 0.58,0.832 m 4.251,1.01 4.274,1.099 c 0.47,0.122 0.985,-0.06 1.15,-0.404 0.166,-0.345 -0.082,-0.722 -0.551,-0.842 l -4.275,-1.1 c -0.469,-0.121 -0.985,0.06 -1.149,0.405 -0.166,0.344 0.081,0.721 0.551,0.842 m 4.322,1.111 4.389,0.93 c 0.478,0.102 0.979,-0.1 1.117,-0.451 0.139,-0.351 -0.137,-0.717 -0.616,-0.818 L 99.61,33.204 c -0.479,-0.101 -0.98,0.101 -1.118,0.451 -0.138,0.351 0.137,0.717 0.616,0.819 m 4.361,0.924 4.273,1.015 c 0.475,0.112 0.983,-0.078 1.137,-0.425 0.154,-0.347 -0.107,-0.72 -0.58,-0.832 l -4.273,-1.015 c -0.475,-0.113 -0.983,0.077 -1.136,0.424 -0.155,0.348 0.105,0.721 0.579,0.833 m 4.295,1.02 4.273,0.93 c 0.478,0.105 0.98,-0.095 1.121,-0.445 0.143,-0.35 -0.129,-0.718 -0.607,-0.822 l -4.273,-0.93 c -0.478,-0.104 -0.98,0.095 -1.122,0.445 -0.142,0.35 0.13,0.718 0.608,0.822 m 4.273,0.93 4.272,0.931 c 0.479,0.104 0.981,-0.095 1.123,-0.445 0.142,-0.35 -0.13,-0.718 -0.608,-0.822 l -4.273,-0.931 c -0.478,-0.103 -0.98,0.095 -1.122,0.445 -0.143,0.35 0.13,0.719 0.608,0.822 m 4.279,0.932 4.389,0.931 c 0.478,0.101 0.978,-0.101 1.117,-0.452 0.139,-0.35 -0.137,-0.716 -0.616,-0.818 l -4.388,-0.93 c -0.479,-0.102 -0.979,0.099 -1.118,0.45 -0.138,0.351 0.137,0.718 0.616,0.819 m 4.404,0.934 4.273,0.846 c 0.481,0.095 0.976,-0.114 1.107,-0.466 0.13,-0.352 -0.155,-0.715 -0.635,-0.81 l -4.274,-0.846 c -0.481,-0.095 -0.977,0.113 -1.106,0.465 -0.131,0.352 0.155,0.716 0.635,0.811 m 4.273,0.846 4.273,0.845 c 0.482,0.096 0.977,-0.112 1.107,-0.465 0.13,-0.353 -0.155,-0.716 -0.635,-0.811 l -4.273,-0.845 c -0.482,-0.096 -0.977,0.113 -1.107,0.465 -0.13,0.352 0.155,0.716 0.635,0.811 m 4.273,0.845 4.274,0.846 c 0.481,0.095 0.976,-0.113 1.106,-0.465 0.13,-0.352 -0.155,-0.716 -0.636,-0.811 l -4.272,-0.846 c -0.481,-0.095 -0.977,0.114 -1.107,0.466 -0.13,0.353 0.154,0.715 0.635,0.81 m 4.279,0.847 4.388,0.846 c 0.484,0.093 0.976,-0.118 1.103,-0.471 0.126,-0.352 -0.161,-0.714 -0.643,-0.807 l -4.388,-0.846 c -0.482,-0.093 -0.976,0.119 -1.102,0.471 -0.127,0.353 0.16,0.714 0.642,0.807 m 4.405,0.849 4.273,0.762 c 0.484,0.086 0.974,-0.132 1.091,-0.487 0.118,-0.354 -0.179,-0.711 -0.663,-0.797 l -4.274,-0.762 c -0.485,-0.086 -0.973,0.131 -1.09,0.486 -0.118,0.355 0.18,0.712 0.663,0.798 m 4.273,0.762 4.274,0.761 c 0.484,0.085 0.972,-0.131 1.089,-0.486 0.118,-0.355 -0.179,-0.713 -0.663,-0.799 l -4.272,-0.76 c -0.485,-0.087 -0.973,0.13 -1.09,0.485 -0.119,0.355 0.178,0.712 0.662,0.799 m 4.274,0.761 4.273,0.761 c 0.484,0.086 0.972,-0.131 1.09,-0.485 0.117,-0.355 -0.179,-0.713 -0.663,-0.799 l -4.274,-0.762 c -0.484,-0.085 -0.972,0.132 -1.09,0.486 -0.118,0.355 0.18,0.713 0.664,0.799 m 4.279,0.762 4.388,0.761 c 0.485,0.084 0.971,-0.135 1.085,-0.491 0.115,-0.355 -0.185,-0.71 -0.67,-0.795 L 151.191,43.6 c -0.484,-0.085 -0.97,0.136 -1.086,0.491 -0.114,0.355 0.185,0.71 0.671,0.795 m 4.383,0.76 4.273,0.762 c 0.484,0.086 0.972,-0.132 1.09,-0.486 0.117,-0.355 -0.18,-0.713 -0.664,-0.798 l -4.273,-0.762 c -0.484,-0.086 -0.972,0.132 -1.09,0.486 -0.118,0.355 0.178,0.712 0.664,0.798 m 4.294,0.766 4.275,0.676 c 0.487,0.077 0.967,-0.149 1.072,-0.507 0.106,-0.356 -0.205,-0.707 -0.692,-0.785 l -4.272,-0.676 c -0.487,-0.078 -0.968,0.149 -1.074,0.506 -0.104,0.356 0.205,0.708 0.691,0.786 m 4.275,0.676 4.273,0.676 c 0.486,0.078 0.966,-0.149 1.072,-0.506 0.105,-0.356 -0.204,-0.708 -0.691,-0.785 l -4.274,-0.677 c -0.486,-0.077 -0.966,0.149 -1.071,0.507 -0.106,0.356 0.204,0.707 0.691,0.785 m 4.278,0.677 4.389,0.677 c 0.487,0.075 0.965,-0.153 1.067,-0.51 0.104,-0.357 -0.209,-0.708 -0.697,-0.783 l -4.388,-0.677 c -0.487,-0.075 -0.965,0.153 -1.069,0.511 -0.102,0.357 0.21,0.708 0.698,0.782 m 4.384,0.676 4.272,0.677 c 0.487,0.077 0.967,-0.149 1.073,-0.506 0.105,-0.357 -0.204,-0.709 -0.691,-0.786 L 172.77,47.15 c -0.487,-0.078 -0.966,0.149 -1.071,0.506 -0.106,0.356 0.204,0.708 0.691,0.785 m 4.295,0.681 4.274,0.592 c 0.489,0.067 0.961,-0.168 1.053,-0.527 0.094,-0.358 -0.228,-0.704 -0.718,-0.772 l -4.273,-0.592 c -0.49,-0.068 -0.962,0.168 -1.055,0.526 -0.092,0.359 0.229,0.705 0.719,0.773 m 4.25,0.588 4.273,0.677 c 0.488,0.077 0.968,-0.15 1.073,-0.506 0.106,-0.358 -0.204,-0.709 -0.691,-0.786 l -4.273,-0.677 c -0.488,-0.077 -0.967,0.15 -1.073,0.507 -0.105,0.356 0.204,0.708 0.691,0.785 m 4.301,0.681 4.389,0.592 c 0.49,0.065 0.96,-0.172 1.05,-0.53 0.091,-0.359 -0.233,-0.704 -0.723,-0.77 l -4.39,-0.592 c -0.49,-0.065 -0.959,0.172 -1.049,0.53 -0.092,0.359 0.233,0.704 0.723,0.77 m 4.385,0.592 4.272,0.592 c 0.49,0.067 0.963,-0.169 1.055,-0.527 0.092,-0.358 -0.23,-0.704 -0.719,-0.773 l -4.274,-0.592 c -0.489,-0.067 -0.961,0.169 -1.053,0.528 -0.093,0.358 0.229,0.703 0.719,0.772 m 4.272,0.592 4.273,0.592 c 0.489,0.067 0.962,-0.168 1.055,-0.528 0.092,-0.357 -0.229,-0.703 -0.719,-0.771 l -4.273,-0.593 c -0.49,-0.066 -0.962,0.169 -1.054,0.527 -0.093,0.359 0.229,0.704 0.718,0.773 m 4.273,0.592 4.274,0.592 c 0.49,0.067 0.961,-0.168 1.054,-0.528 0.093,-0.357 -0.229,-0.703 -0.718,-0.771 l -4.274,-0.592 c -0.489,-0.067 -0.962,0.168 -1.054,0.526 -0.093,0.359 0.228,0.704 0.718,0.773 m 4.279,0.593 4.387,0.592 c 0.49,0.065 0.961,-0.172 1.051,-0.53 0.09,-0.36 -0.234,-0.704 -0.724,-0.771 l -4.388,-0.592 c -0.49,-0.066 -0.961,0.172 -1.052,0.53 -0.089,0.36 0.235,0.704 0.726,0.771 m 4.407,0.594 4.272,0.507 c 0.492,0.059 0.956,-0.186 1.036,-0.547 0.08,-0.359 -0.255,-0.699 -0.747,-0.757 l -4.272,-0.508 c -0.492,-0.059 -0.956,0.186 -1.036,0.547 -0.079,0.36 0.255,0.699 0.747,0.758 m 4.25,0.504 4.273,0.592 c 0.489,0.068 0.961,-0.167 1.054,-0.526 0.093,-0.359 -0.229,-0.705 -0.719,-0.772 l -4.274,-0.592 c -0.489,-0.068 -0.961,0.167 -1.054,0.526 -0.092,0.359 0.23,0.704 0.72,0.772 m 4.296,0.595 4.273,0.508 c 0.492,0.058 0.955,-0.186 1.035,-0.547 0.08,-0.361 -0.254,-0.7 -0.746,-0.757 l -4.273,-0.508 c -0.492,-0.059 -0.955,0.186 -1.035,0.547 -0.08,0.359 0.255,0.7 0.746,0.757 m 4.277,0.508 4.389,0.508 c 0.492,0.057 0.954,-0.189 1.032,-0.55 0.077,-0.36 -0.259,-0.699 -0.751,-0.756 l -4.389,-0.507 c -0.492,-0.057 -0.955,0.189 -1.032,0.549 -0.077,0.361 0.259,0.699 0.751,0.756 m 4.385,0.508 4.273,0.506 c 0.492,0.059 0.955,-0.186 1.035,-0.545 0.079,-0.361 -0.254,-0.7 -0.746,-0.759 l -4.274,-0.507 c -0.491,-0.059 -0.955,0.186 -1.034,0.546 -0.08,0.36 0.254,0.7 0.746,0.759 m 4.273,0.506 4.273,0.508 c 0.492,0.059 0.956,-0.186 1.035,-0.546 0.08,-0.36 -0.255,-0.7 -0.746,-0.758 l -4.273,-0.508 c -0.492,-0.058 -0.956,0.186 -1.035,0.547 -0.08,0.361 0.254,0.7 0.746,0.757 m 4.273,0.508 4.272,0.508 c 0.492,0.059 0.956,-0.186 1.036,-0.547 0.08,-0.36 -0.254,-0.7 -0.746,-0.758 l -4.273,-0.507 c -0.492,-0.058 -0.956,0.186 -1.036,0.547 -0.079,0.359 0.255,0.699 0.747,0.757 m 4.272,0.508 4.275,0.508 c 0.492,0.058 0.954,-0.187 1.034,-0.547 0.081,-0.36 -0.253,-0.699 -0.745,-0.758 l -4.274,-0.508 c -0.493,-0.058 -0.955,0.187 -1.035,0.547 -0.08,0.36 0.254,0.699 0.745,0.758 m 4.301,0.51 4.389,0.423 c 0.494,0.048 0.948,-0.207 1.012,-0.569 0.065,-0.362 -0.283,-0.693 -0.777,-0.741 l -4.389,-0.423 c -0.494,-0.048 -0.946,0.207 -1.012,0.569 -0.065,0.362 0.283,0.693 0.777,0.741 m 4.362,0.42 4.274,0.508 c 0.492,0.058 0.954,-0.187 1.034,-0.546 0.079,-0.361 -0.254,-0.7 -0.746,-0.759 l -4.273,-0.508 c -0.492,-0.057 -0.955,0.187 -1.035,0.547 -0.08,0.36 0.254,0.7 0.746,0.758 m 4.296,0.511 4.274,0.422 c 0.493,0.049 0.948,-0.205 1.015,-0.566 0.067,-0.361 -0.279,-0.694 -0.773,-0.743 l -4.274,-0.424 c -0.494,-0.049 -0.948,0.205 -1.015,0.567 -0.066,0.362 0.279,0.695 0.773,0.744 m 4.25,0.42 4.273,0.507 c 0.492,0.059 0.956,-0.185 1.035,-0.546 0.08,-0.361 -0.255,-0.7 -0.746,-0.759 l -4.273,-0.506 c -0.492,-0.059 -0.955,0.186 -1.035,0.545 -0.08,0.361 0.254,0.7 0.746,0.759 m 4.301,0.51 4.388,0.423 c 0.494,0.047 0.947,-0.207 1.012,-0.569 0.065,-0.362 -0.283,-0.694 -0.776,-0.741 l -4.389,-0.424 c -0.495,-0.047 -0.948,0.208 -1.013,0.57 -0.065,0.361 0.283,0.694 0.778,0.741 m 4.385,0.423 4.273,0.423 c 0.494,0.049 0.949,-0.205 1.015,-0.567 0.066,-0.362 -0.279,-0.694 -0.773,-0.743 l -4.274,-0.423 c -0.493,-0.049 -0.948,0.205 -1.015,0.566 -0.066,0.362 0.28,0.695 0.774,0.744 m 4.273,0.423 4.273,0.423 c 0.494,0.049 0.948,-0.205 1.014,-0.567 0.068,-0.361 -0.279,-0.694 -0.773,-0.743 l -4.272,-0.423 c -0.494,-0.049 -0.949,0.205 -1.015,0.567 -0.068,0.361 0.279,0.694 0.773,0.743 m 4.273,0.423 4.272,0.422 c 0.494,0.049 0.949,-0.204 1.017,-0.566 0.065,-0.362 -0.281,-0.694 -0.774,-0.743 l -4.274,-0.423 c -0.494,-0.048 -0.948,0.204 -1.014,0.566 -0.067,0.362 0.279,0.695 0.773,0.744"
             style="fill:#85a348;fill-opacity:1;fill-rule:nonzero;stroke:none"
             id="path2854" /></g><g
           id="g2856"
           transform="translate(245.3724,82.6286)"><path
             d="M 0,0 4.273,2.03 C 4.691,2.229 5.249,2.142 5.521,1.836 5.792,1.529 5.673,1.12 5.255,0.921 L 0.982,-1.108 C 0.564,-1.307 0.005,-1.22 -0.266,-0.914 -0.537,-0.608 -0.419,-0.199 0,0 M 4.273,2.03 8.546,4.061 C 8.964,4.259 9.523,4.171 9.794,3.866 10.066,3.559 9.946,3.15 9.529,2.951 L 5.255,0.921 C 4.837,0.722 4.278,0.81 4.007,1.116 3.736,1.422 3.855,1.832 4.273,2.03 m 4.312,2.048 4.389,1.86 c 0.431,0.184 0.983,0.076 1.233,-0.241 0.249,-0.315 0.102,-0.719 -0.329,-0.902 L 9.489,2.934 C 9.058,2.751 8.506,2.859 8.256,3.175 8.006,3.491 8.153,3.895 8.585,4.078 m 4.412,1.87 4.273,1.692 c 0.438,0.173 0.985,0.054 1.223,-0.268 0.237,-0.32 0.073,-0.721 -0.365,-0.895 L 13.855,4.785 C 13.417,4.612 12.869,4.732 12.633,5.052 12.395,5.373 12.558,5.775 12.997,5.948 m 4.29,1.698 4.273,1.607 c 0.443,0.167 0.987,0.038 1.215,-0.286 0.227,-0.324 0.053,-0.722 -0.39,-0.889 L 18.111,6.471 c -0.444,-0.167 -0.987,-0.04 -1.215,0.286 -0.227,0.324 -0.052,0.722 0.391,0.889 m 4.309,1.62 4.273,1.438 c 0.453,0.153 0.988,0.007 1.196,-0.325 0.208,-0.332 0.01,-0.723 -0.443,-0.876 L 22.349,8.065 C 21.895,7.912 21.36,8.058 21.153,8.39 c -0.208,0.331 -0.01,0.724 0.443,0.876 m 4.281,1.441 4.389,1.437 c 0.454,0.149 0.988,0 1.191,-0.333 0.204,-0.333 0,-0.723 -0.454,-0.873 L 26.614,9.5 c -0.455,-0.149 -0.988,0 -1.192,0.333 -0.204,0.334 0,0.725 0.455,0.874 m 4.418,1.446 4.273,1.269 c 0.462,0.138 0.988,-0.026 1.175,-0.363 0.187,-0.338 -0.035,-0.724 -0.498,-0.862 l -4.272,-1.268 c -0.462,-0.137 -0.988,0.026 -1.175,0.364 -0.187,0.339 0.035,0.724 0.497,0.86 m 4.273,1.269 4.273,1.27 c 0.462,0.136 0.988,-0.027 1.176,-0.365 0.187,-0.338 -0.036,-0.723 -0.497,-0.86 l -4.275,-1.27 c -0.461,-0.136 -0.987,0.027 -1.174,0.365 -0.187,0.338 0.036,0.723 0.497,0.86 m 4.313,1.28 4.273,1.1 c 0.47,0.121 0.986,-0.06 1.15,-0.405 0.166,-0.344 -0.081,-0.721 -0.551,-0.842 l -4.274,-1.099 c -0.47,-0.122 -0.985,0.06 -1.15,0.404 -0.166,0.345 0.082,0.721 0.552,0.842 m 4.281,1.102 4.388,1.1 c 0.472,0.117 0.985,-0.067 1.146,-0.412 0.161,-0.345 -0.091,-0.721 -0.562,-0.839 l -4.388,-1.1 c -0.473,-0.118 -0.985,0.066 -1.147,0.412 -0.161,0.345 0.091,0.721 0.563,0.839 m 4.401,1.103 4.274,1.015 c 0.474,0.112 0.983,-0.077 1.136,-0.425 0.154,-0.347 -0.105,-0.72 -0.579,-0.832 L 48.12,15.649 c -0.473,-0.111 -0.982,0.078 -1.136,0.425 -0.154,0.348 0.106,0.72 0.579,0.833 m 4.274,1.015 4.273,1.015 c 0.474,0.112 0.983,-0.078 1.137,-0.425 0.154,-0.347 -0.106,-0.72 -0.581,-0.832 l -4.272,-1.015 c -0.474,-0.113 -0.983,0.077 -1.138,0.424 -0.153,0.348 0.107,0.72 0.581,0.833 m 4.316,1.024 4.273,0.846 c 0.481,0.095 0.976,-0.114 1.107,-0.465 0.13,-0.353 -0.155,-0.716 -0.636,-0.811 L 56.623,17.67 c -0.48,-0.095 -0.976,0.114 -1.105,0.466 -0.131,0.352 0.154,0.714 0.635,0.81 m 4.252,0.841 4.273,0.931 c 0.477,0.104 0.98,-0.095 1.121,-0.445 0.142,-0.35 -0.13,-0.718 -0.608,-0.822 L 60.918,18.52 c -0.477,-0.103 -0.979,0.096 -1.121,0.446 -0.142,0.35 0.13,0.717 0.608,0.821 m 4.3,0.937 4.389,0.845 c 0.481,0.093 0.975,-0.118 1.102,-0.47 0.126,-0.353 -0.161,-0.715 -0.643,-0.808 l -4.389,-0.846 c -0.481,-0.092 -0.975,0.118 -1.102,0.472 -0.127,0.352 0.161,0.713 0.643,0.807 m 4.405,0.848 4.273,0.762 c 0.484,0.086 0.972,-0.132 1.09,-0.486 0.118,-0.354 -0.179,-0.712 -0.664,-0.798 l -4.273,-0.762 c -0.484,-0.086 -0.971,0.131 -1.09,0.486 -0.117,0.355 0.18,0.712 0.664,0.798 m 4.273,0.762 4.273,0.761 c 0.484,0.086 0.973,-0.131 1.09,-0.486 0.118,-0.355 -0.179,-0.712 -0.663,-0.799 l -4.274,-0.76 c -0.484,-0.087 -0.972,0.131 -1.089,0.486 -0.118,0.354 0.179,0.711 0.663,0.798 m 4.296,0.765 4.273,0.676 c 0.487,0.078 0.967,-0.15 1.072,-0.505 0.106,-0.358 -0.204,-0.709 -0.691,-0.787 L 78.06,21.807 c -0.487,-0.077 -0.967,0.149 -1.072,0.506 -0.106,0.357 0.204,0.709 0.691,0.786 m 4.278,0.677 4.389,0.677 c 0.487,0.075 0.965,-0.153 1.068,-0.51 0.103,-0.358 -0.209,-0.708 -0.697,-0.783 l -4.389,-0.677 c -0.488,-0.075 -0.966,0.153 -1.068,0.51 -0.103,0.358 0.21,0.708 0.697,0.783 m 4.384,0.677 4.273,0.676 c 0.487,0.077 0.967,-0.15 1.072,-0.506 0.105,-0.358 -0.203,-0.71 -0.691,-0.786 L 86.722,23.16 c -0.487,-0.077 -0.967,0.15 -1.073,0.506 -0.105,0.357 0.205,0.709 0.692,0.787 m 4.296,0.68 4.273,0.592 c 0.489,0.067 0.961,-0.169 1.055,-0.528 0.092,-0.357 -0.23,-0.703 -0.72,-0.772 l -4.273,-0.592 c -0.489,-0.068 -0.962,0.169 -1.054,0.527 -0.093,0.359 0.23,0.704 0.719,0.773 m 4.273,0.592 4.273,0.592 c 0.489,0.067 0.962,-0.168 1.054,-0.528 0.093,-0.357 -0.229,-0.703 -0.719,-0.771 l -4.273,-0.593 c -0.489,-0.067 -0.961,0.169 -1.053,0.527 -0.094,0.359 0.228,0.704 0.718,0.773 m 4.277,0.593 4.389,0.592 c 0.49,0.065 0.96,-0.172 1.051,-0.531 0.09,-0.359 -0.234,-0.703 -0.724,-0.77 l -4.389,-0.592 c -0.49,-0.066 -0.96,0.172 -1.051,0.53 -0.089,0.359 0.234,0.704 0.724,0.771 m 4.385,0.591 4.273,0.592 c 0.489,0.067 0.962,-0.168 1.054,-0.527 0.093,-0.358 -0.229,-0.704 -0.719,-0.772 l -4.273,-0.592 c -0.49,-0.068 -0.961,0.168 -1.054,0.526 -0.092,0.359 0.229,0.705 0.719,0.773 m 4.296,0.595 4.273,0.507 c 0.492,0.059 0.956,-0.186 1.035,-0.547 0.08,-0.359 -0.254,-0.699 -0.746,-0.757 l -4.273,-0.508 c -0.492,-0.059 -0.956,0.186 -1.035,0.547 -0.08,0.36 0.255,0.699 0.746,0.758 m 4.273,0.507 4.273,0.508 c 0.492,0.058 0.956,-0.186 1.035,-0.547 0.081,-0.361 -0.254,-0.7 -0.746,-0.758 l -4.273,-0.507 c -0.492,-0.059 -0.955,0.186 -1.035,0.546 -0.079,0.36 0.255,0.699 0.746,0.758 m 4.277,0.508 4.389,0.508 c 0.492,0.056 0.954,-0.19 1.032,-0.55 0.078,-0.361 -0.259,-0.699 -0.751,-0.756 L 116.7,27.213 c -0.493,-0.056 -0.955,0.19 -1.033,0.55 -0.077,0.361 0.259,0.699 0.751,0.756 m 4.409,0.51 4.273,0.423 c 0.494,0.049 0.948,-0.205 1.014,-0.566 0.068,-0.362 -0.279,-0.695 -0.773,-0.744 l -4.273,-0.423 c -0.494,-0.049 -0.948,0.205 -1.015,0.566 -0.066,0.362 0.28,0.695 0.774,0.744 m 4.249,0.42 4.274,0.508 c 0.492,0.059 0.954,-0.186 1.035,-0.547 0.079,-0.36 -0.255,-0.7 -0.746,-0.758 l -4.273,-0.507 c -0.492,-0.059 -0.956,0.186 -1.036,0.545 -0.08,0.361 0.254,0.7 0.746,0.759 m 4.297,0.51 4.273,0.423 c 0.493,0.049 0.948,-0.205 1.015,-0.566 0.066,-0.362 -0.279,-0.695 -0.773,-0.743 l -4.274,-0.424 c -0.493,-0.049 -0.947,0.205 -1.014,0.567 -0.067,0.361 0.279,0.695 0.773,0.743 m 4.276,0.423 4.388,0.424 c 0.494,0.048 0.948,-0.208 1.014,-0.57 0.064,-0.362 -0.285,-0.693 -0.778,-0.741 l -4.388,-0.423 c -0.494,-0.047 -0.947,0.208 -1.013,0.569 -0.065,0.362 0.283,0.694 0.777,0.741 m 4.41,0.425 4.273,0.339 c 0.495,0.039 0.94,-0.224 0.994,-0.586 0.054,-0.363 -0.305,-0.69 -0.801,-0.729 l -4.272,-0.338 c -0.496,-0.039 -0.941,0.223 -0.995,0.586 -0.053,0.363 0.305,0.689 0.801,0.728 m 4.25,0.336 4.272,0.423 c 0.494,0.049 0.949,-0.205 1.015,-0.566 0.067,-0.362 -0.279,-0.694 -0.773,-0.743 l -4.273,-0.424 c -0.494,-0.048 -0.949,0.205 -1.015,0.567 -0.067,0.361 0.28,0.695 0.774,0.743 m 4.272,0.423 4.273,0.423 c 0.494,0.049 0.948,-0.204 1.015,-0.566 0.067,-0.362 -0.28,-0.695 -0.773,-0.744 l -4.273,-0.422 c -0.494,-0.049 -0.949,0.205 -1.015,0.566 -0.067,0.362 0.279,0.694 0.773,0.743 m 4.3,0.425 4.387,0.339 c 0.496,0.038 0.94,-0.225 0.993,-0.588 0.052,-0.363 -0.307,-0.689 -0.802,-0.727 l -4.389,-0.338 c -0.496,-0.038 -0.94,0.226 -0.992,0.588 -0.052,0.363 0.307,0.688 0.803,0.726 m 4.385,0.339 4.274,0.338 c 0.496,0.039 0.941,-0.223 0.994,-0.586 0.053,-0.363 -0.304,-0.688 -0.8,-0.728 l -4.273,-0.338 c -0.495,-0.04 -0.94,0.223 -0.994,0.585 -0.054,0.363 0.305,0.689 0.799,0.729 m 4.274,0.338 4.273,0.338 c 0.496,0.039 0.94,-0.223 0.994,-0.585 0.054,-0.363 -0.305,-0.689 -0.8,-0.728 l -4.273,-0.339 c -0.496,-0.039 -0.941,0.223 -0.995,0.585 -0.053,0.364 0.306,0.69 0.801,0.729 m 4.273,0.338 4.273,0.338 c 0.495,0.04 0.94,-0.222 0.994,-0.585 0.054,-0.363 -0.304,-0.689 -0.8,-0.728 l -4.273,-0.338 c -0.495,-0.04 -0.941,0.222 -0.994,0.586 -0.054,0.362 0.304,0.688 0.8,0.727 m 4.275,0.339 4.389,0.338 c 0.496,0.038 0.94,-0.225 0.992,-0.588 0.052,-0.363 -0.308,-0.688 -0.803,-0.726 l -4.389,-0.338 c -0.495,-0.039 -0.939,0.225 -0.992,0.588 -0.052,0.362 0.308,0.688 0.803,0.726 m 4.411,0.34 4.273,0.253 c 0.497,0.03 0.932,-0.241 0.972,-0.605 0.04,-0.363 -0.329,-0.683 -0.826,-0.712 l -4.273,-0.254 c -0.497,-0.029 -0.932,0.242 -0.973,0.606 -0.04,0.363 0.331,0.682 0.827,0.712 m 4.248,0.252 4.275,0.338 c 0.494,0.039 0.939,-0.223 0.992,-0.586 0.054,-0.363 -0.303,-0.689 -0.799,-0.728 l -4.273,-0.338 c -0.496,-0.04 -0.941,0.223 -0.994,0.586 -0.054,0.362 0.305,0.689 0.799,0.728 m 4.298,0.34 4.273,0.253 c 0.496,0.03 0.932,-0.241 0.973,-0.605 0.04,-0.363 -0.33,-0.683 -0.827,-0.711 l -4.273,-0.255 c -0.497,-0.029 -0.932,0.242 -0.973,0.605 -0.04,0.364 0.33,0.683 0.827,0.713 m 4.252,0.252 4.389,0.338 c 0.495,0.038 0.94,-0.224 0.99,-0.587 0.053,-0.364 -0.306,-0.689 -0.801,-0.727 l -4.39,-0.338 c -0.494,-0.039 -0.939,0.225 -0.991,0.588 -0.052,0.362 0.307,0.688 0.803,0.726 m 4.41,0.34 4.272,0.254 c 0.497,0.029 0.933,-0.242 0.974,-0.606 0.04,-0.363 -0.33,-0.682 -0.827,-0.711 l -4.273,-0.254 c -0.497,-0.03 -0.933,0.241 -0.973,0.604 -0.04,0.364 0.33,0.684 0.827,0.713 m 4.272,0.254 4.275,0.254 c 0.497,0.029 0.931,-0.242 0.972,-0.606 0.04,-0.364 -0.33,-0.682 -0.827,-0.712 l -4.273,-0.253 c -0.496,-0.031 -0.932,0.241 -0.972,0.604 -0.04,0.364 0.329,0.683 0.825,0.713 m 4.275,0.254 4.272,0.254 c 0.497,0.029 0.932,-0.243 0.972,-0.606 0.04,-0.364 -0.329,-0.682 -0.825,-0.713 l -4.274,-0.253 c -0.497,-0.029 -0.932,0.242 -0.973,0.605 -0.04,0.364 0.331,0.682 0.828,0.713 m 4.274,0.254 4.389,0.252 c 0.497,0.03 0.931,-0.242 0.97,-0.605 0.039,-0.365 -0.331,-0.683 -0.828,-0.712 l -4.388,-0.254 c -0.497,-0.028 -0.932,0.243 -0.971,0.607 -0.04,0.365 0.331,0.682 0.828,0.712 m 4.387,0.252 4.273,0.254 c 0.497,0.03 0.932,-0.241 0.972,-0.604 0.04,-0.364 -0.33,-0.684 -0.826,-0.713 l -4.273,-0.253 c -0.497,-0.03 -0.932,0.241 -0.972,0.605 -0.041,0.363 0.33,0.683 0.826,0.711 m 4.273,0.254 4.273,0.254 c 0.497,0.03 0.932,-0.241 0.973,-0.605 0.04,-0.363 -0.33,-0.683 -0.827,-0.712 l -4.273,-0.254 c -0.496,-0.029 -0.932,0.241 -0.972,0.606 -0.04,0.363 0.329,0.682 0.826,0.711 m 4.273,0.254 4.273,0.254 c 0.497,0.029 0.933,-0.241 0.973,-0.606 0.04,-0.363 -0.33,-0.682 -0.826,-0.711 l -4.274,-0.254 c -0.497,-0.03 -0.932,0.242 -0.972,0.606 -0.04,0.363 0.33,0.682 0.826,0.711 m 4.299,0.256 4.389,0.168 c 0.498,0.02 0.922,-0.26 0.948,-0.625 0.026,-0.364 -0.356,-0.675 -0.854,-0.695 l -4.388,-0.168 c -0.498,-0.02 -0.923,0.26 -0.949,0.625 -0.025,0.365 0.356,0.675 0.854,0.695 m 4.362,0.168 4.275,0.253 c 0.496,0.03 0.932,-0.242 0.972,-0.605 0.04,-0.364 -0.33,-0.682 -0.827,-0.712 l -4.273,-0.254 c -0.497,-0.029 -0.932,0.241 -0.972,0.605 -0.04,0.365 0.329,0.683 0.825,0.713 m 4.275,0.253 4.273,0.254 c 0.496,0.03 0.931,-0.242 0.971,-0.605 0.04,-0.364 -0.329,-0.683 -0.826,-0.713 l -4.273,-0.253 c -0.497,-0.03 -0.931,0.241 -0.972,0.605 -0.041,0.363 0.33,0.683 0.827,0.712 m 4.296,0.255 4.274,0.169 c 0.497,0.019 0.922,-0.26 0.95,-0.624 0.027,-0.364 -0.356,-0.676 -0.853,-0.695 l -4.273,-0.17 c -0.498,-0.02 -0.923,0.261 -0.95,0.624 -0.027,0.365 0.355,0.677 0.852,0.696 m 4.274,0.169 4.273,0.169 c 0.498,0.02 0.923,-0.259 0.95,-0.624 0.026,-0.365 -0.354,-0.675 -0.852,-0.695 l -4.274,-0.169 c -0.497,-0.02 -0.923,0.259 -0.949,0.624 -0.028,0.364 0.355,0.675 0.852,0.695 m 4.251,0.168 4.388,0.254 c 0.497,0.029 0.931,-0.243 0.97,-0.607 0.041,-0.364 -0.331,-0.682 -0.828,-0.711 l -4.389,-0.253 c -0.497,-0.029 -0.931,0.243 -0.97,0.607 -0.039,0.363 0.332,0.682 0.829,0.71 m 4.411,0.255 4.273,0.169 c 0.498,0.019 0.922,-0.26 0.95,-0.624 0.026,-0.364 -0.355,-0.676 -0.853,-0.695 l -4.273,-0.17 c -0.497,-0.02 -0.923,0.261 -0.949,0.624 -0.027,0.365 0.354,0.677 0.852,0.696 m 4.273,0.169 4.272,0.169 c 0.498,0.02 0.923,-0.259 0.95,-0.624 0.028,-0.365 -0.354,-0.675 -0.852,-0.695 l -4.273,-0.169 c -0.497,-0.02 -0.923,0.259 -0.95,0.624 -0.026,0.364 0.355,0.675 0.853,0.695 m 4.249,0.168 4.272,0.254 c 0.497,0.03 0.933,-0.241 0.973,-0.606 0.04,-0.363 -0.329,-0.682 -0.826,-0.711 l -4.274,-0.254 c -0.496,-0.029 -0.931,0.241 -0.972,0.605 -0.041,0.363 0.33,0.683 0.827,0.712 m 4.298,0.255 4.388,0.17 c 0.498,0.018 0.924,-0.261 0.949,-0.626 0.027,-0.364 -0.356,-0.675 -0.854,-0.694 l -4.388,-0.17 c -0.497,-0.019 -0.922,0.262 -0.948,0.626 -0.027,0.364 0.356,0.676 0.853,0.694 m 4.387,0.169 4.275,0.169 c 0.496,0.02 0.922,-0.259 0.948,-0.623 0.028,-0.365 -0.355,-0.676 -0.852,-0.696 l -4.273,-0.169 c -0.498,-0.02 -0.922,0.259 -0.949,0.624 -0.028,0.364 0.354,0.675 0.851,0.695 m 4.275,0.169 4.272,0.17 c 0.498,0.019 0.922,-0.26 0.95,-0.624 0.026,-0.365 -0.355,-0.677 -0.852,-0.696 l -4.274,-0.169 c -0.497,-0.02 -0.923,0.26 -0.949,0.624 -0.028,0.364 0.355,0.676 0.853,0.695 m 4.272,0.17 4.273,0.169 c 0.498,0.02 0.923,-0.26 0.95,-0.624 0.027,-0.365 -0.355,-0.676 -0.853,-0.696 l -4.272,-0.169 c -0.498,-0.02 -0.923,0.26 -0.95,0.624 -0.026,0.365 0.354,0.676 0.852,0.696"
             style="fill:#6d558d;fill-opacity:1;fill-rule:nonzero;stroke:none"
             id="path2858" /></g><g
           id="g2860"
           transform="translate(245.3786,82.6698)"><path
             d="M 0,0 4.273,1.993 C 4.694,2.188 5.251,2.097 5.519,1.79 5.787,1.482 5.663,1.073 5.243,0.877 L 0.969,-1.115 C 0.549,-1.31 -0.009,-1.22 -0.276,-0.912 -0.544,-0.605 -0.42,-0.196 0,0 M 4.281,1.995 8.555,3.941 C 8.978,4.134 9.534,4.039 9.797,3.729 10.061,3.419 9.93,3.012 9.507,2.819 L 5.234,0.873 C 4.811,0.68 4.255,0.776 3.992,1.086 3.728,1.396 3.859,1.803 4.281,1.995 m 4.33,1.969 4.388,1.692 C 13.44,5.827 13.986,5.702 14.218,5.38 14.451,5.056 14.281,4.656 13.84,4.487 L 9.451,2.795 C 9.01,2.626 8.464,2.749 8.232,3.073 8.001,3.395 8.169,3.795 8.611,3.964 m 4.414,1.702 4.273,1.522 C 17.746,7.349 18.286,7.212 18.504,6.883 18.722,6.555 18.536,6.16 18.088,6 L 13.814,4.477 C 13.367,4.317 12.826,4.455 12.608,4.783 12.39,5.111 12.577,5.506 13.025,5.666 m 4.29,1.529 4.274,1.438 C 22.042,8.785 22.578,8.64 22.786,8.308 22.993,7.977 22.795,7.584 22.342,7.432 L 18.07,5.994 C 17.616,5.841 17.081,5.986 16.872,6.319 16.665,6.65 16.864,7.043 17.315,7.195 M 21.646,8.65 25.92,9.834 C 26.385,9.964 26.907,9.791 27.083,9.45 27.259,9.109 27.024,8.728 26.559,8.598 L 22.286,7.413 C 21.819,7.285 21.299,7.457 21.122,7.799 20.946,8.14 21.18,8.521 21.646,8.65 m 4.282,1.186 4.387,1.185 c 0.468,0.126 0.986,-0.05 1.159,-0.392 C 31.646,10.287 31.407,9.907 30.94,9.78 L 26.551,8.596 C 26.083,8.47 25.564,8.645 25.392,8.988 25.22,9.331 25.46,9.71 25.928,9.836 m 4.421,1.193 4.273,1.015 c 0.474,0.113 0.983,-0.078 1.137,-0.425 C 35.913,11.272 35.653,10.9 35.18,10.787 L 30.906,9.772 c -0.474,-0.113 -0.983,0.078 -1.136,0.425 -0.154,0.347 0.105,0.719 0.579,0.832 m 4.273,1.015 4.274,1.015 c 0.474,0.113 0.982,-0.078 1.136,-0.425 0.154,-0.346 -0.106,-0.719 -0.58,-0.832 L 35.18,10.787 c -0.475,-0.113 -0.983,0.077 -1.137,0.424 -0.154,0.347 0.106,0.721 0.579,0.833 m 4.316,1.025 4.274,0.845 c 0.481,0.096 0.976,-0.112 1.106,-0.465 0.131,-0.353 -0.155,-0.716 -0.636,-0.811 l -4.273,-0.845 c -0.48,-0.096 -0.976,0.112 -1.106,0.465 -0.13,0.353 0.154,0.716 0.635,0.811 m 4.28,0.846 4.388,0.846 c 0.482,0.093 0.976,-0.117 1.102,-0.47 0.127,-0.353 -0.161,-0.715 -0.642,-0.808 l -4.39,-0.846 c -0.481,-0.093 -0.975,0.118 -1.101,0.472 -0.127,0.352 0.161,0.714 0.643,0.806 m 4.404,0.849 4.273,0.762 c 0.484,0.086 0.973,-0.132 1.091,-0.486 0.118,-0.355 -0.18,-0.712 -0.664,-0.798 L 48.048,13.48 c -0.483,-0.086 -0.971,0.132 -1.088,0.486 -0.119,0.354 0.178,0.712 0.662,0.798 m 4.296,0.766 4.274,0.676 c 0.486,0.077 0.966,-0.149 1.072,-0.506 0.105,-0.357 -0.205,-0.708 -0.692,-0.786 l -4.273,-0.676 c -0.486,-0.078 -0.966,0.149 -1.072,0.506 -0.105,0.356 0.205,0.708 0.691,0.786 m 4.274,0.676 4.272,0.677 c 0.487,0.077 0.968,-0.15 1.074,-0.507 0.104,-0.356 -0.205,-0.708 -0.692,-0.785 l -4.274,-0.677 c -0.486,-0.076 -0.967,0.15 -1.072,0.507 -0.105,0.357 0.204,0.709 0.692,0.785 m 4.296,0.68 4.273,0.592 c 0.489,0.068 0.962,-0.167 1.054,-0.526 0.093,-0.359 -0.23,-0.704 -0.719,-0.773 l -4.273,-0.591 c -0.49,-0.068 -0.961,0.167 -1.055,0.526 -0.092,0.359 0.23,0.705 0.72,0.772 m 4.277,0.593 4.389,0.592 c 0.49,0.066 0.96,-0.171 1.051,-0.53 0.09,-0.359 -0.235,-0.704 -0.725,-0.77 l -4.388,-0.592 c -0.49,-0.066 -0.96,0.172 -1.051,0.531 -0.09,0.358 0.234,0.703 0.724,0.769 m 4.384,0.591 4.273,0.593 c 0.49,0.068 0.963,-0.169 1.055,-0.527 0.092,-0.358 -0.23,-0.704 -0.72,-0.773 l -4.272,-0.592 c -0.49,-0.067 -0.961,0.169 -1.054,0.527 -0.094,0.359 0.229,0.704 0.718,0.772 m 4.297,0.595 4.273,0.508 c 0.492,0.059 0.955,-0.187 1.035,-0.546 0.079,-0.361 -0.255,-0.7 -0.746,-0.759 l -4.274,-0.507 c -0.491,-0.058 -0.955,0.186 -1.034,0.546 -0.08,0.361 0.254,0.7 0.746,0.758 m 4.297,0.511 4.273,0.423 c 0.494,0.048 0.948,-0.205 1.014,-0.567 0.068,-0.361 -0.279,-0.694 -0.773,-0.743 l -4.273,-0.423 c -0.494,-0.049 -0.948,0.204 -1.015,0.567 -0.066,0.361 0.28,0.694 0.774,0.743 m 4.253,0.42 4.388,0.508 c 0.493,0.057 0.955,-0.189 1.032,-0.55 0.079,-0.361 -0.258,-0.699 -0.751,-0.756 l -4.388,-0.507 c -0.493,-0.057 -0.954,0.189 -1.032,0.549 -0.078,0.361 0.258,0.699 0.751,0.756 m 4.409,0.51 4.273,0.423 c 0.493,0.049 0.948,-0.205 1.014,-0.566 0.067,-0.362 -0.279,-0.695 -0.773,-0.744 l -4.273,-0.423 c -0.494,-0.049 -0.948,0.205 -1.015,0.567 -0.067,0.362 0.28,0.694 0.774,0.743 m 4.273,0.423 4.272,0.423 c 0.494,0.049 0.949,-0.205 1.015,-0.567 0.067,-0.361 -0.279,-0.694 -0.773,-0.743 l -4.273,-0.423 c -0.494,-0.048 -0.949,0.205 -1.015,0.566 -0.066,0.362 0.28,0.695 0.774,0.744 m 4.297,0.425 4.273,0.339 c 0.495,0.039 0.94,-0.224 0.994,-0.586 0.054,-0.363 -0.305,-0.689 -0.801,-0.729 L 95.169,19.64 c -0.496,-0.039 -0.941,0.224 -0.995,0.586 -0.053,0.363 0.305,0.688 0.801,0.728 m 4.252,0.337 4.388,0.422 c 0.494,0.048 0.948,-0.207 1.013,-0.568 0.064,-0.362 -0.284,-0.694 -0.778,-0.742 L 99.463,19.98 c -0.494,-0.048 -0.948,0.207 -1.013,0.569 -0.065,0.361 0.282,0.694 0.777,0.742 m 4.409,0.424 4.274,0.338 c 0.495,0.04 0.94,-0.222 0.994,-0.586 0.053,-0.363 -0.305,-0.688 -0.801,-0.727 l -4.273,-0.339 c -0.495,-0.039 -0.94,0.223 -0.994,0.587 -0.053,0.362 0.305,0.688 0.8,0.727 m 4.274,0.338 4.272,0.339 c 0.496,0.04 0.941,-0.223 0.995,-0.586 0.053,-0.363 -0.305,-0.689 -0.801,-0.728 l -4.273,-0.338 c -0.495,-0.039 -0.94,0.222 -0.994,0.586 -0.054,0.363 0.305,0.688 0.801,0.727 m 4.297,0.34 4.273,0.254 c 0.497,0.03 0.931,-0.241 0.972,-0.605 0.04,-0.363 -0.33,-0.683 -0.826,-0.712 l -4.273,-0.254 c -0.497,-0.029 -0.932,0.241 -0.972,0.606 -0.041,0.363 0.329,0.682 0.826,0.711 m 4.251,0.253 4.388,0.338 c 0.496,0.039 0.94,-0.225 0.993,-0.588 0.052,-0.363 -0.308,-0.688 -0.804,-0.726 l -4.387,-0.338 c -0.496,-0.038 -0.94,0.224 -0.993,0.588 -0.052,0.363 0.307,0.688 0.803,0.726 m 4.41,0.34 4.274,0.253 c 0.496,0.03 0.931,-0.241 0.971,-0.605 0.041,-0.363 -0.329,-0.683 -0.826,-0.712 l -4.273,-0.254 c -0.497,-0.029 -0.931,0.242 -0.972,0.606 -0.041,0.363 0.33,0.682 0.826,0.712 m 4.25,0.251 4.273,0.339 c 0.495,0.039 0.94,-0.223 0.994,-0.586 0.053,-0.362 -0.305,-0.689 -0.8,-0.728 l -4.273,-0.338 c -0.496,-0.039 -0.941,0.223 -0.995,0.586 -0.053,0.363 0.305,0.688 0.801,0.727 m 4.296,0.341 4.274,0.253 c 0.496,0.031 0.932,-0.241 0.972,-0.605 0.04,-0.363 -0.329,-0.683 -0.826,-0.712 L 129.56,22.26 c -0.497,-0.028 -0.932,0.242 -0.972,0.606 -0.04,0.363 0.33,0.682 0.826,0.712 m 4.276,0.253 4.388,0.255 c 0.497,0.028 0.932,-0.243 0.971,-0.607 0.039,-0.364 -0.332,-0.682 -0.829,-0.711 l -4.388,-0.254 c -0.497,-0.029 -0.931,0.243 -0.971,0.607 -0.039,0.363 0.332,0.682 0.829,0.71 m 4.386,0.254 4.274,0.255 c 0.497,0.028 0.931,-0.242 0.971,-0.606 0.04,-0.364 -0.328,-0.682 -0.825,-0.712 l -4.274,-0.254 c -0.496,-0.03 -0.932,0.242 -0.972,0.605 -0.04,0.364 0.33,0.683 0.826,0.712 m 4.298,0.255 4.272,0.169 c 0.498,0.02 0.924,-0.259 0.951,-0.624 0.027,-0.364 -0.356,-0.675 -0.853,-0.695 l -4.273,-0.169 c -0.498,-0.02 -0.922,0.259 -0.948,0.624 -0.029,0.364 0.353,0.675 0.851,0.695 m 4.249,0.168 4.273,0.254 c 0.497,0.03 0.931,-0.241 0.972,-0.605 0.041,-0.364 -0.33,-0.683 -0.827,-0.712 l -4.272,-0.254 c -0.497,-0.029 -0.932,0.241 -0.972,0.605 -0.04,0.363 0.329,0.683 0.826,0.712 m 4.275,0.254 4.388,0.254 c 0.497,0.028 0.932,-0.243 0.971,-0.607 0.04,-0.363 -0.332,-0.682 -0.829,-0.71 l -4.389,-0.255 c -0.496,-0.028 -0.931,0.243 -0.97,0.608 -0.039,0.363 0.332,0.681 0.829,0.71 m 4.411,0.255 4.273,0.17 c 0.498,0.019 0.923,-0.26 0.95,-0.625 0.026,-0.364 -0.355,-0.676 -0.852,-0.696 l -4.273,-0.169 c -0.498,-0.02 -0.924,0.26 -0.95,0.624 -0.028,0.365 0.354,0.676 0.852,0.696 m 4.273,0.17 4.273,0.168 c 0.497,0.02 0.922,-0.26 0.95,-0.624 0.027,-0.365 -0.355,-0.675 -0.853,-0.696 l -4.272,-0.169 c -0.498,-0.019 -0.924,0.26 -0.951,0.625 -0.026,0.364 0.355,0.675 0.853,0.696 m 4.249,0.167 4.274,0.254 c 0.496,0.029 0.931,-0.242 0.971,-0.606 0.04,-0.363 -0.329,-0.682 -0.826,-0.711 l -4.273,-0.254 c -0.497,-0.029 -0.932,0.241 -0.973,0.606 -0.04,0.363 0.33,0.682 0.827,0.711 m 4.298,0.255 4.389,0.17 c 0.497,0.018 0.922,-0.261 0.948,-0.626 0.027,-0.364 -0.356,-0.675 -0.853,-0.695 l -4.389,-0.168 c -0.498,-0.02 -0.922,0.26 -0.948,0.624 -0.026,0.365 0.355,0.675 0.853,0.695 m 4.388,0.17 4.273,0.168 c 0.498,0.02 0.923,-0.26 0.95,-0.624 0.027,-0.364 -0.356,-0.675 -0.853,-0.695 l -4.273,-0.17 c -0.498,-0.019 -0.922,0.26 -0.949,0.625 -0.027,0.364 0.354,0.676 0.852,0.696 m 4.273,0.168 4.273,0.17 c 0.498,0.019 0.923,-0.26 0.949,-0.625 0.027,-0.364 -0.353,-0.676 -0.851,-0.695 l -4.274,-0.169 c -0.496,-0.021 -0.923,0.26 -0.949,0.624 -0.028,0.364 0.355,0.676 0.852,0.695 m 4.273,0.17 4.274,0.168 c 0.497,0.021 0.922,-0.258 0.949,-0.623 0.027,-0.365 -0.355,-0.676 -0.852,-0.696 l -4.273,-0.169 c -0.498,-0.02 -0.924,0.259 -0.95,0.624 -0.026,0.364 0.354,0.676 0.852,0.696 m 4.275,0.168 4.388,0.17 c 0.498,0.019 0.923,-0.261 0.949,-0.624 0.026,-0.366 -0.356,-0.677 -0.854,-0.695 l -4.389,-0.17 c -0.498,-0.02 -0.921,0.261 -0.949,0.625 -0.025,0.364 0.357,0.676 0.855,0.694 m 4.387,0.17 4.273,0.169 c 0.497,0.02 0.923,-0.26 0.95,-0.624 0.027,-0.365 -0.355,-0.676 -0.853,-0.696 l -4.272,-0.168 c -0.498,-0.02 -0.923,0.259 -0.95,0.623 -0.027,0.365 0.354,0.676 0.852,0.696 m 4.298,0.17 4.272,0.085 c 0.499,0.009 0.913,-0.279 0.927,-0.643 0.013,-0.365 -0.379,-0.669 -0.878,-0.678 l -4.272,-0.086 c -0.499,-0.009 -0.914,0.279 -0.928,0.643 -0.012,0.366 0.38,0.669 0.879,0.679 m 4.248,0.084 4.274,0.169 c 0.496,0.02 0.923,-0.259 0.949,-0.624 0.027,-0.365 -0.355,-0.676 -0.852,-0.696 l -4.274,-0.169 c -0.497,-0.02 -0.922,0.259 -0.948,0.625 -0.028,0.363 0.353,0.675 0.851,0.695 m 4.274,0.169 4.389,0.169 c 0.498,0.019 0.923,-0.261 0.949,-0.624 0.026,-0.366 -0.357,-0.677 -0.855,-0.695 l -4.387,-0.17 c -0.498,-0.019 -0.924,0.261 -0.949,0.625 -0.026,0.365 0.356,0.676 0.853,0.695 m 4.412,0.17 4.274,0.084 c 0.497,0.01 0.913,-0.277 0.926,-0.643 0.014,-0.364 -0.38,-0.668 -0.878,-0.678 l -4.273,-0.084 c -0.498,-0.01 -0.914,0.278 -0.926,0.643 -0.014,0.364 0.379,0.668 0.877,0.678 m 4.249,0.084 4.273,0.169 c 0.498,0.019 0.923,-0.26 0.95,-0.625 0.027,-0.364 -0.354,-0.675 -0.852,-0.695 l -4.273,-0.169 c -0.498,-0.02 -0.924,0.26 -0.95,0.624 -0.027,0.365 0.355,0.677 0.852,0.696 m 4.273,0.169 4.274,0.169 c 0.497,0.02 0.922,-0.259 0.95,-0.624 0.026,-0.365 -0.356,-0.676 -0.854,-0.696 l -4.272,-0.169 c -0.498,-0.02 -0.922,0.259 -0.951,0.625 -0.026,0.363 0.356,0.675 0.853,0.695 m 4.299,0.169 4.389,0.086 c 0.497,0.009 0.911,-0.279 0.925,-0.643 0.013,-0.366 -0.381,-0.67 -0.878,-0.679 l -4.389,-0.084 c -0.498,-0.01 -0.913,0.277 -0.926,0.643 -0.013,0.365 0.38,0.668 0.879,0.677 m 4.388,0.086 4.273,0.084 c 0.498,0.01 0.912,-0.279 0.925,-0.643 0.015,-0.365 -0.378,-0.669 -0.876,-0.678 l -4.274,-0.085 c -0.497,-0.009 -0.913,0.278 -0.927,0.642 -0.012,0.366 0.381,0.67 0.879,0.68 m 4.248,0.083 4.273,0.169 c 0.498,0.02 0.924,-0.259 0.95,-0.624 0.027,-0.365 -0.355,-0.676 -0.852,-0.696 l -4.274,-0.168 c -0.497,-0.02 -0.922,0.259 -0.948,0.624 -0.028,0.364 0.353,0.675 0.851,0.695 m 4.298,0.17 4.273,0.085 c 0.498,0.009 0.914,-0.279 0.926,-0.643 0.014,-0.365 -0.38,-0.669 -0.877,-0.679 l -4.274,-0.084 c -0.497,-0.01 -0.912,0.278 -0.926,0.643 -0.014,0.365 0.38,0.669 0.878,0.678 m 4.273,0.085 4.272,0.084 c 0.499,0.01 0.914,-0.277 0.928,-0.642 0.012,-0.366 -0.38,-0.668 -0.879,-0.679 l -4.272,-0.085 c -0.499,-0.009 -0.913,0.279 -0.927,0.643 -0.013,0.365 0.379,0.669 0.878,0.679 m 4.25,0.083 4.388,0.169 c 0.498,0.02 0.923,-0.26 0.949,-0.625 0.026,-0.363 -0.356,-0.675 -0.853,-0.694 l -4.39,-0.169 c -0.497,-0.02 -0.921,0.26 -0.948,0.625 -0.026,0.365 0.356,0.675 0.854,0.694 m 4.412,0.17 4.273,0.085 c 0.498,0.01 0.913,-0.279 0.926,-0.643 0.014,-0.365 -0.38,-0.669 -0.877,-0.678 l -4.274,-0.085 c -0.498,-0.009 -0.912,0.278 -0.926,0.643 -0.013,0.365 0.379,0.669 0.878,0.678 m 4.273,0.085 4.273,0.085 c 0.498,0.009 0.912,-0.278 0.926,-0.643 0.014,-0.365 -0.379,-0.668 -0.877,-0.679 l -4.273,-0.084 c -0.498,-0.01 -0.914,0.278 -0.927,0.643 -0.013,0.364 0.38,0.668 0.878,0.678 m 4.273,0.085 4.273,0.084 c 0.499,0.01 0.914,-0.278 0.926,-0.643 0.014,-0.364 -0.379,-0.668 -0.877,-0.678 l -4.273,-0.085 c -0.498,-0.01 -0.913,0.278 -0.926,0.643 -0.014,0.364 0.379,0.668 0.877,0.679 m 4.25,0.083 4.388,0.17 c 0.498,0.019 0.923,-0.261 0.949,-0.625 0.027,-0.365 -0.357,-0.676 -0.853,-0.695 l -4.389,-0.17 c -0.498,-0.018 -0.922,0.261 -0.949,0.626 -0.026,0.364 0.357,0.676 0.854,0.694 m 4.411,0.17 4.274,0.085 c 0.498,0.01 0.913,-0.278 0.926,-0.643 0.014,-0.364 -0.38,-0.668 -0.877,-0.678 l -4.274,-0.085 c -0.498,-0.01 -0.912,0.278 -0.925,0.643 -0.015,0.365 0.379,0.668 0.876,0.678 m 4.274,0.085 4.273,0.084 c 0.498,0.01 0.913,-0.277 0.926,-0.642 0.013,-0.365 -0.379,-0.669 -0.878,-0.679 l -4.272,-0.084 c -0.499,-0.011 -0.913,0.277 -0.927,0.642 -0.013,0.366 0.379,0.669 0.878,0.679 m 4.273,0.084 4.273,0.085 c 0.498,0.01 0.913,-0.278 0.927,-0.643 0.013,-0.365 -0.38,-0.669 -0.878,-0.677 l -4.274,-0.086 c -0.497,-0.01 -0.912,0.279 -0.925,0.643 -0.014,0.365 0.379,0.669 0.877,0.678"
             style="fill:#3c96ae;fill-opacity:1;fill-rule:nonzero;stroke:none"
             id="path2862" /></g><g
           id="g2864"
           transform="translate(245.3867,82.7199)"><path
             d="M 0,0 4.273,1.945 C 4.697,2.139 5.252,2.043 5.516,1.734 5.779,1.423 5.649,1.016 5.226,0.823 L 0.953,-1.122 C 0.53,-1.315 -0.026,-1.22 -0.29,-0.911 -0.553,-0.6 -0.423,-0.192 0,0 M 4.288,1.952 8.561,3.814 C 8.989,4 9.543,3.897 9.798,3.583 10.053,3.269 9.912,2.864 9.483,2.677 L 5.21,0.816 C 4.782,0.63 4.228,0.733 3.974,1.047 3.719,1.36 3.86,1.766 4.288,1.952 m 4.331,1.884 4.389,1.607 c 0.446,0.163 0.988,0.031 1.21,-0.296 C 14.441,4.821 14.26,4.424 13.815,4.261 L 9.427,2.654 C 8.981,2.491 8.439,2.623 8.216,2.95 7.993,3.276 8.173,3.673 8.619,3.836 m 4.434,1.623 4.273,1.354 C 17.784,6.957 18.315,6.803 18.513,6.468 18.71,6.132 18.499,5.744 18.043,5.599 L 13.769,4.246 c -0.456,-0.145 -0.988,0.009 -1.186,0.344 -0.197,0.335 0.013,0.724 0.47,0.869 m 4.312,1.364 4.274,1.184 C 22.104,8.137 22.625,7.965 22.802,7.623 22.977,7.282 22.743,6.901 22.277,6.772 L 18.004,5.588 c -0.466,-0.13 -0.987,0.043 -1.163,0.384 -0.176,0.341 0.058,0.723 0.524,0.851 m 4.294,1.19 4.272,1.1 C 26.402,9.234 26.916,9.053 27.082,8.708 27.248,8.364 27,7.987 26.53,7.866 L 22.256,6.767 c -0.469,-0.122 -0.984,0.059 -1.15,0.403 -0.164,0.344 0.083,0.723 0.553,0.843 m 4.321,1.112 4.388,0.93 c 0.48,0.101 0.98,-0.101 1.118,-0.451 C 31.625,9.253 31.349,8.887 30.87,8.785 l -4.388,-0.93 c -0.479,-0.101 -0.979,0.1 -1.118,0.45 -0.138,0.351 0.137,0.718 0.616,0.82 m 4.404,0.933 4.273,0.846 c 0.482,0.095 0.976,-0.113 1.107,-0.466 0.13,-0.352 -0.155,-0.715 -0.636,-0.81 L 30.855,8.782 c -0.481,-0.095 -0.977,0.113 -1.106,0.465 -0.13,0.353 0.154,0.716 0.635,0.811 m 4.273,0.846 4.274,0.845 c 0.481,0.096 0.976,-0.112 1.106,-0.465 0.129,-0.352 -0.155,-0.715 -0.636,-0.81 L 35.128,9.628 c -0.48,-0.096 -0.976,0.113 -1.107,0.465 -0.129,0.353 0.155,0.716 0.636,0.811 m 4.319,0.853 4.272,0.678 c 0.488,0.076 0.967,-0.15 1.073,-0.507 0.105,-0.357 -0.204,-0.709 -0.691,-0.785 l -4.273,-0.677 c -0.487,-0.077 -0.968,0.149 -1.073,0.506 -0.105,0.357 0.205,0.708 0.692,0.785 m 4.277,0.679 4.389,0.676 c 0.487,0.075 0.966,-0.154 1.069,-0.511 0.102,-0.357 -0.21,-0.707 -0.698,-0.783 l -4.388,-0.676 c -0.488,-0.076 -0.966,0.153 -1.069,0.51 -0.103,0.357 0.21,0.708 0.697,0.784 m 4.43,0.682 4.273,0.506 c 0.492,0.059 0.956,-0.186 1.035,-0.546 0.08,-0.36 -0.254,-0.699 -0.746,-0.758 l -4.273,-0.507 c -0.492,-0.059 -0.956,0.186 -1.035,0.546 -0.079,0.361 0.254,0.7 0.746,0.759 m 4.25,0.503 4.273,0.592 c 0.49,0.069 0.962,-0.167 1.054,-0.526 0.093,-0.358 -0.229,-0.704 -0.719,-0.771 l -4.272,-0.593 c -0.49,-0.068 -0.962,0.168 -1.055,0.526 -0.092,0.36 0.229,0.705 0.719,0.772 m 4.296,0.595 4.274,0.508 c 0.492,0.059 0.955,-0.186 1.035,-0.546 0.08,-0.361 -0.254,-0.7 -0.746,-0.758 l -4.274,-0.508 c -0.492,-0.058 -0.955,0.187 -1.035,0.547 -0.08,0.36 0.254,0.7 0.746,0.757 m 4.297,0.511 4.273,0.423 c 0.494,0.048 0.949,-0.204 1.016,-0.567 0.066,-0.361 -0.28,-0.694 -0.774,-0.743 l -4.273,-0.423 c -0.494,-0.048 -0.949,0.204 -1.015,0.567 -0.067,0.362 0.279,0.694 0.773,0.743 m 4.276,0.423 4.389,0.423 c 0.494,0.048 0.948,-0.207 1.013,-0.569 0.064,-0.362 -0.284,-0.694 -0.778,-0.742 L 65.037,13.84 c -0.493,-0.048 -0.946,0.207 -1.011,0.568 -0.066,0.363 0.282,0.694 0.776,0.742 m 4.386,0.423 4.273,0.422 c 0.494,0.05 0.948,-0.204 1.015,-0.565 0.066,-0.362 -0.279,-0.695 -0.773,-0.744 l -4.274,-0.423 c -0.494,-0.049 -0.947,0.205 -1.014,0.566 -0.067,0.363 0.279,0.695 0.773,0.744 m 4.297,0.425 4.273,0.338 c 0.495,0.04 0.94,-0.223 0.994,-0.586 0.054,-0.362 -0.304,-0.689 -0.8,-0.728 l -4.273,-0.338 c -0.496,-0.039 -0.941,0.222 -0.994,0.586 -0.054,0.363 0.305,0.689 0.8,0.728 m 4.273,0.338 4.273,0.338 c 0.495,0.04 0.94,-0.222 0.994,-0.586 0.054,-0.362 -0.305,-0.689 -0.8,-0.728 l -4.273,-0.338 c -0.496,-0.039 -0.941,0.223 -0.994,0.586 -0.053,0.363 0.305,0.689 0.8,0.728 m 4.276,0.338 4.388,0.339 c 0.496,0.038 0.94,-0.225 0.992,-0.587 0.052,-0.364 -0.308,-0.689 -0.803,-0.727 L 82.223,15.36 c -0.495,-0.038 -0.939,0.226 -0.992,0.588 -0.052,0.364 0.307,0.688 0.803,0.726 m 4.386,0.339 4.274,0.339 c 0.495,0.039 0.939,-0.224 0.993,-0.587 0.054,-0.363 -0.304,-0.688 -0.8,-0.728 l -4.273,-0.338 c -0.496,-0.039 -0.941,0.223 -0.994,0.586 -0.053,0.363 0.304,0.688 0.8,0.728 m 4.297,0.34 4.273,0.254 c 0.497,0.029 0.932,-0.242 0.973,-0.605 0.04,-0.364 -0.33,-0.683 -0.827,-0.713 l -4.273,-0.254 c -0.497,-0.029 -0.932,0.242 -0.972,0.606 -0.04,0.364 0.329,0.682 0.826,0.712 m 4.273,0.254 4.274,0.253 c 0.496,0.03 0.932,-0.241 0.972,-0.605 0.04,-0.364 -0.33,-0.682 -0.826,-0.712 l -4.274,-0.254 c -0.497,-0.029 -0.932,0.242 -0.972,0.606 -0.04,0.364 0.329,0.682 0.826,0.712 m 4.276,0.253 4.388,0.254 c 0.497,0.029 0.931,-0.243 0.971,-0.606 0.039,-0.364 -0.333,-0.683 -0.829,-0.711 l -4.388,-0.254 c -0.497,-0.028 -0.931,0.243 -0.971,0.607 -0.039,0.363 0.332,0.682 0.829,0.71 m 4.386,0.254 4.274,0.254 c 0.497,0.029 0.931,-0.241 0.971,-0.605 0.041,-0.364 -0.329,-0.683 -0.825,-0.712 l -4.275,-0.254 c -0.495,-0.029 -0.931,0.241 -0.971,0.605 -0.04,0.363 0.33,0.683 0.826,0.712 m 4.274,0.254 4.273,0.254 c 0.496,0.029 0.931,-0.242 0.971,-0.606 0.041,-0.363 -0.329,-0.682 -0.826,-0.711 l -4.272,-0.254 c -0.497,-0.03 -0.933,0.241 -0.974,0.605 -0.04,0.363 0.331,0.683 0.828,0.712 m 4.296,0.255 4.274,0.168 c 0.498,0.021 0.923,-0.258 0.949,-0.623 0.027,-0.364 -0.354,-0.676 -0.852,-0.696 l -4.273,-0.169 c -0.497,-0.02 -0.923,0.259 -0.949,0.625 -0.028,0.364 0.355,0.675 0.851,0.695 m 4.251,0.167 4.389,0.254 c 0.497,0.029 0.931,-0.242 0.97,-0.606 0.04,-0.364 -0.331,-0.683 -0.828,-0.711 l -4.389,-0.254 c -0.496,-0.028 -0.931,0.243 -0.97,0.607 -0.039,0.364 0.332,0.682 0.828,0.71 m 4.412,0.256 4.273,0.169 c 0.498,0.019 0.922,-0.26 0.949,-0.624 0.027,-0.365 -0.354,-0.676 -0.852,-0.695 l -4.273,-0.17 c -0.497,-0.02 -0.923,0.26 -0.95,0.624 -0.027,0.365 0.355,0.677 0.853,0.696 m 4.273,0.169 4.273,0.169 c 0.497,0.02 0.922,-0.259 0.95,-0.624 0.026,-0.365 -0.355,-0.676 -0.853,-0.696 l -4.273,-0.168 c -0.497,-0.021 -0.923,0.258 -0.95,0.624 -0.026,0.364 0.355,0.675 0.853,0.695 m 4.273,0.169 4.272,0.169 c 0.498,0.02 0.924,-0.26 0.951,-0.624 0.026,-0.365 -0.355,-0.676 -0.853,-0.695 l -4.273,-0.17 c -0.498,-0.019 -0.922,0.26 -0.95,0.625 -0.026,0.364 0.355,0.676 0.853,0.695 m 4.274,0.169 4.389,0.17 c 0.498,0.019 0.921,-0.261 0.949,-0.626 0.025,-0.364 -0.357,-0.675 -0.854,-0.695 L 133.8,18.234 c -0.498,-0.02 -0.922,0.26 -0.948,0.625 -0.027,0.364 0.355,0.675 0.853,0.694 m 4.387,0.17 4.273,0.168 c 0.498,0.02 0.924,-0.26 0.95,-0.623 0.027,-0.365 -0.354,-0.676 -0.852,-0.696 l -4.273,-0.17 c -0.498,-0.019 -0.923,0.261 -0.95,0.625 -0.026,0.364 0.354,0.676 0.852,0.696 m 4.273,0.168 4.274,0.17 c 0.498,0.019 0.923,-0.26 0.949,-0.625 0.028,-0.364 -0.354,-0.675 -0.852,-0.695 l -4.273,-0.169 c -0.497,-0.02 -0.922,0.26 -0.949,0.624 -0.028,0.365 0.354,0.676 0.851,0.695 m 4.298,0.171 4.272,0.084 c 0.499,0.01 0.914,-0.278 0.928,-0.643 0.012,-0.365 -0.38,-0.668 -0.879,-0.678 l -4.272,-0.085 c -0.499,-0.009 -0.913,0.278 -0.926,0.643 -0.014,0.365 0.378,0.669 0.877,0.679 m 4.25,0.084 4.39,0.169 c 0.496,0.019 0.921,-0.261 0.947,-0.626 0.027,-0.364 -0.355,-0.675 -0.853,-0.695 l -4.389,-0.168 c -0.497,-0.02 -0.922,0.26 -0.948,0.625 -0.026,0.365 0.355,0.675 0.853,0.695 m 4.388,0.169 4.273,0.168 c 0.498,0.021 0.922,-0.259 0.95,-0.623 0.026,-0.365 -0.356,-0.676 -0.852,-0.696 l -4.274,-0.17 c -0.498,-0.019 -0.922,0.261 -0.95,0.626 -0.026,0.363 0.355,0.675 0.853,0.695 m 4.297,0.169 4.274,0.085 c 0.498,0.01 0.911,-0.278 0.926,-0.643 0.014,-0.365 -0.38,-0.668 -0.877,-0.678 l -4.274,-0.085 c -0.498,-0.01 -0.913,0.278 -0.927,0.643 -0.013,0.365 0.381,0.668 0.878,0.678 m 4.248,0.084 4.274,0.17 c 0.498,0.02 0.923,-0.26 0.949,-0.625 0.028,-0.364 -0.354,-0.676 -0.852,-0.695 l -4.273,-0.169 c -0.498,-0.02 -0.922,0.259 -0.949,0.624 -0.027,0.364 0.354,0.676 0.851,0.695 m 4.299,0.17 4.389,0.085 c 0.498,0.009 0.912,-0.279 0.925,-0.644 0.014,-0.364 -0.38,-0.668 -0.878,-0.678 l -4.388,-0.084 c -0.499,-0.01 -0.913,0.278 -0.926,0.644 -0.013,0.364 0.38,0.667 0.878,0.677 m 4.389,0.085 4.272,0.085 c 0.499,0.009 0.914,-0.279 0.926,-0.643 0.014,-0.365 -0.379,-0.669 -0.877,-0.679 l -4.274,-0.085 c -0.497,-0.009 -0.912,0.278 -0.925,0.643 -0.014,0.366 0.379,0.668 0.878,0.679 m 4.249,0.084 4.272,0.169 c 0.498,0.02 0.922,-0.26 0.95,-0.624 0.026,-0.365 -0.355,-0.677 -0.852,-0.696 l -4.274,-0.169 c -0.497,-0.02 -0.923,0.26 -0.95,0.625 -0.027,0.363 0.356,0.675 0.854,0.695 m 4.296,0.169 4.274,0.085 c 0.498,0.01 0.912,-0.278 0.926,-0.643 0.013,-0.364 -0.38,-0.668 -0.877,-0.678 l -4.274,-0.084 c -0.499,-0.011 -0.912,0.277 -0.926,0.642 -0.014,0.365 0.379,0.669 0.877,0.678 m 4.275,0.085 4.387,0.085 c 0.499,0.009 0.914,-0.279 0.927,-0.643 0.012,-0.366 -0.381,-0.669 -0.879,-0.679 l -4.388,-0.084 c -0.498,-0.01 -0.913,0.279 -0.927,0.643 -0.011,0.365 0.381,0.669 0.88,0.678 m 4.386,0.085 4.275,0.084 c 0.497,0.01 0.912,-0.277 0.926,-0.643 0.014,-0.365 -0.38,-0.668 -0.878,-0.677 l -4.274,-0.086 c -0.497,-0.009 -0.912,0.279 -0.925,0.643 -0.014,0.365 0.379,0.669 0.876,0.679 m 4.249,0.084 4.274,0.168 c 0.497,0.021 0.923,-0.259 0.949,-0.624 0.028,-0.363 -0.354,-0.675 -0.852,-0.695 l -4.273,-0.169 c -0.498,-0.02 -0.923,0.259 -0.949,0.624 -0.027,0.365 0.354,0.676 0.851,0.696 m 4.298,0.169 4.273,0.085 c 0.498,0.01 0.914,-0.278 0.927,-0.642 0.013,-0.366 -0.38,-0.669 -0.878,-0.679 l -4.273,-0.085 c -0.498,-0.009 -0.913,0.279 -0.926,0.643 -0.013,0.365 0.379,0.669 0.877,0.678 m 4.274,0.085 4.389,0.084 c 0.498,0.011 0.913,-0.277 0.925,-0.643 0.014,-0.364 -0.38,-0.667 -0.878,-0.677 l -4.389,-0.085 c -0.498,-0.009 -0.911,0.278 -0.925,0.644 -0.014,0.364 0.38,0.668 0.878,0.677 m 4.388,0.084 4.273,0.085 c 0.498,0.01 0.914,-0.277 0.927,-0.643 0.013,-0.364 -0.38,-0.668 -0.878,-0.678 l -4.273,-0.084 c -0.498,-0.011 -0.913,0.277 -0.927,0.643 -0.013,0.364 0.38,0.668 0.878,0.677 m 4.273,0.085 4.274,0.085 c 0.497,0.01 0.912,-0.278 0.926,-0.643 0.013,-0.365 -0.38,-0.669 -0.878,-0.679 l -4.273,-0.084 c -0.499,-0.01 -0.913,0.278 -0.926,0.643 -0.014,0.365 0.378,0.669 0.877,0.678 m 4.274,0.085 4.273,0.085 c 0.498,0.009 0.913,-0.278 0.926,-0.643 0.014,-0.366 -0.379,-0.668 -0.877,-0.678 l -4.274,-0.086 c -0.497,-0.009 -0.912,0.279 -0.927,0.643 -0.013,0.365 0.381,0.669 0.879,0.679 m 4.274,0.085 4.388,0.084 c 0.498,0.009 0.912,-0.278 0.926,-0.644 0.013,-0.364 -0.38,-0.667 -0.879,-0.677 l -4.388,-0.084 c -0.498,-0.01 -0.913,0.278 -0.926,0.643 -0.013,0.364 0.38,0.668 0.879,0.678 m 4.412,0.084 h 4.272 c 0.499,0 0.903,-0.296 0.903,-0.66 0,-0.366 -0.404,-0.662 -0.903,-0.662 h -4.272 c -0.499,0 -0.902,0.296 -0.902,0.662 0,0.364 0.403,0.66 0.902,0.66 m 4.249,0 4.272,0.084 c 0.499,0.01 0.914,-0.278 0.927,-0.642 0.013,-0.365 -0.379,-0.669 -0.878,-0.679 l -4.272,-0.084 c -0.499,-0.01 -0.914,0.277 -0.927,0.643 -0.013,0.365 0.379,0.668 0.878,0.678 m 4.272,0.084 4.274,0.085 c 0.497,0.01 0.913,-0.278 0.927,-0.642 0.013,-0.365 -0.381,-0.669 -0.879,-0.679 l -4.273,-0.085 c -0.498,-0.01 -0.913,0.279 -0.926,0.643 -0.014,0.365 0.379,0.669 0.877,0.678 m 4.274,0.085 4.273,0.085 c 0.499,0.01 0.913,-0.278 0.926,-0.643 0.014,-0.365 -0.378,-0.668 -0.877,-0.678 l -4.274,-0.085 c -0.497,-0.009 -0.912,0.278 -0.926,0.643 -0.014,0.365 0.379,0.668 0.878,0.678 m 4.274,0.085 4.388,0.084 c 0.498,0.01 0.913,-0.278 0.926,-0.643 0.012,-0.364 -0.381,-0.668 -0.878,-0.678 l -4.388,-0.084 c -0.499,-0.01 -0.914,0.278 -0.928,0.643 -0.011,0.364 0.382,0.668 0.88,0.678 m 4.388,0.084 4.273,0.085 c 0.499,0.01 0.912,-0.278 0.926,-0.643 0.014,-0.365 -0.38,-0.669 -0.877,-0.679 l -4.274,-0.084 c -0.498,-0.01 -0.912,0.277 -0.926,0.643 -0.013,0.365 0.38,0.668 0.878,0.678 m 4.297,0.086 h 4.274 c 0.497,0 0.902,-0.297 0.902,-0.662 0,-0.365 -0.405,-0.661 -0.902,-0.661 h -4.274 c -0.499,0 -0.902,0.296 -0.902,0.661 0,0.365 0.403,0.662 0.902,0.662 m 4.249,-0.001 4.273,0.085 c 0.498,0.01 0.913,-0.278 0.926,-0.643 0.014,-0.365 -0.379,-0.669 -0.878,-0.678 l -4.272,-0.086 c -0.499,-0.009 -0.913,0.279 -0.926,0.643 -0.014,0.365 0.378,0.669 0.877,0.679 m 4.274,0.085 4.388,0.084 c 0.499,0.01 0.914,-0.278 0.925,-0.643 0.014,-0.365 -0.379,-0.668 -0.877,-0.678 l -4.39,-0.084 c -0.497,-0.01 -0.911,0.278 -0.925,0.643 -0.013,0.364 0.38,0.668 0.879,0.678 m 4.412,0.084 h 4.273 c 0.499,0 0.903,-0.296 0.903,-0.66 0,-0.365 -0.404,-0.662 -0.903,-0.662 h -4.273 c -0.498,0 -0.902,0.297 -0.902,0.662 0,0.364 0.404,0.66 0.902,0.66 m 4.248,0 4.275,0.084 c 0.497,0.01 0.911,-0.277 0.925,-0.643 0.014,-0.364 -0.38,-0.668 -0.877,-0.678 l -4.274,-0.084 c -0.498,-0.01 -0.912,0.278 -0.926,0.643 -0.014,0.365 0.38,0.668 0.877,0.678 m 4.275,0.084 4.272,0.085 c 0.498,0.011 0.913,-0.278 0.926,-0.642 0.014,-0.365 -0.379,-0.669 -0.877,-0.679 l -4.273,-0.085 c -0.498,-0.01 -0.913,0.279 -0.927,0.643 -0.012,0.365 0.38,0.669 0.879,0.678"
             style="fill:#da8035;fill-opacity:1;fill-rule:nonzero;stroke:none"
             id="path2866" /></g><g
           id="g2868"
           transform="translate(245.3939,82.7626)"><path
             d="m 0,0 4.273,1.906 c 0.426,0.19 0.98,0.091 1.24,-0.22 C 5.773,1.373 5.638,0.967 5.211,0.777 L 0.939,-1.128 C 0.513,-1.318 -0.042,-1.219 -0.302,-0.908 -0.561,-0.596 -0.425,-0.189 0,0 M 4.297,1.916 8.57,3.693 C 9.004,3.873 9.555,3.762 9.801,3.444 10.046,3.127 9.894,2.724 9.461,2.543 L 5.188,0.767 C 4.754,0.587 4.204,0.698 3.958,1.015 3.712,1.333 3.864,1.736 4.297,1.916 m 4.333,1.8 4.388,1.522 C 13.469,5.393 14.007,5.253 14.219,4.923 14.433,4.594 14.241,4.2 13.79,4.043 L 9.402,2.521 C 8.951,2.365 8.413,2.505 8.2,2.835 7.987,3.165 8.179,3.559 8.63,3.716 m 4.455,1.542 4.273,1.185 C 17.824,6.573 18.345,6.4 18.521,6.059 18.697,5.717 18.462,5.336 17.997,5.206 L 13.723,4.022 c -0.465,-0.129 -0.987,0.043 -1.163,0.385 -0.176,0.341 0.059,0.722 0.525,0.851 m 4.293,1.19 4.273,1.1 c 0.471,0.12 0.985,-0.06 1.151,-0.404 C 22.967,6.799 22.72,6.422 22.249,6.301 l -4.273,-1.1 c -0.469,-0.12 -0.985,0.06 -1.15,0.405 -0.165,0.344 0.082,0.722 0.552,0.842 m 4.316,1.11 4.273,0.931 c 0.477,0.104 0.98,-0.096 1.122,-0.445 0.142,-0.35 -0.13,-0.719 -0.608,-0.823 L 22.208,6.29 c -0.478,-0.104 -0.98,0.096 -1.122,0.446 -0.142,0.349 0.129,0.718 0.608,0.822 m 4.322,0.939 4.389,0.762 C 30.89,9.343 31.376,9.124 31.491,8.768 31.605,8.413 31.305,8.057 30.82,7.973 L 26.431,7.212 c -0.484,-0.085 -0.97,0.136 -1.086,0.491 -0.114,0.354 0.186,0.71 0.671,0.794 m 4.383,0.761 4.273,0.762 c 0.484,0.086 0.972,-0.132 1.09,-0.487 C 35.88,9.179 35.583,8.821 35.099,8.736 L 30.826,7.974 c -0.484,-0.086 -0.973,0.131 -1.091,0.486 -0.117,0.355 0.18,0.712 0.664,0.798 m 4.319,0.768 4.273,0.592 c 0.489,0.068 0.962,-0.167 1.054,-0.526 C 40.138,9.733 39.817,9.388 39.327,9.32 L 35.053,8.728 c -0.49,-0.068 -0.961,0.168 -1.054,0.526 -0.092,0.359 0.229,0.705 0.719,0.772 m 4.273,0.592 4.274,0.592 c 0.489,0.069 0.961,-0.167 1.053,-0.526 C 44.411,10.325 44.089,9.98 43.6,9.912 L 39.327,9.32 c -0.491,-0.068 -0.962,0.168 -1.055,0.526 -0.092,0.359 0.229,0.705 0.719,0.772 m 4.3,0.596 4.389,0.508 c 0.492,0.057 0.955,-0.189 1.032,-0.55 0.077,-0.361 -0.259,-0.699 -0.751,-0.755 L 43.572,9.909 c -0.492,-0.057 -0.954,0.189 -1.032,0.55 -0.077,0.36 0.259,0.698 0.751,0.755 m 4.409,0.51 4.273,0.423 c 0.494,0.048 0.948,-0.204 1.014,-0.567 0.068,-0.362 -0.279,-0.694 -0.773,-0.743 l -4.272,-0.423 c -0.494,-0.048 -0.949,0.204 -1.016,0.567 -0.066,0.361 0.28,0.694 0.774,0.743 m 4.273,0.423 4.273,0.423 c 0.494,0.049 0.948,-0.205 1.014,-0.567 0.068,-0.361 -0.279,-0.694 -0.773,-0.743 l -4.273,-0.423 c -0.493,-0.049 -0.948,0.205 -1.015,0.566 -0.066,0.362 0.28,0.695 0.774,0.744 m 4.273,0.423 4.273,0.422 c 0.493,0.049 0.948,-0.205 1.015,-0.565 0.067,-0.362 -0.28,-0.695 -0.773,-0.744 L 56.487,11.26 c -0.493,-0.049 -0.948,0.204 -1.014,0.566 -0.067,0.363 0.279,0.695 0.773,0.744 m 4.297,0.425 4.273,0.338 c 0.496,0.039 0.941,-0.223 0.994,-0.586 0.054,-0.362 -0.305,-0.689 -0.8,-0.728 l -4.273,-0.338 c -0.496,-0.039 -0.94,0.223 -0.994,0.586 -0.054,0.363 0.305,0.689 0.8,0.728 m 4.276,0.338 4.388,0.338 c 0.496,0.039 0.94,-0.224 0.993,-0.588 0.052,-0.362 -0.308,-0.688 -0.804,-0.726 l -4.388,-0.338 c -0.496,-0.038 -0.94,0.225 -0.993,0.588 -0.052,0.363 0.308,0.688 0.804,0.726 m 4.409,0.34 4.274,0.253 c 0.497,0.031 0.932,-0.241 0.972,-0.604 0.04,-0.364 -0.329,-0.683 -0.826,-0.712 l -4.274,-0.255 c -0.496,-0.028 -0.931,0.242 -0.972,0.606 -0.04,0.363 0.329,0.683 0.826,0.712 m 4.25,0.252 4.273,0.338 c 0.495,0.04 0.94,-0.222 0.994,-0.586 0.053,-0.362 -0.305,-0.689 -0.801,-0.728 l -4.273,-0.338 c -0.495,-0.039 -0.94,0.223 -0.994,0.586 -0.053,0.363 0.305,0.689 0.801,0.728 m 4.297,0.34 4.273,0.254 c 0.497,0.03 0.932,-0.242 0.972,-0.606 0.041,-0.363 -0.329,-0.682 -0.826,-0.711 l -4.273,-0.254 c -0.497,-0.029 -0.932,0.241 -0.972,0.605 -0.041,0.364 0.33,0.683 0.826,0.712 m 4.275,0.254 4.389,0.254 c 0.497,0.028 0.931,-0.243 0.97,-0.607 0.039,-0.363 -0.331,-0.682 -0.828,-0.71 l -4.389,-0.254 c -0.497,-0.029 -0.931,0.242 -0.97,0.607 -0.039,0.363 0.331,0.682 0.828,0.71 m 4.411,0.255 4.274,0.17 c 0.497,0.019 0.922,-0.261 0.948,-0.625 0.028,-0.364 -0.353,-0.676 -0.851,-0.696 l -4.273,-0.168 c -0.498,-0.021 -0.923,0.259 -0.95,0.623 -0.028,0.365 0.355,0.676 0.852,0.696 m 4.249,0.168 4.273,0.253 c 0.496,0.03 0.933,-0.241 0.973,-0.604 0.04,-0.364 -0.331,-0.683 -0.827,-0.713 l -4.273,-0.254 c -0.497,-0.029 -0.932,0.241 -0.973,0.606 -0.04,0.364 0.33,0.682 0.827,0.712 m 4.298,0.254 4.272,0.17 c 0.498,0.02 0.923,-0.26 0.95,-0.624 0.026,-0.365 -0.355,-0.676 -0.852,-0.695 l -4.273,-0.17 c -0.498,-0.019 -0.923,0.26 -0.95,0.625 -0.026,0.363 0.355,0.675 0.853,0.694 m 4.274,0.17 4.388,0.17 c 0.498,0.018 0.922,-0.262 0.949,-0.626 0.026,-0.364 -0.356,-0.676 -0.854,-0.695 l -4.388,-0.168 c -0.498,-0.02 -0.922,0.261 -0.948,0.624 -0.027,0.365 0.355,0.676 0.853,0.695 m 4.387,0.17 4.273,0.168 c 0.498,0.02 0.924,-0.26 0.95,-0.624 0.027,-0.364 -0.355,-0.675 -0.853,-0.695 l -4.272,-0.17 c -0.498,-0.019 -0.923,0.26 -0.951,0.625 -0.026,0.364 0.356,0.676 0.853,0.696 m 4.273,0.168 4.274,0.17 c 0.496,0.019 0.923,-0.26 0.949,-0.625 0.027,-0.364 -0.355,-0.675 -0.852,-0.695 l -4.274,-0.169 c -0.497,-0.02 -0.922,0.26 -0.948,0.623 -0.028,0.366 0.353,0.677 0.851,0.696 m 4.274,0.17 4.273,0.169 c 0.497,0.02 0.922,-0.259 0.95,-0.625 0.026,-0.364 -0.355,-0.675 -0.853,-0.695 l -4.273,-0.169 c -0.498,-0.02 -0.923,0.259 -0.949,0.624 -0.028,0.364 0.354,0.676 0.852,0.696 m 4.274,0.169 4.389,0.169 c 0.498,0.019 0.922,-0.261 0.948,-0.625 0.026,-0.365 -0.355,-0.676 -0.853,-0.695 l -4.389,-0.169 c -0.498,-0.02 -0.922,0.261 -0.949,0.625 -0.025,0.365 0.356,0.676 0.854,0.695 m 4.411,0.17 4.273,0.084 c 0.499,0.01 0.913,-0.277 0.928,-0.643 0.012,-0.364 -0.381,-0.668 -0.879,-0.678 l -4.273,-0.084 c -0.498,-0.01 -0.912,0.278 -0.926,0.643 -0.014,0.364 0.379,0.668 0.877,0.678 m 4.249,0.083 4.273,0.17 c 0.498,0.019 0.923,-0.26 0.951,-0.625 0.026,-0.364 -0.356,-0.675 -0.853,-0.695 l -4.273,-0.169 c -0.498,-0.02 -0.923,0.26 -0.95,0.623 -0.027,0.366 0.355,0.677 0.852,0.696 m 4.298,0.171 4.273,0.084 c 0.498,0.01 0.913,-0.277 0.926,-0.643 0.014,-0.365 -0.379,-0.668 -0.877,-0.678 l -4.273,-0.085 c -0.498,-0.01 -0.914,0.278 -0.927,0.642 -0.013,0.365 0.38,0.67 0.878,0.68 m 4.25,0.083 4.389,0.17 c 0.497,0.019 0.922,-0.261 0.948,-0.626 0.026,-0.364 -0.356,-0.675 -0.854,-0.695 l -4.389,-0.168 c -0.497,-0.02 -0.922,0.26 -0.947,0.625 -0.027,0.364 0.355,0.675 0.853,0.694 m 4.412,0.171 4.272,0.084 c 0.499,0.01 0.914,-0.279 0.927,-0.643 0.013,-0.365 -0.379,-0.669 -0.878,-0.678 l -4.272,-0.086 c -0.499,-0.008 -0.914,0.279 -0.926,0.643 -0.014,0.366 0.378,0.669 0.877,0.68 m 4.272,0.084 4.274,0.084 c 0.498,0.01 0.913,-0.277 0.926,-0.643 0.014,-0.364 -0.38,-0.668 -0.877,-0.678 l -4.274,-0.084 c -0.498,-0.01 -0.911,0.278 -0.926,0.643 -0.014,0.364 0.38,0.668 0.877,0.678 m 4.274,0.084 4.273,0.084 c 0.498,0.011 0.913,-0.277 0.926,-0.642 0.013,-0.364 -0.379,-0.669 -0.877,-0.678 l -4.273,-0.085 c -0.499,-0.01 -0.913,0.278 -0.927,0.643 -0.013,0.364 0.379,0.668 0.878,0.678 m 4.25,0.084 4.389,0.169 c 0.497,0.02 0.922,-0.26 0.948,-0.624 0.026,-0.366 -0.355,-0.676 -0.853,-0.695 L 151,15.653 c -0.496,-0.018 -0.921,0.261 -0.947,0.625 -0.027,0.365 0.355,0.676 0.853,0.695 m 4.412,0.17 4.273,0.084 c 0.499,0.01 0.913,-0.277 0.926,-0.642 0.014,-0.365 -0.378,-0.669 -0.877,-0.679 l -4.274,-0.084 c -0.497,-0.01 -0.912,0.278 -0.926,0.643 -0.014,0.364 0.38,0.668 0.878,0.678 m 4.273,0.084 4.273,0.085 c 0.498,0.01 0.912,-0.278 0.927,-0.642 0.013,-0.365 -0.38,-0.669 -0.878,-0.679 l -4.273,-0.085 c -0.498,-0.01 -0.914,0.278 -0.927,0.643 -0.013,0.365 0.38,0.668 0.878,0.678 m 4.273,0.085 4.273,0.085 c 0.499,0.01 0.913,-0.279 0.926,-0.643 0.014,-0.365 -0.379,-0.669 -0.877,-0.678 l -4.273,-0.085 c -0.499,-0.009 -0.913,0.278 -0.926,0.643 -0.014,0.365 0.379,0.669 0.877,0.678 m 4.274,0.085 4.388,0.084 c 0.499,0.01 0.913,-0.278 0.926,-0.643 0.013,-0.364 -0.38,-0.668 -0.878,-0.678 l -4.388,-0.084 c -0.499,-0.01 -0.913,0.278 -0.927,0.643 -0.012,0.365 0.381,0.668 0.879,0.678 m 4.388,0.084 4.273,0.085 c 0.498,0.01 0.913,-0.278 0.926,-0.643 0.014,-0.364 -0.38,-0.669 -0.878,-0.678 l -4.273,-0.085 c -0.498,-0.009 -0.912,0.278 -0.925,0.643 -0.014,0.364 0.379,0.668 0.877,0.678 m 4.273,0.085 4.273,0.085 c 0.498,0.009 0.913,-0.278 0.926,-0.643 0.014,-0.365 -0.379,-0.669 -0.876,-0.679 l -4.275,-0.084 c -0.497,-0.011 -0.912,0.278 -0.926,0.642 -0.014,0.366 0.38,0.67 0.878,0.679 m 4.297,0.085 h 4.274 c 0.498,0 0.902,-0.295 0.902,-0.661 0,-0.366 -0.404,-0.661 -0.902,-0.661 h -4.274 c -0.498,0 -0.902,0.295 -0.902,0.661 0,0.366 0.404,0.661 0.902,0.661 m 4.25,0 4.389,0.084 c 0.498,0.01 0.913,-0.278 0.925,-0.643 0.014,-0.365 -0.379,-0.668 -0.877,-0.678 l -4.39,-0.085 c -0.498,-0.009 -0.912,0.279 -0.925,0.643 -0.013,0.365 0.38,0.669 0.878,0.679 m 4.388,0.084 4.273,0.085 c 0.498,0.009 0.913,-0.278 0.927,-0.643 0.013,-0.365 -0.38,-0.668 -0.878,-0.679 l -4.273,-0.084 c -0.498,-0.01 -0.913,0.278 -0.927,0.643 -0.013,0.364 0.38,0.668 0.878,0.678 m 4.273,0.085 4.273,0.084 c 0.498,0.01 0.913,-0.278 0.926,-0.642 0.014,-0.365 -0.379,-0.669 -0.878,-0.679 l -4.272,-0.085 c -0.499,-0.01 -0.914,0.278 -0.926,0.643 -0.014,0.365 0.378,0.668 0.877,0.679 m 4.273,0.084 4.273,0.085 c 0.498,0.01 0.914,-0.278 0.927,-0.643 0.013,-0.365 -0.38,-0.669 -0.878,-0.678 l -4.274,-0.085 c -0.497,-0.009 -0.911,0.279 -0.925,0.643 -0.014,0.365 0.379,0.669 0.877,0.678 m 4.298,0.085 h 4.389 c 0.498,0 0.901,-0.295 0.901,-0.661 0,-0.364 -0.403,-0.66 -0.901,-0.66 h -4.389 c -0.498,0 -0.902,0.296 -0.902,0.66 0,0.366 0.404,0.661 0.902,0.661 m 4.364,0 4.273,0.084 c 0.498,0.011 0.914,-0.277 0.927,-0.642 0.013,-0.365 -0.38,-0.668 -0.878,-0.679 l -4.274,-0.084 c -0.497,-0.01 -0.912,0.278 -0.926,0.643 -0.014,0.364 0.38,0.668 0.878,0.678 m 4.273,0.084 4.273,0.085 c 0.499,0.01 0.913,-0.278 0.927,-0.643 0.013,-0.364 -0.379,-0.668 -0.878,-0.678 l -4.273,-0.085 c -0.498,-0.009 -0.913,0.278 -0.927,0.643 -0.012,0.365 0.38,0.668 0.878,0.678 m 4.298,0.085 h 4.272 c 0.499,0 0.903,-0.296 0.903,-0.66 0,-0.366 -0.404,-0.661 -0.903,-0.661 h -4.272 c -0.499,0 -0.902,0.295 -0.902,0.661 0,0.364 0.403,0.66 0.902,0.66 m 4.25,0 4.388,0.085 c 0.498,0.009 0.912,-0.279 0.925,-0.643 0.014,-0.366 -0.379,-0.669 -0.878,-0.679 l -4.389,-0.084 c -0.497,-0.01 -0.911,0.278 -0.925,0.643 -0.014,0.365 0.38,0.669 0.879,0.678 m 4.387,0.085 4.274,0.084 c 0.497,0.01 0.912,-0.277 0.925,-0.643 0.015,-0.365 -0.379,-0.668 -0.877,-0.677 l -4.273,-0.086 c -0.498,-0.009 -0.914,0.279 -0.926,0.643 -0.014,0.365 0.379,0.669 0.877,0.679 m 4.298,0.085 h 4.273 c 0.498,0 0.902,-0.296 0.902,-0.662 0,-0.364 -0.404,-0.66 -0.902,-0.66 h -4.273 c -0.499,0 -0.903,0.296 -0.903,0.66 0,0.366 0.404,0.662 0.903,0.662 m 4.248,-10e-4 4.274,0.085 c 0.497,0.01 0.913,-0.278 0.927,-0.643 0.012,-0.364 -0.381,-0.668 -0.878,-0.679 l -4.274,-0.083 c -0.498,-0.011 -0.913,0.277 -0.927,0.642 -0.013,0.364 0.38,0.668 0.878,0.678 m 4.298,0.085 h 4.273 c 0.498,0 0.902,-0.296 0.902,-0.66 0,-0.366 -0.404,-0.662 -0.902,-0.662 h -4.273 c -0.498,0 -0.902,0.296 -0.902,0.662 0,0.364 0.404,0.66 0.902,0.66 m 4.25,0 4.388,0.084 c 0.499,0.01 0.913,-0.278 0.925,-0.642 0.014,-0.366 -0.379,-0.669 -0.877,-0.679 l -4.389,-0.085 c -0.498,-0.009 -0.913,0.279 -0.926,0.644 -0.013,0.365 0.381,0.668 0.879,0.678 m 4.412,0.084 h 4.273 c 0.498,0 0.902,-0.296 0.902,-0.66 0,-0.365 -0.404,-0.661 -0.902,-0.661 h -4.273 c -0.499,0 -0.903,0.296 -0.903,0.661 0,0.364 0.404,0.66 0.903,0.66 m 4.249,0 4.273,0.085 c 0.498,0.01 0.913,-0.278 0.925,-0.643 0.015,-0.365 -0.379,-0.669 -0.876,-0.678 l -4.274,-0.085 c -0.497,-0.01 -0.913,0.279 -0.926,0.643 -0.014,0.365 0.38,0.669 0.878,0.678 m 4.297,0.085 h 4.274 c 0.497,0 0.902,-0.295 0.902,-0.661 0,-0.364 -0.405,-0.66 -0.902,-0.66 h -4.274 c -0.499,0 -0.903,0.296 -0.903,0.66 0,0.366 0.404,0.661 0.903,0.661 m 4.249,0 4.389,0.084 c 0.499,0.01 0.913,-0.277 0.926,-0.643 0.013,-0.365 -0.381,-0.667 -0.878,-0.678 l -4.39,-0.084 c -0.497,-0.009 -0.912,0.278 -0.925,0.643 -0.013,0.365 0.38,0.668 0.878,0.678 m 4.413,0.085 h 4.273 c 0.498,0 0.902,-0.296 0.902,-0.661 0,-0.365 -0.404,-0.661 -0.902,-0.661 h -4.273 c -0.499,0 -0.903,0.296 -0.903,0.661 0,0.365 0.404,0.661 0.903,0.661 m 4.249,-0.001 4.273,0.085 c 0.498,0.01 0.912,-0.278 0.926,-0.643 0.013,-0.364 -0.379,-0.668 -0.878,-0.678 l -4.272,-0.084 c -0.499,-0.01 -0.914,0.277 -0.927,0.643 -0.013,0.364 0.379,0.668 0.878,0.677 m 4.297,0.085 h 4.274 c 0.497,0 0.901,-0.296 0.901,-0.66 0,-0.366 -0.404,-0.661 -0.901,-0.661 h -4.274 c -0.499,0 -0.902,0.295 -0.902,0.661 0,0.364 0.403,0.66 0.902,0.66"
             style="fill:#8ea4ca;fill-opacity:1;fill-rule:nonzero;stroke:none"
             id="path2870" /></g></g></g><text
       xml:space="preserve"
       transform="matrix(1,0,0,-1,232.6775,219.8205)"
       style="font-variant:normal;font-weight:normal;font-stretch:normal;font-size:6.8607px;font-family:Flama;-inkscape-font-specification:Flama-Book;writing-mode:lr-tb;fill:#231f20;fill-opacity:1;fill-rule:nonzero;stroke:none"
       id="text2900"><tspan
         x="0 3.8419919"
         y="0"
         sodipodi:role="line"
         id="tspan2872">65</tspan><tspan
         x="-0.2469852 3.5950067"
         y="10.77816"
         sodipodi:role="line"
         id="tspan2874">60</tspan><tspan
         x="0.089189097 3.8419919"
         y="21.556318"
         sodipodi:role="line"
         id="tspan2876">55</tspan><tspan
         x="-0.1577961 3.5950067"
         y="32.33448"
         sodipodi:role="line"
         id="tspan2878">50</tspan><tspan
         x="-0.1166319 3.8419919"
         y="43.11264"
         sodipodi:role="line"
         id="tspan2880">45</tspan><tspan
         x="-0.36361709 3.5950067"
         y="53.890797"
         sodipodi:role="line"
         id="tspan2882">40</tspan><tspan
         x="0.068607002 3.8419919"
         y="64.668961"
         sodipodi:role="line"
         id="tspan2884">35</tspan><tspan
         x="-0.17837819 3.5950067"
         y="75.447121"
         sodipodi:role="line"
         id="tspan2886">30</tspan><tspan
         x="0.17837819 3.8419919"
         y="86.225281"
         sodipodi:role="line"
         id="tspan2888">25</tspan><tspan
         x="-0.068607002 3.5950067"
         y="97.003433"
         sodipodi:role="line"
         id="tspan2890">20</tspan><tspan
         x="0.41164199 3.8419919"
         y="107.7816"
         sodipodi:role="line"
         id="tspan2892">15</tspan><tspan
         x="0.1646568 3.5950067"
         y="118.55976"
         sodipodi:role="line"
         id="tspan2894">10</tspan><tspan
         x="3.8419919"
         y="129.33792"
         id="tspan2896">5</tspan><tspan
         x="3.5950067"
         y="140.11607"
         id="tspan2898">0</tspan></text><text
       xml:space="preserve"
       transform="matrix(1,0,0,-1,375.15366,60.014215)"
       style="font-variant:normal;font-weight:bold;font-stretch:normal;font-size:6.8607px;font-family:Flama;-inkscape-font-specification:Flama-Bold;writing-mode:lr-tb;fill:#231f20;fill-opacity:1;fill-rule:nonzero;stroke:none"
       id="text2904"><tspan
         x="0 4.5417833 7.5604916 11.505394 15.306222 19.155075 22.873573 26.592073 30.536976 33.555683 35.236557 39.840084 43.784988 47.935711 52.065853"
         y="0"
         sodipodi:role="line"
         id="tspan2902">Processor Count</tspan></text><text
       xml:space="preserve"
       transform="matrix(1,0,0,-1,244.20348,71.595077)"
       style="font-variant:normal;font-weight:normal;font-stretch:normal;font-size:6.8607px;font-family:Flama;-inkscape-font-specification:Flama-Book;writing-mode:lr-tb;fill:#8ea4ca;fill-opacity:1;fill-rule:nonzero;stroke:none"
       id="text2920"><tspan
         x="0 17.391874 34.145702 49.939034 52.683315 67.138809 69.883087 84.434631 88.098251 100.86601 104.52962 118.79302 122.45663 135.37534 139.14871 152.8907 156.66408 169.70627 173.6649 186.88547 190.84409 203.96175 207.92038 221.3399 225.09271 238.75237 242.50516 255.61597 259.45795 273.96149 277.80347"
         y="0"
         sodipodi:role="line"
         id="tspan2906">1591317212529333741454953576165</tspan><tspan
         x="274.133 277.56335"
         y="-91.15126"
         sodipodi:role="line"
         id="tspan2908">1%</tspan><tspan
         x="278.08475 281.74835"
         y="-67.79744"
         sodipodi:role="line"
         id="tspan2910">2%</tspan><tspan
         x="278.20825 282.16687"
         y="-47.42802"
         sodipodi:role="line"
         id="tspan2912">4%</tspan><tspan
         x="278.20825 282.05023"
         y="-38.934471"
         sodipodi:role="line"
         id="tspan2914">6%</tspan><tspan
         x="278.20825 282.00223"
         y="-31.394564"
         sodipodi:role="line"
         id="tspan2916">8%</tspan><tspan
         x="278.20825 281.63861 285.6384"
         y="-25.412033"
         sodipodi:role="line"
         id="tspan2918">10%</tspan></text><text
       xml:space="preserve"
       transform="matrix(0,1,1,0,228.5992,138.4459)"
       style="font-variant:normal;font-weight:bold;font-stretch:normal;font-size:6.8607px;font-family:Flama;-inkscape-font-specification:Flama-Bold;writing-mode:lr-tb;fill:#231f20;fill-opacity:1;fill-rule:nonzero;stroke:none"
       id="text2924"><tspan
         x="0 4.342823 8.4455214 12.294374 16.143227 20.245926 24.396648"
         y="0"
         sodipodi:role="line"
         id="tspan2922">Speedup</tspan></text></g></svg>
