<?xml version="1.0" encoding="UTF-8" standalone="no"?>
<!-- Created with Inkscape (http://www.inkscape.org/) -->

<svg
   version="1.1"
   id="svg10738"
   xml:space="preserve"
   width="445.33331"
   height="253.33333"
   xmlns:inkscape="http://www.inkscape.org/namespaces/inkscape"
   xmlns:sodipodi="http://sodipodi.sourceforge.net/DTD/sodipodi-0.dtd"
   xmlns="http://www.w3.org/2000/svg"
   xmlns:svg="http://www.w3.org/2000/svg"><defs
     id="defs10742"><clipPath
       clipPathUnits="userSpaceOnUse"
       id="clipPath2212"><path
         d="M 52,551.74 H 358.736 V 705.075 H 52 Z"
         id="path2210" /></clipPath><clipPath
       clipPathUnits="userSpaceOnUse"
       id="clipPath2340"><path
         d="M 52,551.74 H 358.736 V 705.075 H 52 Z"
         id="path2338" /></clipPath><clipPath
       clipPathUnits="userSpaceOnUse"
       id="clipPath2384"><path
         d="M 52,551.74 H 358.736 V 705.075 H 52 Z"
         id="path2382" /></clipPath></defs><sodipodi:namedview
     id="namedview10740"
     pagecolor="#ffffff"
     bordercolor="#000000"
     borderopacity="0.25"
     inkscape:showpageshadow="2"
     inkscape:pageopacity="0.0"
     inkscape:pagecheckerboard="0"
     inkscape:deskcolor="#d1d1d1" /><inkscape:clipboard
     min="3248,71.900024"
     max="3693.3333,325.23335"
     geom-min="3248,71.900024"
     geom-max="3693.3333,325.23335" /><g
     id="g10750"
     transform="matrix(1.3333333,0,0,-1.3333333,-47.999999,972.09998)"><path
       d="m 36,539.075 h 334 v 190 H 36 Z"
       style="fill:#daeaf3;fill-opacity:1;fill-rule:nonzero;stroke:none"
       id="path2138" /><path
       d="m 36,717.736 h 334 v 11.339 H 36 Z"
       style="fill:#007aa4;fill-opacity:1;fill-rule:nonzero;stroke:none"
       id="path2140" /><text
       xml:space="preserve"
       transform="matrix(1,0,0,-1,40,720.8251)"
       style="font-variant:normal;font-weight:bold;font-stretch:normal;font-size:7.5px;font-family:'Flama Bold';-inkscape-font-specification:Flama-Bold;writing-mode:lr-tb;fill:#ffffff;fill-opacity:1;fill-rule:nonzero;stroke:none"
       id="text2144"><tspan
         x="0 4.6574998 6.8474998 11.445 16.094999 19.5075 23.827499 25.7775 30.33 32.564999 34.514999 39.18 42.615002 47.025002 51.6525 55.830002 58.02 62.197498 65.175003 69.599998 73.012497 77.190002 79.139999 83.737503 88.057503 91.470001 93.419998 97.6875 102.315 104.505 109.1025 111.0525 115.4775 118.3125 120.2625 122.6325 127.26 130.2375 134.5575 137.145 139.095 146.145 148.33501 152.60249 156.015 160.44 165.03751 168.45 172.875 177.1425 181.46249 185.64 189.8175 194.24249 197.655 201.8325 203.7825 207.99001 212.1675 214.4025 216.35249 222.855 227.28 231.705 235.11749 239.4375 241.3275 245.505 247.455 252.1425 256.55249 262.53751 264.66"
         y="0"
         sodipodi:role="line"
         id="tspan2142">Figure 2. Transistors per chip of Intel microprocessors vs. Moore’s Law. </tspan></text><g
       id="g2146"
       transform="translate(93.24,681.5475)"><path
         d="M 0,0 V -115.14"
         style="fill:none;stroke:#231f20;stroke-width:1;stroke-linecap:butt;stroke-linejoin:miter;stroke-miterlimit:10;stroke-dasharray:none;stroke-opacity:1"
         id="path2148" /></g><g
       id="g2150"
       transform="translate(186.1897,681.5475)"><path
         d="M 0,0 V -115.14"
         style="fill:none;stroke:#cccccc;stroke-width:0.496;stroke-linecap:butt;stroke-linejoin:miter;stroke-miterlimit:10;stroke-dasharray:none;stroke-opacity:1"
         id="path2152" /></g><g
       id="g2154"
       transform="translate(241.5862,681.5475)"><path
         d="M 0,0 V -115.14"
         style="fill:none;stroke:#cccccc;stroke-width:0.496;stroke-linecap:butt;stroke-linejoin:miter;stroke-miterlimit:10;stroke-dasharray:none;stroke-opacity:1"
         id="path2156" /></g><g
       id="g2158"
       transform="translate(296.4397,681.5475)"><path
         d="M 0,0 V -115.14"
         style="fill:none;stroke:#cccccc;stroke-width:0.496;stroke-linecap:butt;stroke-linejoin:miter;stroke-miterlimit:10;stroke-dasharray:none;stroke-opacity:1"
         id="path2160" /></g><g
       id="g2162"
       transform="translate(351.8362,681.5475)"><path
         d="M 0,0 V -115.14"
         style="fill:none;stroke:#cccccc;stroke-width:0.496;stroke-linecap:butt;stroke-linejoin:miter;stroke-miterlimit:10;stroke-dasharray:none;stroke-opacity:1"
         id="path2164" /></g><g
       id="g2166"
       transform="translate(92.7757,582.7272)"><path
         d="M 0,0 H 259.061"
         style="fill:none;stroke:#cccccc;stroke-width:0.496;stroke-linecap:butt;stroke-linejoin:miter;stroke-miterlimit:10;stroke-dasharray:none;stroke-opacity:1"
         id="path2168" /></g><g
       id="g2170"
       transform="translate(92.7757,566.2433)"><path
         d="M 0,0 H 259.061"
         style="fill:none;stroke:#231f20;stroke-width:1;stroke-linecap:butt;stroke-linejoin:miter;stroke-miterlimit:10;stroke-dasharray:none;stroke-opacity:1"
         id="path2172" /></g><g
       id="g2174"
       transform="translate(92.7757,599.4992)"><path
         d="M 0,0 H 259.061"
         style="fill:none;stroke:#cccccc;stroke-width:0.496;stroke-linecap:butt;stroke-linejoin:miter;stroke-miterlimit:10;stroke-dasharray:none;stroke-opacity:1"
         id="path2176" /></g><g
       id="g2178"
       transform="translate(92.7757,615.8181)"><path
         d="M 0,0 H 259.061"
         style="fill:none;stroke:#cccccc;stroke-width:0.496;stroke-linecap:butt;stroke-linejoin:miter;stroke-miterlimit:10;stroke-dasharray:none;stroke-opacity:1"
         id="path2180" /></g><g
       id="g2182"
       transform="translate(92.7757,632.1375)"><path
         d="M 0,0 H 259.061"
         style="fill:none;stroke:#cccccc;stroke-width:0.496;stroke-linecap:butt;stroke-linejoin:miter;stroke-miterlimit:10;stroke-dasharray:none;stroke-opacity:1"
         id="path2184" /></g><g
       id="g2186"
       transform="translate(92.7757,648.9093)"><path
         d="M 0,0 H 259.061"
         style="fill:none;stroke:#cccccc;stroke-width:0.496;stroke-linecap:butt;stroke-linejoin:miter;stroke-miterlimit:10;stroke-dasharray:none;stroke-opacity:1"
         id="path2188" /></g><g
       id="g2190"
       transform="translate(92.7757,665.2282)"><path
         d="M 0,0 H 259.061"
         style="fill:none;stroke:#cccccc;stroke-width:0.496;stroke-linecap:butt;stroke-linejoin:miter;stroke-miterlimit:10;stroke-dasharray:none;stroke-opacity:1"
         id="path2192" /></g><g
       id="g2194"
       transform="translate(92.7757,681.5475)"><path
         d="M 0,0 H 259.061"
         style="fill:none;stroke:#cccccc;stroke-width:0.496;stroke-linecap:butt;stroke-linejoin:miter;stroke-miterlimit:10;stroke-dasharray:none;stroke-opacity:1"
         id="path2196" /></g><g
       id="g2198"
       transform="translate(98.1223,566.4308)"><path
         d="m 0,0 22.06,9.904 22.06,9.905 22.059,9.904 16.545,7.428 22.06,9.904 16.544,7.428 16.545,7.428 16.545,7.429 16.545,7.428 16.545,7.428 16.545,7.428 11.03,4.952 16.544,7.429 16.545,7.428"
         style="fill:none;stroke:#007aa4;stroke-width:1.985;stroke-linecap:butt;stroke-linejoin:miter;stroke-miterlimit:10;stroke-dasharray:none;stroke-opacity:1"
         id="path2200" /></g><g
       id="g2202"
       transform="translate(98.1223,566.4308)"><path
         d="m 0,0 22.06,8.982 22.06,10.827 22.059,5.793 16.545,3.189 22.06,9.904 16.544,4.11 16.545,11.949 16.545,5.255 16.545,4.65 16.545,5.254 16.545,4.872 11.03,5.353 16.544,6.459 16.545,4.807"
         style="fill:none;stroke:#ab0f14;stroke-width:1.985;stroke-linecap:butt;stroke-linejoin:miter;stroke-miterlimit:10;stroke-dasharray:none;stroke-opacity:1"
         id="path2204" /></g><g
       id="g2206"><g
         id="g2208"
         clip-path="url(#clipPath2212)"><g
           id="g2214"
           transform="translate(101.3806,566.4308)"><path
             d="m 0,0 c 0,-1.502 -1.458,-2.72 -3.258,-2.72 -1.8,0 -3.259,1.218 -3.259,2.72 0,1.502 1.459,2.72 3.259,2.72 C -1.458,2.72 0,1.502 0,0"
             style="fill:#007aa4;fill-opacity:1;fill-rule:nonzero;stroke:none"
             id="path2216" /></g><g
           id="g2218"
           transform="translate(123.4407,576.3351)"><path
             d="m 0,0 c 0,-1.502 -1.459,-2.72 -3.259,-2.72 -1.8,0 -3.258,1.218 -3.258,2.72 0,1.502 1.458,2.72 3.258,2.72 C -1.459,2.72 0,1.502 0,0"
             style="fill:#007aa4;fill-opacity:1;fill-rule:nonzero;stroke:none"
             id="path2220" /></g><g
           id="g2222"
           transform="translate(145.5003,586.2394)"><path
             d="m 0,0 c 0,-1.502 -1.459,-2.72 -3.258,-2.72 -1.8,0 -3.259,1.218 -3.259,2.72 0,1.502 1.459,2.72 3.259,2.72 C -1.459,2.72 0,1.502 0,0"
             style="fill:#007aa4;fill-opacity:1;fill-rule:nonzero;stroke:none"
             id="path2224" /></g><g
           id="g2226"
           transform="translate(167.5603,596.1437)"><path
             d="m 0,0 c 0,-1.502 -1.459,-2.72 -3.259,-2.72 -1.8,0 -3.259,1.218 -3.259,2.72 0,1.502 1.459,2.72 3.259,2.72 C -1.459,2.72 0,1.502 0,0"
             style="fill:#007aa4;fill-opacity:1;fill-rule:nonzero;stroke:none"
             id="path2228" /></g><g
           id="g2230"
           transform="translate(184.1048,603.572)"><path
             d="m 0,0 c 0,-1.502 -1.458,-2.72 -3.258,-2.72 -1.8,0 -3.259,1.218 -3.259,2.72 0,1.502 1.459,2.72 3.259,2.72 C -1.458,2.72 0,1.502 0,0"
             style="fill:#007aa4;fill-opacity:1;fill-rule:nonzero;stroke:none"
             id="path2232" /></g><g
           id="g2234"
           transform="translate(206.1643,613.4757)"><path
             d="m 0,0 c 0,-1.502 -1.459,-2.72 -3.258,-2.72 -1.8,0 -3.259,1.218 -3.259,2.72 0,1.502 1.459,2.72 3.259,2.72 C -1.459,2.72 0,1.502 0,0"
             style="fill:#007aa4;fill-opacity:1;fill-rule:nonzero;stroke:none"
             id="path2236" /></g><g
           id="g2238"
           transform="translate(222.7093,620.9041)"><path
             d="m 0,0 c 0,-1.502 -1.459,-2.72 -3.259,-2.72 -1.799,0 -3.258,1.218 -3.258,2.72 0,1.502 1.459,2.72 3.258,2.72 C -1.459,2.72 0,1.502 0,0"
             style="fill:#007aa4;fill-opacity:1;fill-rule:nonzero;stroke:none"
             id="path2240" /></g><g
           id="g2242"
           transform="translate(239.2542,628.3322)"><path
             d="m 0,0 c 0,-1.502 -1.459,-2.72 -3.259,-2.72 -1.8,0 -3.258,1.218 -3.258,2.72 0,1.502 1.458,2.72 3.258,2.72 C -1.459,2.72 0,1.502 0,0"
             style="fill:#007aa4;fill-opacity:1;fill-rule:nonzero;stroke:none"
             id="path2244" /></g><g
           id="g2246"
           transform="translate(255.7991,635.7604)"><path
             d="m 0,0 c 0,-1.502 -1.459,-2.72 -3.259,-2.72 -1.8,0 -3.259,1.218 -3.259,2.72 0,1.502 1.459,2.72 3.259,2.72 C -1.459,2.72 0,1.502 0,0"
             style="fill:#007aa4;fill-opacity:1;fill-rule:nonzero;stroke:none"
             id="path2248" /></g><g
           id="g2250"
           transform="translate(272.3441,643.1887)"><path
             d="m 0,0 c 0,-1.502 -1.459,-2.72 -3.259,-2.72 -1.8,0 -3.259,1.218 -3.259,2.72 0,1.502 1.459,2.72 3.259,2.72 C -1.459,2.72 0,1.502 0,0"
             style="fill:#007aa4;fill-opacity:1;fill-rule:nonzero;stroke:none"
             id="path2252" /></g><g
           id="g2254"
           transform="translate(288.8889,650.6169)"><path
             d="m 0,0 c 0,-1.502 -1.459,-2.72 -3.259,-2.72 -1.8,0 -3.259,1.218 -3.259,2.72 0,1.502 1.459,2.72 3.259,2.72 C -1.459,2.72 0,1.502 0,0"
             style="fill:#007aa4;fill-opacity:1;fill-rule:nonzero;stroke:none"
             id="path2256" /></g><g
           id="g2258"
           transform="translate(305.4339,658.0452)"><path
             d="m 0,0 c 0,-1.502 -1.459,-2.72 -3.259,-2.72 -1.8,0 -3.259,1.218 -3.259,2.72 0,1.502 1.459,2.72 3.259,2.72 C -1.459,2.72 0,1.502 0,0"
             style="fill:#007aa4;fill-opacity:1;fill-rule:nonzero;stroke:none"
             id="path2260" /></g><g
           id="g2262"
           transform="translate(316.4632,662.9973)"><path
             d="m 0,0 c 0,-1.502 -1.459,-2.72 -3.258,-2.72 -1.8,0 -3.259,1.218 -3.259,2.72 0,1.502 1.459,2.72 3.259,2.72 C -1.459,2.72 0,1.502 0,0"
             style="fill:#007aa4;fill-opacity:1;fill-rule:nonzero;stroke:none"
             id="path2264" /></g><g
           id="g2266"
           transform="translate(333.0081,670.4255)"><path
             d="m 0,0 c 0,-1.502 -1.459,-2.72 -3.259,-2.72 -1.799,0 -3.258,1.218 -3.258,2.72 0,1.502 1.459,2.72 3.258,2.72 C -1.459,2.72 0,1.502 0,0"
             style="fill:#007aa4;fill-opacity:1;fill-rule:nonzero;stroke:none"
             id="path2268" /></g><g
           id="g2270"
           transform="translate(349.553,677.8538)"><path
             d="m 0,0 c 0,-1.502 -1.459,-2.72 -3.259,-2.72 -1.8,0 -3.258,1.218 -3.258,2.72 0,1.502 1.458,2.72 3.258,2.72 C -1.459,2.72 0,1.502 0,0"
             style="fill:#007aa4;fill-opacity:1;fill-rule:nonzero;stroke:none"
             id="path2272" /></g><g
           id="g2274"
           transform="translate(98.1223,569.1506)"><path
             d="M 0,0 3.258,-2.72 0,-5.439 -3.259,-2.72 Z"
             style="fill:#ab0f14;fill-opacity:1;fill-rule:nonzero;stroke:none"
             id="path2276" /></g><g
           id="g2278"
           transform="translate(120.1819,578.1325)"><path
             d="M 0,0 3.259,-2.72 0,-5.439 -3.258,-2.72 Z"
             style="fill:#ab0f14;fill-opacity:1;fill-rule:nonzero;stroke:none"
             id="path2280" /></g><g
           id="g2282"
           transform="translate(142.242,588.9591)"><path
             d="M 0,0 3.258,-2.72 0,-5.44 -3.259,-2.72 Z"
             style="fill:#ab0f14;fill-opacity:1;fill-rule:nonzero;stroke:none"
             id="path2284" /></g><g
           id="g2286"
           transform="translate(164.3015,594.7526)"><path
             d="M 0,0 3.259,-2.72 0,-5.439 -3.259,-2.72 Z"
             style="fill:#ab0f14;fill-opacity:1;fill-rule:nonzero;stroke:none"
             id="path2288" /></g><g
           id="g2290"
           transform="translate(180.8465,597.9412)"><path
             d="M 0,0 3.258,-2.72 0,-5.439 -3.259,-2.72 Z"
             style="fill:#ab0f14;fill-opacity:1;fill-rule:nonzero;stroke:none"
             id="path2292" /></g><g
           id="g2294"
           transform="translate(202.906,607.8455)"><path
             d="M 0,0 3.258,-2.72 0,-5.439 -3.259,-2.72 Z"
             style="fill:#ab0f14;fill-opacity:1;fill-rule:nonzero;stroke:none"
             id="path2296" /></g><g
           id="g2298"
           transform="translate(219.4505,611.9562)"><path
             d="M 0,0 3.259,-2.72 0,-5.44 -3.258,-2.72 Z"
             style="fill:#ab0f14;fill-opacity:1;fill-rule:nonzero;stroke:none"
             id="path2300" /></g><g
           id="g2302"
           transform="translate(235.9954,623.9049)"><path
             d="M 0,0 3.259,-2.72 0,-5.439 -3.258,-2.72 Z"
             style="fill:#ab0f14;fill-opacity:1;fill-rule:nonzero;stroke:none"
             id="path2304" /></g><g
           id="g2306"
           transform="translate(252.5403,629.1593)"><path
             d="M 0,0 3.259,-2.72 0,-5.439 -3.259,-2.72 Z"
             style="fill:#ab0f14;fill-opacity:1;fill-rule:nonzero;stroke:none"
             id="path2308" /></g><g
           id="g2310"
           transform="translate(269.0852,633.8092)"><path
             d="M 0,0 3.259,-2.72 0,-5.439 -3.259,-2.72 Z"
             style="fill:#ab0f14;fill-opacity:1;fill-rule:nonzero;stroke:none"
             id="path2312" /></g><g
           id="g2314"
           transform="translate(285.6302,639.0637)"><path
             d="M 0,0 3.259,-2.72 0,-5.439 -3.259,-2.72 Z"
             style="fill:#ab0f14;fill-opacity:1;fill-rule:nonzero;stroke:none"
             id="path2316" /></g><g
           id="g2318"
           transform="translate(302.1751,643.9352)"><path
             d="M 0,0 3.259,-2.72 0,-5.44 -3.259,-2.72 Z"
             style="fill:#ab0f14;fill-opacity:1;fill-rule:nonzero;stroke:none"
             id="path2320" /></g><g
           id="g2322"
           transform="translate(313.2053,649.2892)"><path
             d="M 0,0 3.258,-2.72 0,-5.44 -3.259,-2.72 Z"
             style="fill:#ab0f14;fill-opacity:1;fill-rule:nonzero;stroke:none"
             id="path2324" /></g><g
           id="g2326"
           transform="translate(329.7493,655.7473)"><path
             d="M 0,0 3.259,-2.72 0,-5.439 -3.258,-2.72 Z"
             style="fill:#ab0f14;fill-opacity:1;fill-rule:nonzero;stroke:none"
             id="path2328" /></g><g
           id="g2330"
           transform="translate(346.2943,660.5554)"><path
             d="M 0,0 3.259,-2.72 0,-5.44 -3.258,-2.72 Z"
             style="fill:#ab0f14;fill-opacity:1;fill-rule:nonzero;stroke:none"
             id="path2332" /></g></g></g><g
       id="g2334"><g
         id="g2336"
         clip-path="url(#clipPath2340)"><text
           xml:space="preserve"
           transform="matrix(1,0,0,-1,52.6712,678.6569)"
           style="font-variant:normal;font-weight:normal;font-stretch:normal;font-size:7px;font-family:Flama;-inkscape-font-specification:Flama-Book;writing-mode:lr-tb;fill:#231f20;fill-opacity:1;fill-rule:nonzero;stroke:none"
           id="text2344"><tspan
             x="0 3.5 7.5809999 9.1350002 13.216 17.297001 21.378 22.931999 27.013 31.094"
             y="0"
             sodipodi:role="line"
             id="tspan2342">10,000,000</tspan></text></g></g><text
       xml:space="preserve"
       transform="matrix(1,0,0,-1,123.4972,697.0249)"
       style="font-variant:normal;font-weight:bold;font-stretch:normal;font-size:7px;font-family:Flama;-inkscape-font-specification:Flama-Bold;writing-mode:lr-tb;fill:#231f20;fill-opacity:1;fill-rule:nonzero;stroke:none"
       id="text2348"><tspan
         x="0 5.9640002 9.9890003 14.014 17.094 21.021 22.6807 26.474701 28.189699 32.459702 36.470699 42.315701 44.030701 47.852699 51.646702 53.627701 55.342701 57.449699 61.6637 64.3377 68.264702 70.574699 72.289703 78.2537 80.192703 84.070702 87.150703 91.175697 95.361702 98.441704 102.4667 106.3447 110.2717 114.0657 117.8597 121.8847 124.9647 126.6797 131.5307 135.4577 139.67171 143.4657 145.40469 148.1627"
         y="0"
         sodipodi:role="line"
         id="tspan2346">Moore’s Law vs. Intel Microprocessor Density</tspan></text><text
       xml:space="preserve"
       transform="matrix(1,0,0,-1,56.7522,662.1439)"
       style="font-variant:normal;font-weight:normal;font-stretch:normal;font-size:7px;font-family:Flama;-inkscape-font-specification:Flama-Book;writing-mode:lr-tb;fill:#231f20;fill-opacity:1;fill-rule:nonzero;stroke:none"
       id="text2364"><tspan
         x="0 3.5 5.0539999 9.1350002 13.216 17.297001 18.851 22.931999 27.013"
         y="0"
         sodipodi:role="line"
         id="tspan2350">1,000,000</tspan><tspan
         x="5.6350002 9.1350002 13.216 17.297001 18.851 22.931999 27.013"
         y="16.065001"
         sodipodi:role="line"
         id="tspan2352">100,000</tspan><tspan
         x="9.7159996 13.216 17.297001 18.851 22.931999 27.013"
         y="32.570999"
         sodipodi:role="line"
         id="tspan2354">10,000</tspan><tspan
         x="13.797 17.297001 18.851 22.931999 27.013"
         y="49.077"
         sodipodi:role="line"
         id="tspan2356">1,000</tspan><tspan
         x="19.431999 22.931999 27.013"
         y="65.583"
         sodipodi:role="line"
         id="tspan2358">100</tspan><tspan
         x="23.513 27.013"
         y="82.088997"
         sodipodi:role="line"
         id="tspan2360">10</tspan><tspan
         x="67.794998 71.294998 75.228996 79.099998 121.303 124.803 128.737 132.67101"
         y="107.751"
         sodipodi:role="line"
         id="tspan2362">19801990</tspan></text><g
       id="g2366"
       transform="translate(324.8479,691.4738)"><path
         d="M 0,0 3.259,-2.72 0,-5.439 -3.259,-2.72 Z"
         style="fill:#ab0f14;fill-opacity:1;fill-rule:nonzero;stroke:none"
         id="path2368" /></g><text
       xml:space="preserve"
       transform="matrix(1,0,0,-1,329.0989,686.4172)"
       style="font-variant:normal;font-weight:normal;font-stretch:normal;font-size:7px;font-family:Flama;-inkscape-font-specification:Flama-Book;writing-mode:lr-tb;fill:#231f20;fill-opacity:1;fill-rule:nonzero;stroke:none"
       id="text2376"><tspan
         x="0 4.6339998 8.1969995 11.984 15.351 16.891001 19.432699"
         y="0"
         sodipodi:role="line"
         id="tspan2370">Density</tspan><tspan
         x="-96.208 -92.470001 -88.389 -84.307999 -39.921001 -36.182999 -32.102001 -28.601999"
         y="132.02699"
         sodipodi:role="line"
         id="tspan2372">20002010</tspan><tspan
         x="-108.318 -102.711 -99.092003 -95.473 -92.841003 -89.278 -88.073997 -84.707001 -83.019997 -79.107697 -75.509697 -70.252701 -68.565697 -66.353699 -62.853699 -58.919701 -55.216702 -51.387699 -49.700699 -46.438 -42.875 -40.243 -36.875999 -35.335999 -31.716999 -27.93"
         y="0"
         sodipodi:role="line"
         id="tspan2374">Moore’s Law (1975 version)</tspan></text><g
       id="g2378"><g
         id="g2380"
         clip-path="url(#clipPath2384)"><g
           id="g2386"
           transform="translate(219.7718,688.9518)"><path
             d="m 0,0 c 0,-1.502 -1.459,-2.72 -3.259,-2.72 -1.8,0 -3.258,1.218 -3.258,2.72 0,1.502 1.458,2.72 3.258,2.72 C -1.459,2.72 0,1.502 0,0"
             style="fill:#007aa4;fill-opacity:1;fill-rule:nonzero;stroke:none"
             id="path2388" /></g></g></g></g></svg>
