<?xml version="1.0" encoding="UTF-8" standalone="no"?>
<!-- Created with Inkscape (http://www.inkscape.org/) -->

<svg
   version="1.1"
   id="svg11664"
   xml:space="preserve"
   width="445.33331"
   height="260.66666"
   xmlns:inkscape="http://www.inkscape.org/namespaces/inkscape"
   xmlns:sodipodi="http://sodipodi.sourceforge.net/DTD/sodipodi-0.dtd"
   xmlns="http://www.w3.org/2000/svg"
   xmlns:svg="http://www.w3.org/2000/svg"><defs
     id="defs11668" /><sodipodi:namedview
     id="namedview11666"
     pagecolor="#ffffff"
     bordercolor="#000000"
     borderopacity="0.25"
     inkscape:showpageshadow="2"
     inkscape:pageopacity="0.0"
     inkscape:pagecheckerboard="0"
     inkscape:deskcolor="#d1d1d1" /><inkscape:clipboard
     min="4848,723.90001"
     max="5293.3333,984.56667"
     geom-min="4848,723.90001"
     geom-max="5293.3333,984.56667" /><g
     id="g11670"
     transform="matrix(1.3333333,0,0,-1.3333333,-47.999999,320.09999)"><path
       d="m 36,44.575 h 334 v 195.5 H 36 Z"
       style="fill:#daeaf3;fill-opacity:1;fill-rule:nonzero;stroke:none"
       id="path3178" /><path
       d="m 36,228.736 h 334 v 11.339 H 36 Z"
       style="fill:#007aa4;fill-opacity:1;fill-rule:nonzero;stroke:none"
       id="path3180" /><text
       xml:space="preserve"
       transform="matrix(1,0,0,-1,40,231.8251)"
       style="font-variant:normal;font-weight:bold;font-stretch:normal;font-size:7.5px;font-family:'Flama Bold';-inkscape-font-specification:Flama-Bold;writing-mode:lr-tb;fill:#ffffff;fill-opacity:1;fill-rule:nonzero;stroke:none"
       id="text3184"><tspan
         x="0 4.6574998 6.8474998 11.445 16.094999 19.5075 23.827499 25.7775 30.307501 32.5425 34.4925 39.450001 43.875 46.852501 51.172501 55.799999 58.7775 60.967499 65.377502 67.964996 69.915001 74.092499 78.690002 83.010002 87.330002 91.927498 96.577499 101.175 103.125 107.55 110.385 112.335 119.385 123.795 126.7725 130.185 132.375 136.6425 138.5925 145.6425 150.2925 152.88 155.8575 158.0475 162.645 164.93175 169.19925 171.14925 173.33925 177.96675 179.91675 184.99425 189.35175 192.32925 196.95676 201.38174 206.00925 207.95924 210.79425 215.21925 218.63174 220.58176 223.41675 227.84175 232.49174 235.90425 237.85425 242.27925 246.87675 249.85425 252.04425 259.09424 261.28424 265.31924 269.72925 272.70676 274.89676 279.32175 283.94925 288.12674 290.24924"
         y="0"
         sodipodi:role="line"
         id="tspan3182">Figure 7. Potential speedup of matrix multiply in Python for four optimizations. </tspan></text><path
       d="M 91.356,77.402 H 354.74 v 0.199 H 91.356 Z"
       style="fill:#231f20;fill-opacity:1;fill-rule:nonzero;stroke:none"
       id="path3186" /><path
       d="M 91.356,100.103 H 354.74 v 0.199 H 91.356 Z"
       style="fill:#231f20;fill-opacity:1;fill-rule:nonzero;stroke:none"
       id="path3188" /><path
       d="M 91.356,122.606 H 354.74 v 0.201 H 91.356 Z"
       style="fill:#231f20;fill-opacity:1;fill-rule:nonzero;stroke:none"
       id="path3190" /><path
       d="M 91.356,145.309 H 354.74 v 0.199 H 91.356 Z"
       style="fill:#231f20;fill-opacity:1;fill-rule:nonzero;stroke:none"
       id="path3192" /><path
       d="M 91.356,167.811 H 354.74 v 0.2 H 91.356 Z"
       style="fill:#231f20;fill-opacity:1;fill-rule:nonzero;stroke:none"
       id="path3194" /><path
       d="M 91.356,190.315 H 354.74 v 0.2 H 91.356 Z"
       style="fill:#231f20;fill-opacity:1;fill-rule:nonzero;stroke:none"
       id="path3196" /><path
       d="m 117.615,77.56 h 0.31 v 3.186 h -0.31 z"
       style="fill:#eeeeee;fill-opacity:1;fill-rule:nonzero;stroke:none"
       id="path3198" /><path
       d="m 170.254,115.325 h 0.311 v 3.186 h -0.311 z"
       style="fill:#eeeeee;fill-opacity:1;fill-rule:nonzero;stroke:none"
       id="path3200" /><path
       d="m 222.893,135.457 h 0.311 v 3.186 h -0.311 z"
       style="fill:#eeeeee;fill-opacity:1;fill-rule:nonzero;stroke:none"
       id="path3202" /><path
       d="m 275.533,164.012 h 0.31 v 3.186 h -0.31 z"
       style="fill:#eeeeee;fill-opacity:1;fill-rule:nonzero;stroke:none"
       id="path3204" /><path
       d="m 328.171,185.925 h 0.311 v 3.186 h -0.311 z"
       style="fill:#eeeeee;fill-opacity:1;fill-rule:nonzero;stroke:none"
       id="path3206" /><g
       id="g3208"
       transform="translate(118.231,77.2949)"><path
         d="m 0,0 52.576,37.719 52.603,20.118 52.648,28.56 52.607,21.898 -0.674,0.668 L 157.087,87.038 104.457,58.488 51.78,38.342 -0.923,0.532 Z"
         style="fill:#007aa4;fill-opacity:1;fill-rule:nonzero;stroke:none"
         id="path3210" /></g><g
       id="g3212"
       transform="translate(93.3765,193.1465)"><path
         d="M 0,0 V -118.195"
         style="fill:none;stroke:#231f20;stroke-width:0.3;stroke-linecap:butt;stroke-linejoin:miter;stroke-miterlimit:10;stroke-dasharray:none;stroke-opacity:1"
         id="path3214" /></g><text
       xml:space="preserve"
       transform="matrix(1,0,0,-1,63.147,188.0259)"
       style="font-variant:normal;font-weight:normal;font-stretch:normal;font-size:7px;font-family:Flama;-inkscape-font-specification:Flama-Book;writing-mode:lr-tb;fill:#231f20;fill-opacity:1;fill-rule:nonzero;stroke:none"
       id="text3240"><tspan
         x="0 3.5 7.5809999 11.662 13.216 17.297001 21.378"
         y="0"
         sodipodi:role="line"
         id="tspan3216">100,000</tspan><tspan
         x="4.0809999 7.5809999 11.662 13.216 17.297001 21.378"
         y="22.834"
         sodipodi:role="line"
         id="tspan3218">10,000</tspan><tspan
         x="8.1619997 11.662 13.216 17.297001 21.378"
         y="45.877998"
         sodipodi:role="line"
         id="tspan3220">1,000</tspan><tspan
         x="13.797 17.297001 21.378"
         y="68.068001"
         sodipodi:role="line"
         id="tspan3222">100</tspan><tspan
         x="17.878 21.378"
         y="90.684998"
         sodipodi:role="line"
         id="tspan3224">10</tspan><tspan
         x="21.959"
         y="113.092"
         id="tspan3226">1</tspan><tspan
         x="51.618"
         y="104.79"
         id="tspan3228">1</tspan><tspan
         x="94.933998 98.973"
         y="72.267998"
         sodipodi:role="line"
         id="tspan3230">47</tspan><tspan
         x="157.591 161.44099 165.36099"
         y="41.425999"
         sodipodi:role="line"
         id="tspan3232">366</tspan><tspan
         x="199.584 203.504 205.058 208.761 212.49899"
         y="18.214001"
         sodipodi:role="line"
         id="tspan3234">6,727</tspan><tspan
         x="249.67599 253.59599 257.33401 258.888 262.759 266.84"
         y="-5.138"
         sodipodi:role="line"
         id="tspan3236">62,806</tspan><tspan
         x="43.161999 47.396999 50.882999 53.319 57.105999 60.724998"
         y="119.651"
         sodipodi:role="line"
         id="tspan3238">Python</tspan></text><text
       xml:space="preserve"
       transform="matrix(1,0,0,-1,53.599,205.9249)"
       style="font-variant:normal;font-weight:bold;font-stretch:normal;font-size:7px;font-family:Flama;-inkscape-font-specification:Flama-Bold;writing-mode:lr-tb;fill:#231f20;fill-opacity:1;fill-rule:nonzero;stroke:none"
       id="text3244"><tspan
         x="0 5.9640002 9.9750004 12.649 15.729 17.667999 21.546 23.261 29.225 33.459999 35.77 38.444 40.382999 44.569 46.598999 50.477001 52.192001 56.623001 60.808998 64.736 68.663002 72.848999 77.084 81.269997 82.985001 87.835999 91.595001 95.522003 98.601997 100.317 105.455 109.466 112.14 114.079 117.8373 121.7643 123.4793 128.1133 132.0753 134.7493 138.9633 142.9883"
         y="0"
         sodipodi:role="line"
         id="tspan3242">Matrix Multiply Speedup Over Native Python</tspan></text><text
       xml:space="preserve"
       transform="matrix(0,1,1,0,55.8501,126.9844)"
       style="font-variant:normal;font-weight:bold;font-stretch:normal;font-size:7px;font-family:Flama;-inkscape-font-specification:Flama-Bold;writing-mode:lr-tb;fill:#231f20;fill-opacity:1;fill-rule:nonzero;stroke:none"
       id="text3248"><tspan
         x="0 4.4310002 8.6169996 12.544 16.471001 20.657 24.892"
         y="0"
         sodipodi:role="line"
         id="tspan3246">Speedup</tspan></text><text
       xml:space="preserve"
       transform="matrix(1,0,0,-1,169.1612,68.3726)"
       style="font-variant:normal;font-weight:normal;font-stretch:normal;font-size:7px;font-family:Flama;-inkscape-font-specification:Flama-Book;writing-mode:lr-tb;fill:#231f20;fill-opacity:1;fill-rule:nonzero;stroke:none"
       id="text3262"><tspan
         x="0 36.217999 40.159 41.846001 45.598 49.195999 51.792999 55.390999 57.449001 59.507 63.07"
         y="0"
         sodipodi:role="line"
         id="tspan3250">C+ parallel</tspan><tspan
         x="42.462002 44.52 48.139 51.757999 55.509998"
         y="8.0010004"
         sodipodi:role="line"
         id="tspan3252">loops</tspan><tspan
         x="91.279999 95.221001 96.907997 102.914 106.477 112.483 116.102 118.9083"
         y="0"
         sodipodi:role="line"
         id="tspan3254">+ memory</tspan><tspan
         x="88.255997 91.875 95.626999 98.063004 99.602997 105.609 107.149 110.341 113.939 116.375 117.915 121.534"
         y="8.0010004"
         sodipodi:role="line"
         id="tspan3256">optimization</tspan><tspan
         x="149.205 153.146 154.83299 159.005 162.533 168.14"
         y="0"
         sodipodi:role="line"
         id="tspan3258">+ SIMD</tspan><tspan
         x="143.14301 144.683 148.47 151.83701 154.27299 156.905 160.67101 164.09399 166.53 168.07001 171.689 175.476"
         y="8.0010004"
         sodipodi:role="line"
         id="tspan3260">instructions</tspan></text></g></svg>
