<?xml version="1.0" encoding="UTF-8" standalone="no"?>
<!-- Created with Inkscape (http://www.inkscape.org/) -->

<svg
   version="1.1"
   id="svg11236"
   xml:space="preserve"
   width="445.33331"
   height="306.66666"
   xmlns:inkscape="http://www.inkscape.org/namespaces/inkscape"
   xmlns:sodipodi="http://sodipodi.sourceforge.net/DTD/sodipodi-0.dtd"
   xmlns="http://www.w3.org/2000/svg"
   xmlns:svg="http://www.w3.org/2000/svg"><defs
     id="defs11240"><clipPath
       clipPathUnits="userSpaceOnUse"
       id="clipPath3414"><path
         d="M 47.374,264.048 H 359.135 V 456.739 H 47.374 Z"
         id="path3412" /></clipPath><clipPath
       clipPathUnits="userSpaceOnUse"
       id="clipPath3422"><path
         d="M 92.6094,374.292 H 357.65 v -0.099 H 92.6094 Z"
         id="path3420" /></clipPath><clipPath
       clipPathUnits="userSpaceOnUse"
       id="clipPath3426"><path
         d="M 92.609,374.193 H 357.65 Z"
         id="path3424" /></clipPath><clipPath
       clipPathUnits="userSpaceOnUse"
       id="clipPath3558"><path
         d="M 47.374,264.048 H 359.135 V 456.739 H 47.374 Z"
         id="path3556" /></clipPath><clipPath
       clipPathUnits="userSpaceOnUse"
       id="clipPath3566"><path
         d="m 175.151,399.004 h 0.099 V 274.952 h -0.099 z"
         id="path3564" /></clipPath><clipPath
       clipPathUnits="userSpaceOnUse"
       id="clipPath3570"><path
         d="m 175.151,274.952 v 0 124.052 z"
         id="path3568" /></clipPath><clipPath
       clipPathUnits="userSpaceOnUse"
       id="clipPath3828"><path
         d="M 47.374,264.048 H 359.135 V 456.739 H 47.374 Z"
         id="path3826" /></clipPath><clipPath
       clipPathUnits="userSpaceOnUse"
       id="clipPath3852"><path
         d="m 324.811,439.572 h 0.099 v -64.305 h -0.099 z"
         id="path3850" /></clipPath><clipPath
       clipPathUnits="userSpaceOnUse"
       id="clipPath3856"><path
         d="m 324.811,375.267 v 0 64.305 z"
         id="path3854" /></clipPath><clipPath
       clipPathUnits="userSpaceOnUse"
       id="clipPath3896"><path
         d="m 285.443,429.941 h 0.02 v -64.722 h -0.02 z"
         id="path3894" /></clipPath><clipPath
       clipPathUnits="userSpaceOnUse"
       id="clipPath3900"><path
         d="m 285.443,365.219 h 0.02 v 64.722 h -0.02 z"
         id="path3898" /></clipPath><clipPath
       clipPathUnits="userSpaceOnUse"
       id="clipPath3940"><path
         d="m 208.101,420.568 h 0.098 V 311.603 h -0.098 z"
         id="path3938" /></clipPath><clipPath
       clipPathUnits="userSpaceOnUse"
       id="clipPath3944"><path
         d="m 208.101,311.603 h 0.098 v 108.965 h -0.098 z"
         id="path3942" /></clipPath><clipPath
       clipPathUnits="userSpaceOnUse"
       id="clipPath3984"><path
         d="m 126.142,417.643 h 0.099 v -136.88 h -0.099 z"
         id="path3982" /></clipPath><clipPath
       clipPathUnits="userSpaceOnUse"
       id="clipPath3988"><path
         d="m 126.142,280.763 v 0 136.88 z"
         id="path3986" /></clipPath></defs><sodipodi:namedview
     id="namedview11238"
     pagecolor="#ffffff"
     bordercolor="#000000"
     borderopacity="0.25"
     inkscape:showpageshadow="2"
     inkscape:pageopacity="0.0"
     inkscape:pagecheckerboard="0"
     inkscape:deskcolor="#d1d1d1" /><inkscape:clipboard
     min="4848,401.90002"
     max="5293.3333,708.56668"
     geom-min="4848,401.90002"
     geom-max="5293.3333,708.56668" /><g
     id="g11272"
     transform="matrix(1.3333333,0,0,-1.3333333,-47.999999,642.09998)"><path
       d="m 36,251.575 h 334 v 229.8 H 36 Z"
       style="fill:#daeaf3;fill-opacity:1;fill-rule:nonzero;stroke:none"
       id="path3170" /><path
       d="m 36,470.236 h 334 v 11.339 H 36 Z"
       style="fill:#007aa4;fill-opacity:1;fill-rule:nonzero;stroke:none"
       id="path3172" /><text
       xml:space="preserve"
       transform="matrix(1,0,0,-1,40,473.3251)"
       style="font-variant:normal;font-weight:bold;font-stretch:normal;font-size:7.5px;font-family:'Flama Bold';-inkscape-font-specification:Flama-Bold;writing-mode:lr-tb;fill:#ffffff;fill-opacity:1;fill-rule:nonzero;stroke:none"
       id="text3176"><tspan
         x="0 4.6574998 6.8474998 11.445 16.094999 19.5075 23.827499 25.7775 30.434999 32.669998 34.619999 39.779999 43.192501 47.6175 54.0825 57.060001 61.6875 63.637501 68.0625 70.897499 72.847504 77.114998 81.540001 88.589996 93.1875 97.837502 100.815 105.135 108.5475 110.4975 115.095 119.415 122.8275 125.6625 130.08749 133.5 140.55 144.96001 149.58749 153.855 158.175 160.125 164.77499 168.9525 171.1425 175.77 180.36749 182.3175 184.50751 189.13499 192.1125 196.4325 201.03 205.35001 208.7625 210.71249 215.31 218.7225 223.14751 227.745 231.17999 235.59 242.64 246.8175 248.7675 251.4975 256.35751 261.435 266.21249 271.35751 273.54749 278.17499 281.1525 286.29749 291.375 296.80499 299.535 301.6575"
         y="0"
         sodipodi:role="line"
         id="tspan3174">Figure 6. Growth of computer performance using integer programs (SPECintCPU). </tspan></text><g
       id="g3296"
       transform="translate(92.6093,274.9465)"><path
         d="M 0,0 H 265.041"
         style="fill:none;stroke:#dbdada;stroke-width:0.99;stroke-linecap:butt;stroke-linejoin:round;stroke-miterlimit:10;stroke-dasharray:none;stroke-opacity:1"
         id="path3298" /></g><g
       id="g3332"
       transform="translate(92.6093,299.7583)"><path
         d="M 0,0 H 265.041"
         style="fill:none;stroke:#dbdada;stroke-width:0.99;stroke-linecap:butt;stroke-linejoin:round;stroke-miterlimit:10;stroke-dasharray:none;stroke-opacity:1"
         id="path3334" /></g><g
       id="g3368"
       transform="translate(92.6093,324.5702)"><path
         d="M 0,0 H 265.041"
         style="fill:none;stroke:#dbdada;stroke-width:0.99;stroke-linecap:butt;stroke-linejoin:round;stroke-miterlimit:10;stroke-dasharray:none;stroke-opacity:1"
         id="path3370" /></g><g
       id="g3404"
       transform="translate(92.6093,349.3816)"><path
         d="M 0,0 H 265.041"
         style="fill:none;stroke:#dbdada;stroke-width:0.99;stroke-linecap:butt;stroke-linejoin:round;stroke-miterlimit:10;stroke-dasharray:none;stroke-opacity:1"
         id="path3406" /></g><g
       id="g3408"><g
         id="g3410"
         clip-path="url(#clipPath3414)"><g
           id="g3416"><g
             id="g3418" /><g
             id="g3438"><g
               clip-path="url(#clipPath3422)"
               opacity="0"
               id="g3436"><g
                 id="g3434"><g
                   clip-path="url(#clipPath3426)"
                   id="g3432"><g
                     transform="translate(92.6093,374.193)"
                     id="g3430"><path
                       d="M 0,0 H 265.041"
                       style="fill:#000000;fill-opacity:1;fill-rule:nonzero;stroke:none"
                       id="path3428" /></g></g></g></g></g></g></g></g><g
       id="g3440"
       transform="translate(92.6093,374.193)"><path
         d="M 0,0 H 265.041"
         style="fill:none;stroke:#dbdada;stroke-width:0.99;stroke-linecap:butt;stroke-linejoin:round;stroke-miterlimit:10;stroke-dasharray:none;stroke-opacity:1"
         id="path3442" /></g><g
       id="g3476"
       transform="translate(92.6093,399.0049)"><path
         d="M 0,0 H 265.041"
         style="fill:none;stroke:#dbdada;stroke-width:0.99;stroke-linecap:butt;stroke-linejoin:round;stroke-miterlimit:10;stroke-dasharray:none;stroke-opacity:1"
         id="path3478" /></g><g
       id="g3512"
       transform="translate(109.6757,399.0049)"><path
         d="M 0,0 V -124.053"
         style="fill:none;stroke:#dbdada;stroke-width:0.99;stroke-linecap:butt;stroke-linejoin:round;stroke-miterlimit:10;stroke-dasharray:none;stroke-opacity:1"
         id="path3514" /></g><g
       id="g3548"
       transform="translate(142.4133,399.0049)"><path
         d="M 0,0 V -124.053"
         style="fill:none;stroke:#dbdada;stroke-width:0.99;stroke-linecap:butt;stroke-linejoin:round;stroke-miterlimit:10;stroke-dasharray:none;stroke-opacity:1"
         id="path3550" /></g><g
       id="g3552"><g
         id="g3554"
         clip-path="url(#clipPath3558)"><g
           id="g3560"><g
             id="g3562" /><g
             id="g3582"><g
               clip-path="url(#clipPath3566)"
               opacity="0"
               id="g3580"><g
                 id="g3578"><g
                   clip-path="url(#clipPath3570)"
                   id="g3576"><g
                     transform="translate(175.151,399.0049)"
                     id="g3574"><path
                       d="M 0,0 V -124.053"
                       style="fill:#000000;fill-opacity:1;fill-rule:nonzero;stroke:none"
                       id="path3572" /></g></g></g></g></g></g></g></g><g
       id="g3584"
       transform="translate(175.151,399.0049)"><path
         d="M 0,0 V -124.053"
         style="fill:none;stroke:#dbdada;stroke-width:0.99;stroke-linecap:butt;stroke-linejoin:round;stroke-miterlimit:10;stroke-dasharray:none;stroke-opacity:1"
         id="path3586" /></g><g
       id="g3620"
       transform="translate(207.8902,399.0049)"><path
         d="M 0,0 V -124.053"
         style="fill:none;stroke:#dbdada;stroke-width:0.99;stroke-linecap:butt;stroke-linejoin:round;stroke-miterlimit:10;stroke-dasharray:none;stroke-opacity:1"
         id="path3622" /></g><g
       id="g3656"
       transform="translate(240.2808,399.0049)"><path
         d="M 0,0 V -124.053"
         style="fill:none;stroke:#dbdada;stroke-width:0.99;stroke-linecap:butt;stroke-linejoin:round;stroke-miterlimit:10;stroke-dasharray:none;stroke-opacity:1"
         id="path3658" /></g><g
       id="g3692"
       transform="translate(273.0204,399.0049)"><path
         d="M 0,0 V -124.053"
         style="fill:none;stroke:#dbdada;stroke-width:0.99;stroke-linecap:butt;stroke-linejoin:round;stroke-miterlimit:10;stroke-dasharray:none;stroke-opacity:1"
         id="path3694" /></g><g
       id="g3728"
       transform="translate(305.0619,399.0049)"><path
         d="M 0,0 V -124.053"
         style="fill:none;stroke:#dbdada;stroke-width:0.99;stroke-linecap:butt;stroke-linejoin:round;stroke-miterlimit:10;stroke-dasharray:none;stroke-opacity:1"
         id="path3730" /></g><g
       id="g3764"
       transform="translate(337.8015,399.0049)"><path
         d="M 0,0 V -124.053"
         style="fill:none;stroke:#dbdada;stroke-width:0.99;stroke-linecap:butt;stroke-linejoin:round;stroke-miterlimit:10;stroke-dasharray:none;stroke-opacity:1"
         id="path3766" /></g><g
       id="g3768"
       transform="translate(97.1871,275.0295)"><path
         d="M 0,0 H 52.592 V 16.939 Z"
         style="fill:#ab0f14;fill-opacity:1;fill-rule:nonzero;stroke:none"
         id="path3770" /></g><g
       id="g3772"
       transform="translate(149.7784,291.9495)"><path
         d="M 0,0 109.962,77.645 V -16.891 H 0 Z"
         style="fill:#00ac4e;fill-opacity:1;fill-rule:nonzero;stroke:none"
         id="path3774" /></g><g
       id="g3776"
       transform="translate(259.5065,369.5306)"><path
         d="M 0,0 52.243,18.421 V -94.474 H -0.349 Z"
         style="fill:#377fc2;fill-opacity:1;fill-rule:nonzero;stroke:none"
         id="path3778" /></g><g
       id="g3780"
       transform="translate(311.7502,387.9161)"><path
         d="M 0,0 26.122,4.443 V -112.865 H 0 Z"
         style="fill:#636466;fill-opacity:1;fill-rule:nonzero;stroke:none"
         id="path3782" /></g><path
       d="m 337.872,392.36 h 19.784 V 275.056 h -19.784 z"
       style="fill:#f0483e;fill-opacity:1;fill-rule:nonzero;stroke:none"
       id="path3784" /><g
       id="g3818"
       transform="translate(347.7644,448.5696)"><path
         d="M 0,0 V -60.273"
         style="fill:none;stroke:#f0483e;stroke-width:0.99;stroke-linecap:butt;stroke-linejoin:round;stroke-miterlimit:10;stroke-dasharray:none;stroke-opacity:1"
         id="path3820" /></g><g
       id="g3822"><g
         id="g3824"
         clip-path="url(#clipPath3828)"><g
           id="g3830"
           transform="translate(347.7644,450.3185)"><path
             d="m 0,0 c 0.569,0 1.032,-0.392 1.032,-0.874 0,-0.483 -0.463,-0.875 -1.032,-0.875 -0.569,0 -1.032,0.392 -1.032,0.875 C -1.032,-0.392 -0.569,0 0,0"
             style="fill:#f0483e;fill-opacity:1;fill-rule:nonzero;stroke:none"
             id="path3832" /></g><g
           id="g3834"
           transform="translate(347.7644,450.3185)"><path
             d="m 0,0 c 0.569,0 1.032,-0.392 1.032,-0.874 0,-0.483 -0.463,-0.875 -1.032,-0.875 -0.569,0 -1.032,0.392 -1.032,0.875 C -1.032,-0.392 -0.569,0 0,0 Z"
             style="fill:none;stroke:#f0483e;stroke-width:0.99;stroke-linecap:butt;stroke-linejoin:miter;stroke-miterlimit:10;stroke-dasharray:none;stroke-opacity:1"
             id="path3836" /></g><g
           id="g3838"
           transform="translate(347.7644,386.5467)"><path
             d="m 0,0 c -0.569,0 -1.032,0.392 -1.032,0.874 0,0.483 0.463,0.875 1.032,0.875 0.569,0 1.032,-0.392 1.032,-0.875 C 1.032,0.392 0.569,0 0,0"
             style="fill:#f0483e;fill-opacity:1;fill-rule:nonzero;stroke:none"
             id="path3840" /></g><g
           id="g3842"
           transform="translate(347.7644,386.5467)"><path
             d="m 0,0 c -0.569,0 -1.032,0.392 -1.032,0.874 0,0.483 0.463,0.875 1.032,0.875 0.569,0 1.032,-0.392 1.032,-0.875 C 1.032,0.392 0.569,0 0,0 Z"
             style="fill:none;stroke:#f0483e;stroke-width:0.99;stroke-linecap:butt;stroke-linejoin:miter;stroke-miterlimit:10;stroke-dasharray:none;stroke-opacity:1"
             id="path3844" /></g><g
           id="g3846"><g
             id="g3848" /><g
             id="g3868"><g
               clip-path="url(#clipPath3852)"
               opacity="0"
               id="g3866"><g
                 id="g3864"><g
                   clip-path="url(#clipPath3856)"
                   id="g3862"><g
                     transform="translate(324.8116,439.5712)"
                     id="g3860"><path
                       d="M 0,0 V -64.303"
                       style="fill:#000000;fill-opacity:1;fill-rule:nonzero;stroke:none"
                       id="path3858" /></g></g></g></g></g></g><g
           id="g3870"
           transform="translate(324.8116,437.5563)"><path
             d="M 0,0 V -60.273"
             style="fill:none;stroke:#636466;stroke-width:0.99;stroke-linecap:butt;stroke-linejoin:round;stroke-miterlimit:10;stroke-dasharray:none;stroke-opacity:1"
             id="path3872" /></g><g
           id="g3874"
           transform="translate(324.8116,439.3058)"><path
             d="m 0,0 c 0.569,0 1.031,-0.392 1.031,-0.875 0,-0.483 -0.462,-0.874 -1.031,-0.874 -0.57,0 -1.032,0.391 -1.032,0.874 C -1.032,-0.392 -0.57,0 0,0"
             style="fill:#636466;fill-opacity:1;fill-rule:nonzero;stroke:none"
             id="path3876" /></g><g
           id="g3878"
           transform="translate(324.8116,439.3058)"><path
             d="m 0,0 c 0.569,0 1.031,-0.392 1.031,-0.875 0,-0.483 -0.462,-0.874 -1.031,-0.874 -0.57,0 -1.032,0.391 -1.032,0.874 C -1.032,-0.392 -0.57,0 0,0 Z"
             style="fill:none;stroke:#636466;stroke-width:0.99;stroke-linecap:butt;stroke-linejoin:miter;stroke-miterlimit:10;stroke-dasharray:none;stroke-opacity:1"
             id="path3880" /></g><g
           id="g3882"
           transform="translate(324.8116,375.5334)"><path
             d="m 0,0 c -0.57,0 -1.032,0.392 -1.032,0.875 0,0.483 0.462,0.874 1.032,0.874 0.569,0 1.031,-0.391 1.031,-0.874 C 1.031,0.392 0.569,0 0,0"
             style="fill:#636466;fill-opacity:1;fill-rule:nonzero;stroke:none"
             id="path3884" /></g><g
           id="g3886"
           transform="translate(324.8116,375.5334)"><path
             d="m 0,0 c -0.57,0 -1.032,0.392 -1.032,0.875 0,0.483 0.462,0.874 1.032,0.874 0.569,0 1.031,-0.391 1.031,-0.874 C 1.031,0.392 0.569,0 0,0 Z"
             style="fill:none;stroke:#636466;stroke-width:0.99;stroke-linecap:butt;stroke-linejoin:miter;stroke-miterlimit:10;stroke-dasharray:none;stroke-opacity:1"
             id="path3888" /></g><g
           id="g3890"><g
             id="g3892" /><g
             id="g3912"><g
               clip-path="url(#clipPath3896)"
               opacity="0"
               id="g3910"><g
                 id="g3908"><g
                   clip-path="url(#clipPath3900)"
                   id="g3906"><g
                     transform="translate(285.4437,429.9404)"
                     id="g3904"><path
                       d="M 0,0 0.02,-64.722"
                       style="fill:#000000;fill-opacity:1;fill-rule:nonzero;stroke:none"
                       id="path3902" /></g></g></g></g></g></g><g
           id="g3914"
           transform="translate(285.4437,427.9256)"><path
             d="M 0,0 0.019,-60.692"
             style="fill:none;stroke:#377fc2;stroke-width:0.99;stroke-linecap:butt;stroke-linejoin:round;stroke-miterlimit:10;stroke-dasharray:none;stroke-opacity:1"
             id="path3916" /></g><g
           id="g3918"
           transform="translate(285.4437,429.6746)"><path
             d="m 0,0 c 0.569,0 1.031,-0.391 1.032,-0.874 0,-0.483 -0.463,-0.875 -1.032,-0.875 -0.569,0 -1.032,0.391 -1.032,0.875 C -1.032,-0.392 -0.569,0 0,0"
             style="fill:#377fc2;fill-opacity:1;fill-rule:nonzero;stroke:none"
             id="path3920" /></g><g
           id="g3922"
           transform="translate(285.4437,429.6746)"><path
             d="m 0,0 c 0.569,0 1.031,-0.391 1.032,-0.874 0,-0.483 -0.463,-0.875 -1.032,-0.875 -0.569,0 -1.032,0.391 -1.032,0.875 C -1.032,-0.392 -0.569,0 0,0 Z"
             style="fill:none;stroke:#377fc2;stroke-width:0.99;stroke-linecap:butt;stroke-linejoin:miter;stroke-miterlimit:10;stroke-dasharray:none;stroke-opacity:1"
             id="path3924" /></g><g
           id="g3926"
           transform="translate(285.463,365.484)"><path
             d="m 0,0 c -0.569,0 -1.032,0.392 -1.032,0.874 0,0.483 0.462,0.875 1.031,0.875 0.569,0 1.032,-0.391 1.032,-0.874 C 1.031,0.392 0.569,0 0,0"
             style="fill:#377fc2;fill-opacity:1;fill-rule:nonzero;stroke:none"
             id="path3928" /></g><g
           id="g3930"
           transform="translate(285.463,365.484)"><path
             d="m 0,0 c -0.569,0 -1.032,0.392 -1.032,0.874 0,0.483 0.462,0.875 1.031,0.875 0.569,0 1.032,-0.391 1.032,-0.874 C 1.031,0.392 0.569,0 0,0 Z"
             style="fill:none;stroke:#377fc2;stroke-width:0.99;stroke-linecap:butt;stroke-linejoin:miter;stroke-miterlimit:10;stroke-dasharray:none;stroke-opacity:1"
             id="path3932" /></g><g
           id="g3934"><g
             id="g3936" /><g
             id="g3956"><g
               clip-path="url(#clipPath3940)"
               opacity="0"
               id="g3954"><g
                 id="g3952"><g
                   clip-path="url(#clipPath3944)"
                   id="g3950"><g
                     transform="translate(208.1009,420.5677)"
                     id="g3948"><path
                       d="M 0,0 0.099,-108.964"
                       style="fill:#000000;fill-opacity:1;fill-rule:nonzero;stroke:none"
                       id="path3946" /></g></g></g></g></g></g><g
           id="g3958"
           transform="translate(208.1028,418.5525)"><path
             d="M 0,0 0.095,-104.934"
             style="fill:none;stroke:#00ac4e;stroke-width:0.99;stroke-linecap:butt;stroke-linejoin:round;stroke-miterlimit:10;stroke-dasharray:none;stroke-opacity:1"
             id="path3960" /></g><g
           id="g3962"
           transform="translate(208.1009,420.3019)"><path
             d="m 0,0 c 0.57,0 1.032,-0.391 1.033,-0.874 0,-0.483 -0.462,-0.875 -1.031,-0.875 -0.569,0 -1.032,0.391 -1.032,0.874 C -1.031,-0.392 -0.569,0 0,0"
             style="fill:#00ac4e;fill-opacity:1;fill-rule:nonzero;stroke:none"
             id="path3964" /></g><g
           id="g3966"
           transform="translate(208.1009,420.3019)"><path
             d="m 0,0 c 0.57,0 1.032,-0.391 1.033,-0.874 0,-0.483 -0.462,-0.875 -1.031,-0.875 -0.569,0 -1.032,0.391 -1.032,0.874 C -1.031,-0.392 -0.569,0 0,0 Z"
             style="fill:none;stroke:#00ac4e;stroke-width:0.99;stroke-linecap:butt;stroke-linejoin:miter;stroke-miterlimit:10;stroke-dasharray:none;stroke-opacity:1"
             id="path3968" /></g><g
           id="g3970"
           transform="translate(208.1995,311.8694)"><path
             d="m 0,0 c -0.569,-0.001 -1.032,0.391 -1.032,0.874 -10e-4,0.482 0.461,0.875 1.03,0.875 0.57,0 1.032,-0.391 1.033,-0.874 C 1.031,0.392 0.569,0 0,0"
             style="fill:#00ac4e;fill-opacity:1;fill-rule:nonzero;stroke:none"
             id="path3972" /></g><g
           id="g3974"
           transform="translate(208.1995,311.8694)"><path
             d="m 0,0 c -0.569,-0.001 -1.032,0.391 -1.032,0.874 -10e-4,0.482 0.461,0.875 1.03,0.875 0.57,0 1.032,-0.391 1.033,-0.874 C 1.031,0.392 0.569,0 0,0 Z"
             style="fill:none;stroke:#00ac4e;stroke-width:0.99;stroke-linecap:butt;stroke-linejoin:miter;stroke-miterlimit:10;stroke-dasharray:none;stroke-opacity:1"
             id="path3976" /></g><g
           id="g3978"><g
             id="g3980" /><g
             id="g4000"><g
               clip-path="url(#clipPath3984)"
               opacity="0"
               id="g3998"><g
                 id="g3996"><g
                   clip-path="url(#clipPath3988)"
                   id="g3994"><g
                     transform="translate(126.1417,417.6428)"
                     id="g3992"><path
                       d="M 0,0 V -136.88"
                       style="fill:#000000;fill-opacity:1;fill-rule:nonzero;stroke:none"
                       id="path3990" /></g></g></g></g></g></g><g
           id="g4002"
           transform="translate(126.1417,415.6279)"><path
             d="M 0,0 V -132.849"
             style="fill:none;stroke:#ab0f14;stroke-width:0.99;stroke-linecap:butt;stroke-linejoin:round;stroke-miterlimit:10;stroke-dasharray:none;stroke-opacity:1"
             id="path4004" /></g><g
           id="g4006"
           transform="translate(126.1417,417.3769)"><path
             d="m 0,0 c 0.569,0 1.032,-0.392 1.032,-0.874 0,-0.483 -0.463,-0.875 -1.032,-0.875 -0.569,0 -1.032,0.392 -1.032,0.875 C -1.032,-0.392 -0.569,0 0,0"
             style="fill:#ab0f14;fill-opacity:1;fill-rule:nonzero;stroke:none"
             id="path4008" /></g><g
           id="g4010"
           transform="translate(126.1417,417.3769)"><path
             d="m 0,0 c 0.569,0 1.032,-0.392 1.032,-0.874 0,-0.483 -0.463,-0.875 -1.032,-0.875 -0.569,0 -1.032,0.392 -1.032,0.875 C -1.032,-0.392 -0.569,0 0,0 Z"
             style="fill:none;stroke:#ab0f14;stroke-width:0.99;stroke-linecap:butt;stroke-linejoin:miter;stroke-miterlimit:10;stroke-dasharray:none;stroke-opacity:1"
             id="path4012" /></g><g
           id="g4014"
           transform="translate(126.1417,281.0285)"><path
             d="M 0,0 C -0.569,0 -1.032,0.392 -1.032,0.875 -1.032,1.358 -0.569,1.75 0,1.75 0.569,1.75 1.032,1.358 1.032,0.875 1.032,0.392 0.569,0 0,0"
             style="fill:#ab0f14;fill-opacity:1;fill-rule:nonzero;stroke:none"
             id="path4016" /></g><g
           id="g4018"
           transform="translate(126.1417,281.0285)"><path
             d="M 0,0 C -0.569,0 -1.032,0.392 -1.032,0.875 -1.032,1.358 -0.569,1.75 0,1.75 0.569,1.75 1.032,1.358 1.032,0.875 1.032,0.392 0.569,0 0,0 Z"
             style="fill:none;stroke:#ab0f14;stroke-width:0.99;stroke-linecap:butt;stroke-linejoin:miter;stroke-miterlimit:10;stroke-dasharray:none;stroke-opacity:1"
             id="path4020" /></g></g></g><text
       xml:space="preserve"
       transform="matrix(1,0,0,-1,102.3468,266.6324)"
       style="font-variant:normal;font-weight:normal;font-stretch:normal;font-size:6.93px;font-family:Flama;-inkscape-font-specification:Flama-Book;writing-mode:lr-tb;fill:#231f20;fill-opacity:1;fill-rule:nonzero;stroke:none"
       id="text4026"><tspan
         x="0 3.4649999 7.3596601 11.19195"
         y="0"
         sodipodi:role="line"
         id="tspan4022">1980</tspan><tspan
         x="-37.6992 -34.2342 -30.19401 -26.15382 -24.61536 -20.575171 -16.534981"
         y="-131.22649"
         sodipodi:role="line"
         id="tspan4024">100,000</tspan></text><text
       xml:space="preserve"
       transform="matrix(1,0,0,-1,130.07373,415.39178)"
       style="font-variant:normal;font-weight:500;font-stretch:normal;font-size:6.93px;font-family:Flama;-inkscape-font-specification:Flama-Medium;writing-mode:lr-tb;fill:#377fc2;fill-opacity:1;fill-rule:nonzero;stroke:none"
       id="text4038"><tspan
         x="0 4.5738001 8.3298597 12.64725 17.22105 18.95355 22.917509 27.089371 29.50794 33.471901 35.273701 39.237659 40.970161 44.483669 48.225868 51.974998 54.795509"
         y="0"
         sodipodi:role="line"
         id="tspan4028">CISC 2X/2.5 years</tspan><tspan
         x="0 2.34234 6.3063002 10.27026 15.86277 18.28134 21.794849 25.53705 29.28618 32.106689"
         y="7.92099"
         sodipodi:role="line"
         id="tspan4030">(22%/year)</tspan><tspan
         x="83.270882 87.78231 91.538368 95.855759 100.42956 102.16206 106.12602 110.29788 112.71645 116.29233 118.09413 122.05809 123.79059 127.3041 131.0463 134.79543 137.61594"
         y="0"
         sodipodi:role="line"
         id="tspan4032">RISC 2X/1.5 years</tspan><tspan
         x="83.270882 85.61322 89.577179 93.541138 99.133652 101.55222 105.06573 108.80793 112.55706 115.37757"
         y="7.92099"
         sodipodi:role="line"
         id="tspan4034">(52%/year)</tspan><tspan
         x="-41.254292 -36.923038 -32.966011 -28.98819 -27.25569 -23.444189 -21.254311 -19.521811 -14.77476 -11.03256 -7.0755301 -3.1185 0.63063002 3.4511399 7.4289598 9.1614599 13.47885 17.11017 20.859301 22.99374 24.75396 28.710991 32.65416"
         y="-11.34441"
         sodipodi:role="line"
         id="tspan4036">End of Dennard Scaling </tspan></text><text
       xml:space="preserve"
       transform="matrix(1,0,0,-1,164.46039,426.73619)"
       style="font-variant:normal;font-weight:normal;font-stretch:normal;font-size:6.93px;font-family:EuclidSymbol;-inkscape-font-specification:EuclidSymbol;writing-mode:lr-tb;fill:#377fc2;fill-opacity:1;fill-rule:nonzero;stroke:none"
       id="text4042"><tspan
         x="0 6.9299998"
         y="0"
         sodipodi:role="line"
         id="tspan4040">⇒ </tspan></text><text
       xml:space="preserve"
       transform="matrix(1,0,0,-1,173.12289,426.73619)"
       style="font-variant:normal;font-weight:500;font-stretch:normal;font-size:6.93px;font-family:Flama;-inkscape-font-specification:Flama-Medium;writing-mode:lr-tb;fill:#636466;fill-opacity:1;fill-rule:nonzero;stroke:none"
       id="text4048"><tspan
         x="0 5.7726898 9.6881399 11.82258 14.12334 15.88356 19.514879 23.32638 26.146891 29.88909 31.62159 35.585548 39.757408 42.17598 46.195381 47.997181 51.96114 53.693642 57.20715 60.949348 64.698479 67.51899 71.136452 72.86895 75.211288 79.175247 83.194649 88.787163 91.205727 94.719238 98.461441 102.21057 105.03108"
         y="0"
         sodipodi:role="line"
         id="tspan4044">Multicore 2X/3.5 years (23%/year)</tspan><tspan
         x="23.028391 27.68535 33.776821 37.754639 41.503769 45.4608 47.595242 49.049847 52.667309 54.399807 58.405346 62.154476 67.50444"
         y="-10.56825"
         sodipodi:role="line"
         id="tspan4046">Amdahl’s Law </tspan></text><text
       xml:space="preserve"
       transform="matrix(1,0,0,-1,242.35983,437.30444)"
       style="font-variant:normal;font-weight:normal;font-stretch:normal;font-size:6.93px;font-family:EuclidSymbol;-inkscape-font-specification:EuclidSymbol;writing-mode:lr-tb;fill:#636466;fill-opacity:1;fill-rule:nonzero;stroke:none"
       id="text4052"><tspan
         x="0 6.9299998"
         y="0"
         sodipodi:role="line"
         id="tspan4050">⇒ </tspan></text><text
       xml:space="preserve"
       transform="matrix(1,0,0,-1,251.02233,437.30444)"
       style="font-variant:normal;font-weight:500;font-stretch:normal;font-size:6.93px;font-family:Flama;-inkscape-font-specification:Flama-Medium;writing-mode:lr-tb;fill:#f0483e;fill-opacity:1;fill-rule:nonzero;stroke:none"
       id="text4058"><tspan
         x="0 3.9639599 8.1358204 10.55439 14.60151 16.334009 19.847521 23.58972 27.33885 30.159361 33.776821 35.509319 37.851662 41.42754 45.391499 50.984009 53.40258 56.916088 60.658291 64.407417 67.227928"
         y="0"
         sodipodi:role="line"
         id="tspan4054">2X/6 years (12%/year)</tspan><tspan
         x="-27.157976 -22.826727 -18.869698 -14.891877 -13.159377 -9.3478765 -7.1579971 -5.4254971 -3.124737 0.83229297 4.5744929 6.306993 10.312533 12.072753 16.029783 19.771982"
         y="-11.60082"
         sodipodi:role="line"
         id="tspan4056">End of the Line </tspan></text><text
       xml:space="preserve"
       transform="matrix(1,0,0,-1,272.52681,448.90526)"
       style="font-variant:normal;font-weight:normal;font-stretch:normal;font-size:6.93px;font-family:EuclidSymbol;-inkscape-font-specification:EuclidSymbol;writing-mode:lr-tb;fill:#f04e30;fill-opacity:1;fill-rule:nonzero;stroke:none"
       id="text4062"><tspan
         x="0"
         y="0"
         id="tspan4060">⇒</tspan></text><text
       xml:space="preserve"
       transform="matrix(1,0,0,-1,281.18931,448.90526)"
       style="font-variant:normal;font-weight:500;font-stretch:normal;font-size:6.93px;font-family:Flama;-inkscape-font-specification:Flama-Medium;writing-mode:lr-tb;fill:#f0483e;fill-opacity:1;fill-rule:nonzero;stroke:none"
       id="text4066"><tspan
         x="0 3.9639599 8.1358204 10.55439 14.51835 18.64863 20.38113 23.89464 27.636841 31.385969 34.206478 37.82394 39.556438 41.898781 45.918179 51.510689 53.92926 57.442768 60.263279"
         y="0"
         sodipodi:role="line"
         id="tspan4064">2X/20 years (3%/yr)</tspan></text><text
       xml:space="preserve"
       transform="matrix(1,0,0,-1,68.68086,372.33569)"
       style="font-variant:normal;font-weight:normal;font-stretch:normal;font-size:6.93px;font-family:Flama;-inkscape-font-specification:Flama-Book;writing-mode:lr-tb;fill:#231f20;fill-opacity:1;fill-rule:nonzero;stroke:none"
       id="text4076"><tspan
         x="0 3.4649999 7.5051899 9.0436497 13.08384 17.124029"
         y="0"
         sodipodi:role="line"
         id="tspan4068">10,000</tspan><tspan
         x="4.0401902 7.5051899 9.0436497 13.08384 17.124029"
         y="26.036011"
         sodipodi:role="line"
         id="tspan4070">1,000</tspan><tspan
         x="9.6188402 13.08384 17.124029"
         y="48.981239"
         sodipodi:role="line"
         id="tspan4072">100</tspan><tspan
         x="13.65903 17.124029"
         y="75.024178"
         sodipodi:role="line"
         id="tspan4074">10</tspan></text><text
       xml:space="preserve"
       transform="matrix(0,1,1,0,55.3441,291.4021)"
       style="font-variant:normal;font-weight:bold;font-stretch:normal;font-size:6.93px;font-family:Flama;-inkscape-font-specification:Flama-Bold;writing-mode:lr-tb;fill:#231f20;fill-opacity:1;fill-rule:nonzero;stroke:none"
       id="text4080"><tspan
         x="0 4.4767799 8.3645096 11.41371 13.9293 17.914049 20.963249 27.373501 31.344391 35.516251 39.355469 43.243198 44.941051 48.724831 52.480888 54.442081 56.139931 60.013802 64.941032 69.445534 73.097641 76.749748 79.265343 83.347107 87.525902"
         y="0"
         sodipodi:role="line"
         id="tspan4078">Performance vs. VAX11-780</tspan></text><text
       xml:space="preserve"
       transform="matrix(1,0,0,-1,86.3884,272.8199)"
       style="font-variant:normal;font-weight:normal;font-stretch:normal;font-size:6.93px;font-family:Flama;-inkscape-font-specification:Flama-Book;writing-mode:lr-tb;fill:#231f20;fill-opacity:1;fill-rule:nonzero;stroke:none"
       id="text4086"><tspan
         x="0"
         y="0"
         id="tspan4082">1</tspan><tspan
         x="49.902931 53.367931 57.262589 61.094879 81.309692 84.774689 88.66935 92.564011 114.49746 117.96246 121.85712 125.75178 145.66859 149.36922 153.40941 157.4496 178.35741 182.05803 186.09822 190.13841 211.33728 215.0379 219.07809 222.54309 244.02609 247.72672 251.76691 255.2319"
         y="6.1884899"
         sodipodi:role="line"
         id="tspan4084">1985199019952000200520102015</tspan></text></g></svg>
